STARTFONT 2.1
FONT -FontForge-Good Times Rg-Book-R-Normal--42-400-75-75-P-312-ISO10646-1
SIZE 40 75 75
FONTBOUNDINGBOX 84 51 -12 -9
COMMENT "Generated by fontforge, http://fontforge.sourceforge.net"
COMMENT "(c) 1998-2012 Typodermic Fonts Inc. See attached license agreement. If agreement is missing visit typodermicfonts.com for more info. Languages by Chikako Larabie"
STARTPROPERTIES 39
FOUNDRY "FontForge"
FAMILY_NAME "Good Times Rg"
WEIGHT_NAME "Book"
SLANT "R"
SETWIDTH_NAME "Normal"
ADD_STYLE_NAME ""
PIXEL_SIZE 42
POINT_SIZE 400
RESOLUTION_X 75
RESOLUTION_Y 75
SPACING "P"
AVERAGE_WIDTH 312
CHARSET_REGISTRY "ISO10646"
CHARSET_ENCODING "1"
FONTNAME_REGISTRY ""
CHARSET_COLLECTIONS "ISO8859-2 ISO8859-9 ISO8859-4 ISO10646-1"
FONT_NAME "GoodTimesRg-Regular"
FACE_NAME "GoodTimesRg-Regular"
COPYRIGHT "(c) 1998-2012 Typodermic Fonts Inc. See attached license agreement. If agreement is missing visit typodermicfonts.com for more info. Languages by Chikako Larabie"
FONT_VERSION "4.001"
FONT_ASCENT 34
FONT_DESCENT 8
UNDERLINE_POSITION -6
UNDERLINE_THICKNESS 1
X_HEIGHT 30
CAP_HEIGHT 30
RAW_ASCENT 799
RAW_DESCENT 201
NORM_SPACE 12
RELATIVE_WEIGHT 40
RELATIVE_SETWIDTH 50
SUPERSCRIPT_X 0
SUPERSCRIPT_Y 12
SUPERSCRIPT_SIZE 12
SUBSCRIPT_X 0
SUBSCRIPT_Y 0
SUBSCRIPT_SIZE 12
AVG_LOWERCASE_WIDTH 358
AVG_UPPERCASE_WIDTH 357
ENDPROPERTIES
CHARS 372
STARTCHAR space
ENCODING 32
SWIDTH 294 0
DWIDTH 12 0
BBX 1 1 0 0
BITMAP
00
ENDCHAR
STARTCHAR exclam
ENCODING 33
SWIDTH 298 0
DWIDTH 13 0
BBX 6 31 3 0
BITMAP
7C
7C
7C
7C
7C
7C
7C
7C
7C
7C
7C
7C
7C
7C
7C
7C
7C
7C
7C
7C
7C
00
00
00
00
00
7C
7C
FC
7C
38
ENDCHAR
STARTCHAR quotedbl
ENCODING 34
SWIDTH 452 0
DWIDTH 19 0
BBX 13 11 3 20
BITMAP
F8F8
F8F8
F8F8
F8F8
F8F8
F8F8
F8F8
78F0
78F0
7070
7070
ENDCHAR
STARTCHAR numbersign
ENCODING 35
SWIDTH 697 0
DWIDTH 29 0
BBX 26 31 2 0
BITMAP
003C0F00
003C0F00
00380E00
00781E00
00781E00
00781E00
00F03C00
00F03C00
1FFFFFC0
1FFFFFC0
1FFFFFC0
1FFFFFC0
01E07800
03C0F000
03C0F000
03C0F000
0780E000
0781E000
0781E000
FFFFFC00
FFFFFC00
FFFFFC00
FFFFFC00
1E038000
1E078000
1E078000
1C070000
3C0F0000
3C0F0000
380E0000
781E0000
ENDCHAR
STARTCHAR dollar
ENCODING 36
SWIDTH 744 0
DWIDTH 31 0
BBX 27 31 2 0
BITMAP
00060000
00060000
00060000
07FFFFC0
1FFFFFC0
3FFFFFC0
7FFFFFC0
7C060000
F8060000
F8060000
F8060000
78060000
7C060000
7FFFFE00
3FFFFF00
1FFFFF80
07FFFFC0
000607C0
000603E0
000601E0
000601E0
000601E0
000603E0
000607C0
7FFFFFC0
7FFFFF80
7FFFFF00
7FFFFC00
00060000
00060000
00060000
ENDCHAR
STARTCHAR percent
ENCODING 37
SWIDTH 965 0
DWIDTH 41 0
BBX 37 36 2 -3
BITMAP
0000000380
0000000700
07E0000F00
1FF0001E00
3FFC001C00
783C003800
F00E007800
E00E00F000
E00601E000
C00701C000
C00703C000
E006078000
E00E0F0000
700E0E0000
783C1C0000
3FF83C0000
1FF0780000
07C0F00000
0000E03F00
0001E0FFC0
0003C1FFE0
000783C0F0
0007038070
000E070030
001E070038
003C070038
0078070038
0070070038
00F0070070
01E0038070
03C003C0E0
038001FFE0
070000FF80
0F00003F00
1E00000000
3C00000000
ENDCHAR
STARTCHAR ampersand
ENCODING 38
SWIDTH 759 0
DWIDTH 32 0
BBX 29 31 2 0
BITMAP
01FF0000
0FFF0000
1FFF0000
3FFF0000
7FFF0000
7FC00000
7E000000
7C000000
7C000000
7C000000
7C000000
7E000000
3F000000
1FFFFFE0
0FFFFFE0
1FFFFFE0
3FFFFFE0
7FFFFFE0
7F003E00
FC003E00
FC003E00
F8003E00
FC003E00
FC003E00
FE003E00
7FC03E00
7FFFFFF8
3FFFFFF8
1FFFFFF8
0FFFFFF8
03FFFFF8
ENDCHAR
STARTCHAR quotesingle
ENCODING 39
SWIDTH 255 0
DWIDTH 11 0
BBX 5 11 3 20
BITMAP
F8
F8
F8
F8
F8
F8
F0
F0
F0
70
70
ENDCHAR
STARTCHAR parenleft
ENCODING 40
SWIDTH 356 0
DWIDTH 15 0
BBX 8 39 4 -4
BITMAP
0F
0F
1E
1E
1C
3C
3C
38
78
78
78
70
F0
F0
F0
F0
E0
E0
E0
E0
E0
E0
E0
F0
F0
F0
70
70
70
78
78
38
3C
3C
1C
1E
1E
0F
0F
ENDCHAR
STARTCHAR parenright
ENCODING 41
SWIDTH 355 0
DWIDTH 15 0
BBX 8 39 3 -4
BITMAP
F0
F0
78
78
78
3C
3C
1C
1C
1E
1E
0E
0E
0F
0F
0F
0F
0F
07
07
07
0F
0F
0F
0F
0F
0E
0E
1E
1E
1E
1C
3C
3C
38
78
78
F0
F0
ENDCHAR
STARTCHAR asterisk
ENCODING 42
SWIDTH 469 0
DWIDTH 20 0
BBX 14 14 3 17
BITMAP
0300
0300
0300
0300
E31C
FFFC
FFF8
0FC0
0F80
0FC0
1CE0
38E0
3870
1020
ENDCHAR
STARTCHAR plus
ENCODING 43
SWIDTH 690 0
DWIDTH 29 0
BBX 23 24 3 4
BITMAP
003800
003800
003800
003800
003800
003800
003800
003800
003800
003800
FFFFFE
FFFFFE
FFFFFE
FFFFFE
003800
003800
003800
003800
003800
003800
003800
003800
003800
003800
ENDCHAR
STARTCHAR comma
ENCODING 44
SWIDTH 259 0
DWIDTH 11 0
BBX 5 11 3 -5
BITMAP
F8
F8
F8
F8
F0
F0
F0
F0
F0
E0
E0
ENDCHAR
STARTCHAR hyphen
ENCODING 45
SWIDTH 296 0
DWIDTH 12 0
BBX 10 4 1 14
BITMAP
FFC0
FFC0
FFC0
FFC0
ENDCHAR
STARTCHAR period
ENCODING 46
SWIDTH 262 0
DWIDTH 11 0
BBX 5 5 3 0
BITMAP
F8
F8
F8
F8
70
ENDCHAR
STARTCHAR slash
ENCODING 47
SWIDTH 444 0
DWIDTH 19 0
BBX 18 31 0 0
BITMAP
0003C0
0003C0
000380
000780
000700
000F00
000E00
001E00
001C00
003C00
003800
007800
007800
00F000
00F000
00E000
01E000
01C000
03C000
038000
078000
070000
0F0000
0F0000
1E0000
1E0000
3C0000
3C0000
380000
780000
F00000
ENDCHAR
STARTCHAR zero
ENCODING 48
SWIDTH 838 0
DWIDTH 35 0
BBX 31 31 2 0
BITMAP
001FF000
00FFFE00
01FFFF80
07FFFFC0
0FFFFFE0
1FFC7FF0
3FC007F8
3F8003F8
7F0000FC
7E0000FC
FC00007E
FC00007E
F800003E
F800003E
F800003E
F800003E
F800003E
F800003E
F800003E
FC00007E
7C00007E
7E0000FC
7F0001FC
3F8003F8
1FC007F8
1FFC7FF0
0FFFFFE0
07FFFFC0
01FFFF00
007FFC00
000FF000
ENDCHAR
STARTCHAR one
ENCODING 49
SWIDTH 385 0
DWIDTH 16 0
BBX 13 31 1 0
BITMAP
FE00
FF80
FFC0
FFE0
FFE0
0FF0
03F0
01F0
01F0
01F8
01F8
01F8
01F8
01F8
01F8
01F8
01F8
01F8
01F8
01F8
01F8
01F8
01F8
01F8
01F8
01F8
01F8
01F8
01F8
01F8
01F8
ENDCHAR
STARTCHAR two
ENCODING 50
SWIDTH 825 0
DWIDTH 35 0
BBX 29 31 3 0
BITMAP
FFFFFF00
FFFFFFC0
FFFFFFE0
FFFFFFF0
FFFFFFF0
000007F8
000001F8
000000F8
000000F8
000000F8
000000F8
000001F8
000003F8
07FFFFF0
1FFFFFF0
3FFFFFE0
7FFFFFC0
FFFFFF00
FE000000
F8000000
F8000000
F8000000
F8000000
F8000000
F8000000
F8000000
FFFFFFF8
FFFFFFF8
FFFFFFF8
FFFFFFF8
FFFFFFF8
ENDCHAR
STARTCHAR three
ENCODING 51
SWIDTH 827 0
DWIDTH 35 0
BBX 31 31 2 0
BITMAP
FFFFFF00
FFFFFFE0
FFFFFFF0
FFFFFFF8
FFFFFFF8
00000FFC
000000FC
000000FC
0000007C
0000007C
0000007C
000000FC
000001F8
01FFFFF0
01FFFFE0
01FFFFE0
01FFFFF8
01FFFFF8
000001FC
0000007C
0000007E
0000007E
0000007E
0000007E
000000FC
00000FFC
FFFFFFFC
FFFFFFF8
FFFFFFF0
FFFFFFE0
FFFFFF00
ENDCHAR
STARTCHAR four
ENCODING 52
SWIDTH 845 0
DWIDTH 35 0
BBX 32 31 2 0
BITMAP
F80001F0
F80001F0
F80001F0
F80001F0
F80001F0
F80001F0
F80001F0
F80001F0
F80001F0
F80001F0
F80001F0
F80001F0
F80001F0
F80001F0
F80001F0
FC0001F0
FC0001F0
7F8001F0
7FFFFFFF
3FFFFFFF
1FFFFFFF
0FFFFFFF
03FFFFFF
000001F0
000001F0
000001F0
000001F0
000001F0
000001F0
000001F0
000001F0
ENDCHAR
STARTCHAR five
ENCODING 53
SWIDTH 885 0
DWIDTH 37 0
BBX 32 31 3 0
BITMAP
FFFFFFFE
FFFFFFFE
FFFFFFFE
FFFFFFFE
FFFFFFFE
F8000000
F8000000
F8000000
F8000000
F8000000
F8000000
F8000000
F8000000
FFFFFFC0
FFFFFFF8
FFFFFFFC
FFFFFFFE
FFFFFFFE
0000007F
0000003F
0000001F
0000001F
0000001F
0000001F
0000003F
000001FE
FFFFFFFE
FFFFFFFC
FFFFFFFC
FFFFFFF0
FFFFFFC0
ENDCHAR
STARTCHAR six
ENCODING 54
SWIDTH 872 0
DWIDTH 37 0
BBX 32 31 2 0
BITMAP
007FFFFE
03FFFFFE
07FFFFFE
0FFFFFFE
1FFFFFFE
3FF80000
7F800000
7F000000
7E000000
FC000000
FC000000
F8000000
F8000000
FFFFFFE0
FFFFFFF8
FFFFFFFC
FFFFFFFE
FFFFFFFF
F800007F
F800001F
FC00001F
7C00001F
7E00001F
7E00001F
3F80003F
3FF801FF
1FFFFFFE
0FFFFFFE
07FFFFFC
01FFFFF8
007FFFE0
ENDCHAR
STARTCHAR seven
ENCODING 55
SWIDTH 756 0
DWIDTH 32 0
BBX 29 31 2 0
BITMAP
FFFFFFF0
FFFFFFF8
FFFFFFF8
FFFFFFF8
FFFFFFF0
000007F0
00000FE0
00001FC0
00003F80
00003F00
00007F00
0000FE00
0001FC00
0003F800
0003F000
0007F000
000FE000
001FC000
003F8000
007F0000
007E0000
00FE0000
01FC0000
03F80000
07F00000
07E00000
0FE00000
1FC00000
3F800000
7F000000
FE000000
ENDCHAR
STARTCHAR eight
ENCODING 56
SWIDTH 898 0
DWIDTH 38 0
BBX 34 31 2 0
BITMAP
01FFFFE000
0FFFFFF800
1FFFFFFE00
3FFFFFFF00
7FFFFFFF00
7FC001FF80
7E00001F80
7C00001F80
7C00000F80
7C00000F80
7C00001F80
7E00001F00
3F00003F00
1FFFFFFE00
0FFFFFFC00
1FFFFFFC00
3FFFFFFF00
7FFFFFFF00
7F00003F80
FC00001F80
FC00000F80
FC00000FC0
FC00000FC0
FC00000F80
FE00001F80
7FC001FF80
7FFFFFFF00
3FFFFFFF00
1FFFFFFE00
0FFFFFFC00
03FFFFE000
ENDCHAR
STARTCHAR nine
ENCODING 57
SWIDTH 861 0
DWIDTH 36 0
BBX 32 31 2 0
BITMAP
03FFFE00
0FFFFF80
3FFFFFE0
3FFFFFF0
7FFFFFF8
7F800FFC
FC0001FC
FC00007E
F800007E
F800003F
F800003F
F800001F
FC00001F
FE00001F
7FFFFFFF
7FFFFFFF
3FFFFFFF
1FFFFFFF
07FFFFFF
0000001F
0000003F
0000003F
0000003E
0000007E
000001FE
00001FFC
1FFFFFF8
1FFFFFF8
1FFFFFE0
1FFFFFC0
1FFFFE00
ENDCHAR
STARTCHAR colon
ENCODING 58
SWIDTH 262 0
DWIDTH 11 0
BBX 5 19 3 0
BITMAP
F8
F8
F8
F8
70
00
00
00
00
00
00
00
00
00
F8
F8
F8
F8
70
ENDCHAR
STARTCHAR semicolon
ENCODING 59
SWIDTH 262 0
DWIDTH 11 0
BBX 5 24 3 -5
BITMAP
F8
F8
F8
F8
70
00
00
00
00
00
00
00
00
F8
F8
F8
F8
F0
F0
F0
F0
F0
E0
E0
ENDCHAR
STARTCHAR less
ENCODING 60
SWIDTH 690 0
DWIDTH 29 0
BBX 23 23 3 4
BITMAP
000002
00001E
00007E
0003FE
000FF8
003FE0
01FF00
07FC00
1FE000
7F8000
FC0000
F80000
FE0000
3FC000
0FF000
03FE00
007F80
001FF0
0007FC
0000FE
00003E
00000E
000002
ENDCHAR
STARTCHAR equal
ENCODING 61
SWIDTH 690 0
DWIDTH 29 0
BBX 23 15 3 8
BITMAP
FFFFFE
FFFFFE
FFFFFE
FFFFFE
000000
000000
000000
000000
000000
000000
000000
FFFFFE
FFFFFE
FFFFFE
FFFFFE
ENDCHAR
STARTCHAR greater
ENCODING 62
SWIDTH 690 0
DWIDTH 29 0
BBX 23 23 3 4
BITMAP
800000
F00000
FC0000
FF8000
3FE000
0FF800
01FF00
007FC0
000FF0
0003FC
00007E
00003E
0000FE
0007F8
001FE0
00FF80
03FC00
1FF000
7FC000
FE0000
F80000
E00000
800000
ENDCHAR
STARTCHAR question
ENCODING 63
SWIDTH 776 0
DWIDTH 33 0
BBX 29 31 2 0
BITMAP
FFFFFE00
FFFFFFC0
FFFFFFE0
FFFFFFF0
FFFFFFF0
000007F8
000001F8
000000F8
000000F8
000000F8
000001F8
000003F8
01FFFFF0
07FFFFF0
0FFFFFE0
1FFFFFC0
1FFFFE00
1F000000
1F000000
1F000000
1F000000
00000000
00000000
00000000
00000000
00000000
1E000000
1F000000
3F000000
1F000000
0E000000
ENDCHAR
STARTCHAR at
ENCODING 64
SWIDTH 833 0
DWIDTH 35 0
BBX 30 31 2 0
BITMAP
001FFFFC
00FFFFFC
01FFFFFC
07FFFFFC
0FE0003C
1F80003C
1F00003C
3E00003C
7C00003C
780FFE3C
783FFE3C
F03FFE3C
F0781E3C
F0701E3C
F0F01E3C
F0F01E3C
F0701E3C
F0781E3C
F07C1E3C
F03FFFFC
F83FFFFC
780FFFFC
7C000000
3E000000
3F000000
1F800000
0FE00000
07FFFFFC
03FFFFFC
00FFFFFC
001FFFFC
ENDCHAR
STARTCHAR A
ENCODING 65
SWIDTH 989 0
DWIDTH 42 0
BBX 40 31 1 0
BITMAP
0000380000
00007C0000
00007E0000
0000FE0000
0001FF0000
0001FF8000
0003FF8000
0003FFC000
0007EFC000
000FC7E000
000FC7F000
001F83F000
001F83F800
003F01F800
007E00FC00
007E00FE00
00FC007E00
00FC007F00
01F8003F00
03F07FFF80
03F0FFFFC0
07E1FFFFC0
07E3FFFFE0
0FC00007E0
1FC00003F0
1F800003F8
3F000001F8
3F000001FC
7E000000FC
FE0000007E
FC0000007F
ENDCHAR
STARTCHAR B
ENCODING 66
SWIDTH 891 0
DWIDTH 37 0
BBX 32 31 3 0
BITMAP
FFFFFFC0
FFFFFFF0
FFFFFFFC
FFFFFFFE
FFFFFFFE
F80003FE
F800007F
F800003F
F800003F
F800003F
F800003F
F800003E
F800007E
F87FFFFC
F87FFFF0
F87FFFF8
F87FFFFC
F87FFFFE
F800007F
F800003F
F800001F
F800001F
F800001F
F800001F
F800003F
F80003FF
FFFFFFFE
FFFFFFFE
FFFFFFFC
FFFFFFF0
FFFFFFC0
ENDCHAR
STARTCHAR C
ENCODING 67
SWIDTH 829 0
DWIDTH 35 0
BBX 31 31 2 0
BITMAP
001FFFFE
00FFFFFE
03FFFFFE
07FFFFFE
0FFFFFFE
1FFC0000
3FC00000
3F800000
7F000000
7E000000
FC000000
FC000000
F8000000
F8000000
F8000000
F8000000
F8000000
F8000000
F8000000
FC000000
7C000000
7E000000
7F000000
3F800000
3FC00000
1FFC0000
0FFFFFFE
07FFFFFE
03FFFFFE
00FFFFFE
001FFFFE
ENDCHAR
STARTCHAR D
ENCODING 68
SWIDTH 879 0
DWIDTH 37 0
BBX 32 31 3 0
BITMAP
FFFFF800
FFFFFF00
FFFFFFC0
FFFFFFE0
FFFFFFF0
F8003FF8
F80003FC
F80001FC
F80000FE
F800007E
F800003F
F800003F
F800003F
F800001F
F800001F
F800001F
F800001F
F800001F
F800003F
F800003F
F800003E
F800007E
F80000FE
F80001FC
F80003FC
F8003FF8
FFFFFFF0
FFFFFFE0
FFFFFFC0
FFFFFF00
FFFFF800
ENDCHAR
STARTCHAR E
ENCODING 69
SWIDTH 759 0
DWIDTH 32 0
BBX 27 31 3 0
BITMAP
FFFFFFE0
FFFFFFE0
FFFFFFE0
FFFFFFE0
FFFFFFE0
F8000000
F8000000
F8000000
F8000000
F8000000
F8000000
F8000000
F8000000
F87FFFC0
F87FFFC0
F87FFFC0
F87FFFC0
F87FFFC0
F8000000
F8000000
F8000000
F8000000
F8000000
F8000000
F8000000
F8000000
FFFFFFE0
FFFFFFE0
FFFFFFE0
FFFFFFE0
FFFFFFE0
ENDCHAR
STARTCHAR F
ENCODING 70
SWIDTH 705 0
DWIDTH 30 0
BBX 26 31 3 0
BITMAP
FFFFFFC0
FFFFFFC0
FFFFFFC0
FFFFFFC0
FFFFFFC0
F8000000
F8000000
F8000000
F8000000
F8000000
F8000000
F8000000
F8000000
F87FFF00
F87FFF00
F87FFF00
F87FFF00
F87FFF00
F8000000
F8000000
F8000000
F8000000
F8000000
F8000000
F8000000
F8000000
F8000000
F8000000
F8000000
F8000000
F8000000
ENDCHAR
STARTCHAR G
ENCODING 71
SWIDTH 888 0
DWIDTH 37 0
BBX 33 31 2 0
BITMAP
001FFFFE00
00FFFFFE00
03FFFFFE00
07FFFFFE00
0FFFFFFE00
1FFC000000
3FC0000000
3F80000000
7F00000000
7E00000000
FC00000000
FC00000000
F800000000
F803FFFF80
F803FFFF80
F803FFFF80
F803FFFF80
F803FFFF80
F800000F80
FC00000F80
7C00000F80
7E00000F80
7F00000F80
3F80000F80
3FC0000F80
1FFC000F80
0FFFFFFF80
07FFFFFF80
03FFFFFF80
00FFFFFF80
001FFFFF80
ENDCHAR
STARTCHAR H
ENCODING 72
SWIDTH 838 0
DWIDTH 35 0
BBX 30 31 3 0
BITMAP
F80000FC
F80000FC
F80000FC
F80000FC
F80000FC
F80000FC
F80000FC
F80000FC
F80000FC
F80000FC
F80000FC
F80000FC
F80000FC
F87FFFFC
F87FFFFC
F87FFFFC
F87FFFFC
F87FFFFC
F80000FC
F80000FC
F80000FC
F80000FC
F80000FC
F80000FC
F80000FC
F80000FC
F80000FC
F80000FC
F80000FC
F80000FC
F80000FC
ENDCHAR
STARTCHAR I
ENCODING 73
SWIDTH 267 0
DWIDTH 11 0
BBX 5 31 3 0
BITMAP
F8
F8
F8
F8
F8
F8
F8
F8
F8
F8
F8
F8
F8
F8
F8
F8
F8
F8
F8
F8
F8
F8
F8
F8
F8
F8
F8
F8
F8
F8
F8
ENDCHAR
STARTCHAR J
ENCODING 74
SWIDTH 708 0
DWIDTH 30 0
BBX 27 31 1 0
BITMAP
000007E0
000007E0
000007E0
000007E0
000007E0
000007E0
000007E0
000007E0
000007E0
000007E0
000007E0
000007E0
000007E0
000007E0
000007E0
000007E0
000007E0
000007E0
000007E0
000007C0
000007C0
00000FC0
00000FC0
00001FC0
00007F80
0007FF80
FFFFFF00
FFFFFE00
FFFFFC00
FFFFF000
FFFF8000
ENDCHAR
STARTCHAR K
ENCODING 75
SWIDTH 875 0
DWIDTH 37 0
BBX 33 31 3 0
BITMAP
F80001FF00
F80003FC00
F80007F800
F8000FF000
F8003FC000
F8007F8000
F800FF0000
F801FC0000
F807F80000
F80FF00000
F81FC00000
F87F800000
F8FF000000
F9FE000000
F9F8000000
F9F8000000
F9FC000000
F8FE000000
F87F800000
F83FC00000
F80FE00000
F807F80000
F803FC0000
F801FE0000
F8007F8000
F8003FC000
F8001FE000
F8000FF000
F80003FC00
F80001FE00
F80000FF80
ENDCHAR
STARTCHAR L
ENCODING 76
SWIDTH 707 0
DWIDTH 30 0
BBX 26 31 3 0
BITMAP
F8000000
F8000000
F8000000
F8000000
F8000000
F8000000
F8000000
F8000000
F8000000
F8000000
F8000000
F8000000
F8000000
F8000000
F8000000
F8000000
F8000000
F8000000
F8000000
F8000000
F8000000
F8000000
F8000000
F8000000
F8000000
F8000000
FFFFFFC0
FFFFFFC0
FFFFFFC0
FFFFFFC0
FFFFFFC0
ENDCHAR
STARTCHAR M
ENCODING 77
SWIDTH 1115 0
DWIDTH 47 0
BBX 45 31 1 0
BITMAP
007000007000
00F80000F800
00FC0000F800
01FC0001F800
01FC0001FC00
01FE0003FC00
01FE0003FC00
03FF0003FE00
03FF0007FE00
03FF8007FE00
03EF800FBE00
07EF800FBF00
07CFC01F9F00
07C7C01F1F00
0FC7E03F1F00
0F83E03E1F80
0F83F03E0F80
0F81F07C0F80
1F81F07C0FC0
1F01F8F807C0
1F00F8F807C0
1F00FDF807C0
3F007DF007E0
3E007FF003E0
3E003FE003E0
3E003FE003E0
7C001FC003F0
7C001FC001F0
7C001F8001F0
FC000F8001F8
F800070000F8
ENDCHAR
STARTCHAR N
ENCODING 78
SWIDTH 873 0
DWIDTH 37 0
BBX 31 31 3 0
BITMAP
7000003E
F800003E
FC00003E
FE00003E
FF00003E
FF80003E
FFC0003E
FFE0003E
FFF0003E
FFF8003E
FBFC003E
F9FE003E
F8FF003E
F87F803E
F83FC03E
F81FE03E
F807F03E
F803F83E
F801FC3E
F800FE3E
F8007F3E
F8003FBE
F8001FFE
F8000FFE
F80007FE
F80003FE
F80001FE
F80000FE
F800007E
F800003E
F800001C
ENDCHAR
STARTCHAR O
ENCODING 79
SWIDTH 968 0
DWIDTH 41 0
BBX 37 31 2 0
BITMAP
001FFFC000
00FFFFF800
03FFFFFE00
07FFFFFF00
0FFFFFFF80
1FFC01FFC0
3FC0001FE0
3F80000FE0
7F000007F0
7E000003F0
FC000001F0
FC000001F8
F8000001F8
F8000001F8
F8000000F8
F8000000F8
F8000000F8
F8000001F8
F8000001F8
FC000001F0
7C000003F0
7E000003F0
7F000007E0
3F80000FE0
3FC0001FC0
1FFC01FFC0
0FFFFFFF80
07FFFFFF00
03FFFFFC00
00FFFFF800
001FFFC000
ENDCHAR
STARTCHAR P
ENCODING 80
SWIDTH 867 0
DWIDTH 36 0
BBX 32 31 3 0
BITMAP
FFFFFF80
FFFFFFE0
FFFFFFF8
FFFFFFFC
FFFFFFFE
F80003FE
F800007F
F800003F
F800001F
F800001F
F800001F
F800001F
F800001F
F800001F
F800003F
F800007F
F80000FE
F87FFFFE
F87FFFFC
F87FFFF8
F87FFFF0
F87FFFC0
F8000000
F8000000
F8000000
F8000000
F8000000
F8000000
F8000000
F8000000
F8000000
ENDCHAR
STARTCHAR Q
ENCODING 81
SWIDTH 968 0
DWIDTH 41 0
BBX 38 31 2 0
BITMAP
001FFFC000
00FFFFF800
03FFFFFE00
07FFFFFF00
0FFFFFFF80
1FFC01FFC0
3FC0001FE0
3F80000FE0
7F000007F0
7E000003F0
FC000001F0
FC000001F8
F8000001F8
F8000001F8
F8000000F8
F8000000F8
F8000000F8
F8000001F8
F800FE01F8
FC007F01F0
7C001FC3F0
7E000FE3F0
7F0007F7E0
3F8003FFE0
3FC000FFC0
1FFC01FFC0
0FFFFFFF80
07FFFFFFC0
03FFFFFFE0
00FFFFFBF8
001FFFC1FC
ENDCHAR
STARTCHAR R
ENCODING 82
SWIDTH 921 0
DWIDTH 39 0
BBX 36 31 3 0
BITMAP
FFFFFF8000
FFFFFFF000
FFFFFFF800
FFFFFFFC00
FFFFFFFE00
F80003FE00
F800007F00
F800003F00
F800001F00
F800001F80
F800001F80
F800001F80
F800001F80
F800001F80
F800001F00
F800001F00
F800003F00
F80000FE00
F87FFFFE00
F87FFFFC00
F87FFFF800
F87FFFF000
F87FFFE000
F80007F000
F80003F800
F80001FC00
F80000FE00
F800007F00
F800003F80
F800001FC0
F800000FF0
ENDCHAR
STARTCHAR S
ENCODING 83
SWIDTH 880 0
DWIDTH 37 0
BBX 33 31 2 0
BITMAP
03FFFFFF00
0FFFFFFF00
1FFFFFFF00
3FFFFFFF00
7FFFFFFF00
7F80000000
FE00000000
FC00000000
FC00000000
FC00000000
FC00000000
FC00000000
7E00000000
7FFFFFE000
3FFFFFFC00
1FFFFFFE00
0FFFFFFF00
03FFFFFF00
0000003F80
0000001F80
0000000F80
0000000F80
0000000F80
0000000F80
0000001F80
000000FF00
7FFFFFFF00
7FFFFFFE00
7FFFFFFE00
7FFFFFF800
7FFFFFE000
ENDCHAR
STARTCHAR T
ENCODING 84
SWIDTH 720 0
DWIDTH 30 0
BBX 28 31 1 0
BITMAP
FFFFFFF0
FFFFFFF0
FFFFFFF0
FFFFFFF0
FFFFFFF0
001F8000
001F8000
001F8000
001F8000
001F8000
001F8000
001F8000
001F8000
001F8000
001F8000
001F8000
001F8000
001F8000
001F8000
001F8000
001F8000
001F8000
001F8000
001F8000
001F8000
001F8000
001F8000
001F8000
001F8000
001F8000
001F8000
ENDCHAR
STARTCHAR U
ENCODING 85
SWIDTH 889 0
DWIDTH 37 0
BBX 33 31 2 0
BITMAP
FC00000F80
FC00000F80
FC00000F80
FC00000F80
FC00000F80
FC00000F80
FC00000F80
FC00000F80
FC00000F80
FC00000F80
FC00000F80
FC00000F80
FC00000F80
FC00000F80
FC00000F80
FC00000F80
FC00000F80
FC00000F80
FC00000F80
FC00000F80
FC00001F80
7C00001F80
7E00001F00
7F00003F00
3FC000FF00
3FFF3FFE00
1FFFFFFC00
0FFFFFF800
07FFFFF000
01FFFFC000
001FFE0000
ENDCHAR
STARTCHAR V
ENCODING 86
SWIDTH 989 0
DWIDTH 42 0
BBX 40 31 1 0
BITMAP
FC0000007F
FE0000007E
7F000000FC
3F000000FC
3F800001F8
1F800001F8
1FC00003F0
0FE00007E0
07E00007E0
07F0000FC0
03F0000FC0
03F8001F80
01F8003F00
00FC003F00
00FE007E00
007E007E00
007F00FC00
003F00F800
001F81F800
001FC3F000
000FC3F000
000FE7E000
0007E7C000
0003FFC000
0003FF8000
0001FF8000
0001FF0000
0000FE0000
00007E0000
00007C0000
0000380000
ENDCHAR
STARTCHAR W
ENCODING 87
SWIDTH 1268 0
DWIDTH 53 0
BBX 52 31 1 0
BITMAP
FC01FC000007F0
FE00FC000007E0
7E00FE00000FC0
7F007E00000FC0
3F007F00001F80
1F803F00001F80
1F803F80003F00
0FC01F80003F00
0FC01FC0007E00
07E00FC0007E00
07E00FE000FC00
03F007E000F800
03F803F001F800
01F803F001F000
01FC01F803F000
00FC01F807E000
00FE03FC07E000
007E03FC0FC000
003F07FE0FC000
003F07FE1F8000
001F8FFF1F8000
001F9FBF3F0000
000FDF9FBF0000
000FFF1FFE0000
0007FE0FFC0000
0007FE0FFC0000
0003FC07F80000
0003FC07F80000
0001F803F00000
0001F803F00000
0000F001E00000
ENDCHAR
STARTCHAR X
ENCODING 88
SWIDTH 1000 0
DWIDTH 42 0
BBX 40 31 1 0
BITMAP
7F800001FC
1FC00003F8
0FE00007F0
07F0000FE0
03F8001FC0
01FC003F80
00FE007F00
007F00FE00
003F81FC00
001FC3F800
000FE7F000
0007FFE000
0003FFC000
0001FF8000
0000FF0000
0000FF0000
0001FF8000
0003FFC000
0007EFE000
000FC7F000
001F83F800
003F01FC00
007E00FE00
00FC007F00
01F8003F80
03F0001FC0
0FE0000FE0
1FC00007F0
3F800003F8
7F000001FC
FE000000FF
ENDCHAR
STARTCHAR Y
ENCODING 89
SWIDTH 926 0
DWIDTH 39 0
BBX 37 31 1 0
BITMAP
FE000003F8
7F000007F0
3F80000FE0
3FC0000FC0
1FC0001FC0
0FE0003F80
07F0007F00
03F800FE00
01FC01FC00
00FE01F800
00FE03F000
007F07F000
003F8FE000
001FDFC000
000FFF8000
0007FF0000
0007FE0000
0003FE0000
0001FC0000
0000F80000
0000F80000
0000F80000
0000F80000
0000F80000
0000F80000
0000F80000
0000F80000
0000F80000
0000F80000
0000F80000
0000F80000
ENDCHAR
STARTCHAR Z
ENCODING 90
SWIDTH 802 0
DWIDTH 34 0
BBX 30 31 2 0
BITMAP
FFFFFFF8
FFFFFFFC
FFFFFFFC
FFFFFFFC
FFFFFFF8
000007F0
00000FE0
00001FC0
00003F80
00007F00
0000FE00
0001FC00
0003F800
0007F000
000FE000
001FC000
003F8000
007F0000
00FE0000
01FC0000
03F80000
07F00000
0FE00000
1FC00000
3FC00000
7F800000
FFFFFFFC
FFFFFFFC
FFFFFFFC
FFFFFFFC
7FFFFFFC
ENDCHAR
STARTCHAR bracketleft
ENCODING 91
SWIDTH 333 0
DWIDTH 14 0
BBX 7 39 4 -4
BITMAP
FE
FE
FE
FE
F0
F0
F0
F0
F0
F0
F0
F0
F0
F0
F0
F0
F0
F0
F0
F0
F0
F0
F0
F0
F0
F0
F0
F0
F0
F0
F0
F0
F0
F0
F0
F0
FE
FE
FE
ENDCHAR
STARTCHAR backslash
ENCODING 92
SWIDTH 445 0
DWIDTH 19 0
BBX 18 31 0 0
BITMAP
F00000
780000
380000
3C0000
3C0000
1C0000
1E0000
0E0000
0F0000
070000
078000
038000
03C000
01C000
01E000
01E000
00F000
00F000
007800
007800
003800
003C00
001C00
001E00
000E00
000F00
000700
000780
000780
0003C0
0003C0
ENDCHAR
STARTCHAR bracketright
ENCODING 93
SWIDTH 333 0
DWIDTH 14 0
BBX 7 39 3 -4
BITMAP
FE
FE
FE
FE
1E
1E
1E
1E
1E
1E
1E
1E
1E
1E
1E
1E
1E
1E
1E
1E
1E
1E
1E
1E
1E
1E
1E
1E
1E
1E
1E
1E
1E
1E
1E
1E
FE
FE
FE
ENDCHAR
STARTCHAR asciicircum
ENCODING 94
SWIDTH 559 0
DWIDTH 23 0
BBX 18 19 3 12
BITMAP
01C000
01E000
03E000
03F000
03F000
077000
077800
0F3800
0E3C00
1E1C00
1C1E00
1C1E00
3C0E00
380F00
780700
700780
F00780
F00380
E003C0
ENDCHAR
STARTCHAR underscore
ENCODING 95
SWIDTH 668 0
DWIDTH 28 0
BBX 28 3 0 -7
BITMAP
FFFFFFF0
FFFFFFF0
FFFFFFF0
ENDCHAR
STARTCHAR grave
ENCODING 96
SWIDTH 362 0
DWIDTH 15 0
BBX 11 6 2 33
BITMAP
8000
F000
FE00
FFE0
0FE0
00E0
ENDCHAR
STARTCHAR a
ENCODING 97
SWIDTH 989 0
DWIDTH 42 0
BBX 40 31 1 0
BITMAP
0000380000
00007C0000
00007E0000
0000FE0000
0001FF0000
0001FF8000
0003FF8000
0003FFC000
0007EFC000
000FC7E000
000FC7F000
001F83F000
001F83F800
003F01F800
007E00FC00
007E00FE00
00FC007E00
00FC007F00
01F8003F00
03F07FFF80
03F0FFFFC0
07E1FFFFC0
07E3FFFFE0
0FC00007E0
1FC00003F0
1F800003F8
3F000001F8
3F000001FC
7E000000FC
FE0000007E
FC0000007F
ENDCHAR
STARTCHAR b
ENCODING 98
SWIDTH 891 0
DWIDTH 37 0
BBX 32 31 3 0
BITMAP
FFFFFFC0
FFFFFFF0
FFFFFFFC
FFFFFFFE
FFFFFFFE
F80003FE
F800007F
F800003F
F800003F
F800003F
F800003F
F800003E
F800007E
F87FFFFC
F87FFFF0
F87FFFF8
F87FFFFC
F87FFFFE
F800007F
F800003F
F800001F
F800001F
F800001F
F800001F
F800003F
F80003FF
FFFFFFFE
FFFFFFFE
FFFFFFFC
FFFFFFF0
FFFFFFC0
ENDCHAR
STARTCHAR c
ENCODING 99
SWIDTH 829 0
DWIDTH 35 0
BBX 31 31 2 0
BITMAP
001FFFFE
00FFFFFE
03FFFFFE
07FFFFFE
0FFFFFFE
1FFC0000
3FC00000
3F800000
7F000000
7E000000
FC000000
FC000000
F8000000
F8000000
F8000000
F8000000
F8000000
F8000000
F8000000
FC000000
7C000000
7E000000
7F000000
3F800000
3FC00000
1FFC0000
0FFFFFFE
07FFFFFE
03FFFFFE
00FFFFFE
001FFFFE
ENDCHAR
STARTCHAR d
ENCODING 100
SWIDTH 879 0
DWIDTH 37 0
BBX 32 31 3 0
BITMAP
FFFFF800
FFFFFF00
FFFFFFC0
FFFFFFE0
FFFFFFF0
F8003FF8
F80003FC
F80001FC
F80000FE
F800007E
F800003F
F800003F
F800003F
F800001F
F800001F
F800001F
F800001F
F800001F
F800003F
F800003F
F800003E
F800007E
F80000FE
F80001FC
F80003FC
F8003FF8
FFFFFFF0
FFFFFFE0
FFFFFFC0
FFFFFF00
FFFFF800
ENDCHAR
STARTCHAR e
ENCODING 101
SWIDTH 759 0
DWIDTH 32 0
BBX 27 31 3 0
BITMAP
FFFFFFE0
FFFFFFE0
FFFFFFE0
FFFFFFE0
FFFFFFE0
F8000000
F8000000
F8000000
F8000000
F8000000
F8000000
F8000000
F8000000
F87FFFC0
F87FFFC0
F87FFFC0
F87FFFC0
F87FFFC0
F8000000
F8000000
F8000000
F8000000
F8000000
F8000000
F8000000
F8000000
FFFFFFE0
FFFFFFE0
FFFFFFE0
FFFFFFE0
FFFFFFE0
ENDCHAR
STARTCHAR f
ENCODING 102
SWIDTH 705 0
DWIDTH 30 0
BBX 26 31 3 0
BITMAP
FFFFFFC0
FFFFFFC0
FFFFFFC0
FFFFFFC0
FFFFFFC0
F8000000
F8000000
F8000000
F8000000
F8000000
F8000000
F8000000
F8000000
F87FFF00
F87FFF00
F87FFF00
F87FFF00
F87FFF00
F8000000
F8000000
F8000000
F8000000
F8000000
F8000000
F8000000
F8000000
F8000000
F8000000
F8000000
F8000000
F8000000
ENDCHAR
STARTCHAR g
ENCODING 103
SWIDTH 888 0
DWIDTH 37 0
BBX 33 31 2 0
BITMAP
001FFFFE00
00FFFFFE00
03FFFFFE00
07FFFFFE00
0FFFFFFE00
1FFC000000
3FC0000000
3F80000000
7F00000000
7E00000000
FC00000000
FC00000000
F800000000
F803FFFF80
F803FFFF80
F803FFFF80
F803FFFF80
F803FFFF80
F800000F80
FC00000F80
7C00000F80
7E00000F80
7F00000F80
3F80000F80
3FC0000F80
1FFC000F80
0FFFFFFF80
07FFFFFF80
03FFFFFF80
00FFFFFF80
001FFFFF80
ENDCHAR
STARTCHAR h
ENCODING 104
SWIDTH 838 0
DWIDTH 35 0
BBX 30 31 3 0
BITMAP
F80000FC
F80000FC
F80000FC
F80000FC
F80000FC
F80000FC
F80000FC
F80000FC
F80000FC
F80000FC
F80000FC
F80000FC
F80000FC
F87FFFFC
F87FFFFC
F87FFFFC
F87FFFFC
F87FFFFC
F80000FC
F80000FC
F80000FC
F80000FC
F80000FC
F80000FC
F80000FC
F80000FC
F80000FC
F80000FC
F80000FC
F80000FC
F80000FC
ENDCHAR
STARTCHAR i
ENCODING 105
SWIDTH 267 0
DWIDTH 11 0
BBX 5 31 3 0
BITMAP
F8
F8
F8
F8
F8
F8
F8
F8
F8
F8
F8
F8
F8
F8
F8
F8
F8
F8
F8
F8
F8
F8
F8
F8
F8
F8
F8
F8
F8
F8
F8
ENDCHAR
STARTCHAR j
ENCODING 106
SWIDTH 708 0
DWIDTH 30 0
BBX 27 31 1 0
BITMAP
000007E0
000007E0
000007E0
000007E0
000007E0
000007E0
000007E0
000007E0
000007E0
000007E0
000007E0
000007E0
000007E0
000007E0
000007E0
000007E0
000007E0
000007E0
000007E0
000007C0
000007C0
00000FC0
00000FC0
00001FC0
00007F80
0007FF80
FFFFFF00
FFFFFE00
FFFFFC00
FFFFF000
FFFF8000
ENDCHAR
STARTCHAR k
ENCODING 107
SWIDTH 875 0
DWIDTH 37 0
BBX 33 31 3 0
BITMAP
F80001FF00
F80003FC00
F80007F800
F8000FF000
F8003FC000
F8007F8000
F800FF0000
F801FC0000
F807F80000
F80FF00000
F81FC00000
F87F800000
F8FF000000
F9FE000000
F9F8000000
F9F8000000
F9FC000000
F8FE000000
F87F800000
F83FC00000
F80FE00000
F807F80000
F803FC0000
F801FE0000
F8007F8000
F8003FC000
F8001FE000
F8000FF000
F80003FC00
F80001FE00
F80000FF80
ENDCHAR
STARTCHAR l
ENCODING 108
SWIDTH 707 0
DWIDTH 30 0
BBX 26 31 3 0
BITMAP
F8000000
F8000000
F8000000
F8000000
F8000000
F8000000
F8000000
F8000000
F8000000
F8000000
F8000000
F8000000
F8000000
F8000000
F8000000
F8000000
F8000000
F8000000
F8000000
F8000000
F8000000
F8000000
F8000000
F8000000
F8000000
F8000000
FFFFFFC0
FFFFFFC0
FFFFFFC0
FFFFFFC0
FFFFFFC0
ENDCHAR
STARTCHAR m
ENCODING 109
SWIDTH 1115 0
DWIDTH 47 0
BBX 45 31 1 0
BITMAP
007000007000
00F80000F800
00FC0000F800
01FC0001F800
01FC0001FC00
01FE0003FC00
01FE0003FC00
03FF0003FE00
03FF0007FE00
03FF8007FE00
03EF800FBE00
07EF800FBF00
07CFC01F9F00
07C7C01F1F00
0FC7E03F1F00
0F83E03E1F80
0F83F03E0F80
0F81F07C0F80
1F81F07C0FC0
1F01F8F807C0
1F00F8F807C0
1F00FDF807C0
3F007DF007E0
3E007FF003E0
3E003FE003E0
3E003FE003E0
7C001FC003F0
7C001FC001F0
7C001F8001F0
FC000F8001F8
F800070000F8
ENDCHAR
STARTCHAR n
ENCODING 110
SWIDTH 873 0
DWIDTH 37 0
BBX 31 31 3 0
BITMAP
7000003E
F800003E
FC00003E
FE00003E
FF00003E
FF80003E
FFC0003E
FFE0003E
FFF0003E
FFF8003E
FBFC003E
F9FE003E
F8FF003E
F87F803E
F83FC03E
F81FE03E
F807F03E
F803F83E
F801FC3E
F800FE3E
F8007F3E
F8003FBE
F8001FFE
F8000FFE
F80007FE
F80003FE
F80001FE
F80000FE
F800007E
F800003E
F800001C
ENDCHAR
STARTCHAR o
ENCODING 111
SWIDTH 968 0
DWIDTH 41 0
BBX 37 31 2 0
BITMAP
001FFFC000
00FFFFF800
03FFFFFE00
07FFFFFF00
0FFFFFFF80
1FFC01FFC0
3FC0001FE0
3F80000FE0
7F000007F0
7E000003F0
FC000001F0
FC000001F8
F8000001F8
F8000001F8
F8000000F8
F8000000F8
F8000000F8
F8000001F8
F8000001F8
FC000001F0
7C000003F0
7E000003F0
7F000007E0
3F80000FE0
3FC0001FC0
1FFC01FFC0
0FFFFFFF80
07FFFFFF00
03FFFFFC00
00FFFFF800
001FFFC000
ENDCHAR
STARTCHAR p
ENCODING 112
SWIDTH 867 0
DWIDTH 36 0
BBX 32 31 3 0
BITMAP
FFFFFF80
FFFFFFE0
FFFFFFF8
FFFFFFFC
FFFFFFFE
F80003FE
F800007F
F800003F
F800001F
F800001F
F800001F
F800001F
F800001F
F800001F
F800003F
F800007F
F80000FE
F87FFFFE
F87FFFFC
F87FFFF8
F87FFFF0
F87FFFC0
F8000000
F8000000
F8000000
F8000000
F8000000
F8000000
F8000000
F8000000
F8000000
ENDCHAR
STARTCHAR q
ENCODING 113
SWIDTH 968 0
DWIDTH 41 0
BBX 38 31 2 0
BITMAP
001FFFC000
00FFFFF800
03FFFFFE00
07FFFFFF00
0FFFFFFF80
1FFC01FFC0
3FC0001FE0
3F80000FE0
7F000007F0
7E000003F0
FC000001F0
FC000001F8
F8000001F8
F8000001F8
F8000000F8
F8000000F8
F8000000F8
F8000001F8
F800FE01F8
FC007F01F0
7C001FC3F0
7E000FE3F0
7F0007F7E0
3F8003FFE0
3FC000FFC0
1FFC01FFC0
0FFFFFFF80
07FFFFFFC0
03FFFFFFE0
00FFFFFBF8
001FFFC1FC
ENDCHAR
STARTCHAR r
ENCODING 114
SWIDTH 921 0
DWIDTH 39 0
BBX 36 31 3 0
BITMAP
FFFFFF8000
FFFFFFF000
FFFFFFF800
FFFFFFFC00
FFFFFFFE00
F80003FE00
F800007F00
F800003F00
F800001F00
F800001F80
F800001F80
F800001F80
F800001F80
F800001F80
F800001F00
F800001F00
F800003F00
F80000FE00
F87FFFFE00
F87FFFFC00
F87FFFF800
F87FFFF000
F87FFFE000
F80007F000
F80003F800
F80001FC00
F80000FE00
F800007F00
F800003F80
F800001FC0
F800000FF0
ENDCHAR
STARTCHAR s
ENCODING 115
SWIDTH 880 0
DWIDTH 37 0
BBX 33 31 2 0
BITMAP
03FFFFFF00
0FFFFFFF00
1FFFFFFF00
3FFFFFFF00
7FFFFFFF00
7F80000000
FE00000000
FC00000000
FC00000000
FC00000000
FC00000000
FC00000000
7E00000000
7FFFFFE000
3FFFFFFC00
1FFFFFFE00
0FFFFFFF00
03FFFFFF00
0000003F80
0000001F80
0000000F80
0000000F80
0000000F80
0000000F80
0000001F80
000000FF00
7FFFFFFF00
7FFFFFFE00
7FFFFFFE00
7FFFFFF800
7FFFFFE000
ENDCHAR
STARTCHAR t
ENCODING 116
SWIDTH 720 0
DWIDTH 30 0
BBX 28 31 1 0
BITMAP
FFFFFFF0
FFFFFFF0
FFFFFFF0
FFFFFFF0
FFFFFFF0
001F8000
001F8000
001F8000
001F8000
001F8000
001F8000
001F8000
001F8000
001F8000
001F8000
001F8000
001F8000
001F8000
001F8000
001F8000
001F8000
001F8000
001F8000
001F8000
001F8000
001F8000
001F8000
001F8000
001F8000
001F8000
001F8000
ENDCHAR
STARTCHAR u
ENCODING 117
SWIDTH 889 0
DWIDTH 37 0
BBX 33 31 2 0
BITMAP
FC00000F80
FC00000F80
FC00000F80
FC00000F80
FC00000F80
FC00000F80
FC00000F80
FC00000F80
FC00000F80
FC00000F80
FC00000F80
FC00000F80
FC00000F80
FC00000F80
FC00000F80
FC00000F80
FC00000F80
FC00000F80
FC00000F80
FC00000F80
FC00001F80
7C00001F80
7E00001F00
7F00003F00
3FC000FF00
3FFF3FFE00
1FFFFFFC00
0FFFFFF800
07FFFFF000
01FFFFC000
001FFE0000
ENDCHAR
STARTCHAR v
ENCODING 118
SWIDTH 989 0
DWIDTH 42 0
BBX 40 31 1 0
BITMAP
FC0000007F
FE0000007E
7F000000FC
3F000000FC
3F800001F8
1F800001F8
1FC00003F0
0FE00007E0
07E00007E0
07F0000FC0
03F0000FC0
03F8001F80
01F8003F00
00FC003F00
00FE007E00
007E007E00
007F00FC00
003F00F800
001F81F800
001FC3F000
000FC3F000
000FE7E000
0007E7C000
0003FFC000
0003FF8000
0001FF8000
0001FF0000
0000FE0000
00007E0000
00007C0000
0000380000
ENDCHAR
STARTCHAR w
ENCODING 119
SWIDTH 1268 0
DWIDTH 53 0
BBX 52 31 1 0
BITMAP
FC01FC000007F0
FE00FC000007E0
7E00FE00000FC0
7F007E00000FC0
3F007F00001F80
1F803F00001F80
1F803F80003F00
0FC01F80003F00
0FC01FC0007E00
07E00FC0007E00
07E00FE000FC00
03F007E000F800
03F803F001F800
01F803F001F000
01FC01F803F000
00FC01F807E000
00FE03FC07E000
007E03FC0FC000
003F07FE0FC000
003F07FE1F8000
001F8FFF1F8000
001F9FBF3F0000
000FDF9FBF0000
000FFF1FFE0000
0007FE0FFC0000
0007FE0FFC0000
0003FC07F80000
0003FC07F80000
0001F803F00000
0001F803F00000
0000F001E00000
ENDCHAR
STARTCHAR x
ENCODING 120
SWIDTH 1000 0
DWIDTH 42 0
BBX 40 31 1 0
BITMAP
7F800001FC
1FC00003F8
0FE00007F0
07F0000FE0
03F8001FC0
01FC003F80
00FE007F00
007F00FE00
003F81FC00
001FC3F800
000FE7F000
0007FFE000
0003FFC000
0001FF8000
0000FF0000
0000FF0000
0001FF8000
0003FFC000
0007EFE000
000FC7F000
001F83F800
003F01FC00
007E00FE00
00FC007F00
01F8003F80
03F0001FC0
0FE0000FE0
1FC00007F0
3F800003F8
7F000001FC
FE000000FF
ENDCHAR
STARTCHAR y
ENCODING 121
SWIDTH 926 0
DWIDTH 39 0
BBX 37 31 1 0
BITMAP
FE000003F8
7F000007F0
3F80000FE0
3FC0000FC0
1FC0001FC0
0FE0003F80
07F0007F00
03F800FE00
01FC01FC00
00FE01F800
00FE03F000
007F07F000
003F8FE000
001FDFC000
000FFF8000
0007FF0000
0007FE0000
0003FE0000
0001FC0000
0000F80000
0000F80000
0000F80000
0000F80000
0000F80000
0000F80000
0000F80000
0000F80000
0000F80000
0000F80000
0000F80000
0000F80000
ENDCHAR
STARTCHAR z
ENCODING 122
SWIDTH 802 0
DWIDTH 34 0
BBX 30 31 2 0
BITMAP
FFFFFFF8
FFFFFFFC
FFFFFFFC
FFFFFFFC
FFFFFFF8
000007F0
00000FE0
00001FC0
00003F80
00007F00
0000FE00
0001FC00
0003F800
0007F000
000FE000
001FC000
003F8000
007F0000
00FE0000
01FC0000
03F80000
07F00000
0FE00000
1FC00000
3FC00000
7F800000
FFFFFFFC
FFFFFFFC
FFFFFFFC
FFFFFFFC
7FFFFFFC
ENDCHAR
STARTCHAR braceleft
ENCODING 123
SWIDTH 337 0
DWIDTH 14 0
BBX 8 39 3 -4
BITMAP
0F
1F
3F
3C
3C
38
38
38
38
38
38
38
38
38
38
38
38
38
F8
F0
F8
38
38
38
38
38
38
38
38
38
38
38
38
38
38
3C
3F
1F
0F
ENDCHAR
STARTCHAR bar
ENCODING 124
SWIDTH 297 0
DWIDTH 12 0
BBX 3 39 5 -4
BITMAP
E0
E0
E0
E0
E0
E0
E0
E0
E0
E0
E0
E0
E0
E0
E0
E0
E0
E0
E0
E0
E0
E0
E0
E0
E0
E0
E0
E0
E0
E0
E0
E0
E0
E0
E0
E0
E0
E0
E0
ENDCHAR
STARTCHAR braceright
ENCODING 125
SWIDTH 337 0
DWIDTH 14 0
BBX 8 39 3 -4
BITMAP
F0
F8
FC
3C
1C
1C
1C
1C
1C
1C
1C
1C
1C
1C
1C
1C
1C
1E
1F
0F
1F
1E
1C
1C
1C
1C
1C
1C
1C
1C
1C
1C
1C
1C
1C
3C
FC
F8
F0
ENDCHAR
STARTCHAR asciitilde
ENCODING 126
SWIDTH 691 0
DWIDTH 29 0
BBX 23 7 3 13
BITMAP
1F8002
7FF002
FFFC0E
FFFFFE
E07FFE
800FFC
8003F8
ENDCHAR
STARTCHAR nonbreakingspace
ENCODING 160
SWIDTH 294 0
DWIDTH 12 0
BBX 1 1 0 0
BITMAP
00
ENDCHAR
STARTCHAR exclamdown
ENCODING 161
SWIDTH 298 0
DWIDTH 13 0
BBX 6 31 3 0
BITMAP
38
7C
FC
7C
7C
00
00
00
00
00
7C
7C
7C
7C
7C
7C
7C
7C
7C
7C
7C
7C
7C
7C
7C
7C
7C
7C
7C
7C
7C
ENDCHAR
STARTCHAR cent
ENCODING 162
SWIDTH 692 0
DWIDTH 29 0
BBX 25 31 2 0
BITMAP
00018000
00018000
00018000
00FFFF80
03FFFF80
0FFFFF80
1FFFFF80
3F818000
7E018000
7C018000
78018000
F8018000
F0018000
F0018000
F0018000
F0018000
F0018000
F0018000
F0018000
F8018000
78018000
7C018000
3E018000
3F818000
1FFFFF80
0FFFFF80
03FFFF80
00FFFF80
00018000
00018000
00018000
ENDCHAR
STARTCHAR sterling
ENCODING 163
SWIDTH 709 0
DWIDTH 30 0
BBX 27 31 1 0
BITMAP
003FFE00
00FFFE00
03FFFE00
03FFFE00
07FFFE00
07F80000
0FC00000
0F800000
0F800000
0F800000
0F800000
0F800000
0F800000
3FFF8000
3FFF8000
3FFF8000
3FFF8000
0F800000
0F800000
0F800000
0F800000
0F800000
0F800000
0F800000
0F800000
0F800000
FFFFFFE0
FFFFFFE0
FFFFFFE0
FFFFFFE0
FFFFFFE0
ENDCHAR
STARTCHAR yen
ENCODING 165
SWIDTH 787 0
DWIDTH 33 0
BBX 31 31 1 0
BITMAP
FE0000FE
7E0000FC
7F0001F8
3F0001F8
1F8003F0
1FC007E0
0FC007E0
07E00FC0
07E00FC0
03F01F80
01F83F00
01F83F00
00FC7E00
007E7C00
007EFC00
003FF800
001FF000
0FFFFFE0
0FFFFFE0
0FFFFFE0
0FFFFFE0
0007C000
0007C000
0007C000
0FFFFFE0
0FFFFFE0
0FFFFFE0
0FFFFFE0
0007C000
0007C000
0007C000
ENDCHAR
STARTCHAR brokenbar
ENCODING 166
SWIDTH 297 0
DWIDTH 12 0
BBX 3 39 5 -4
BITMAP
E0
E0
E0
E0
E0
E0
E0
E0
E0
E0
E0
E0
E0
E0
E0
E0
E0
00
00
00
00
00
E0
E0
E0
E0
E0
E0
E0
E0
E0
E0
E0
E0
E0
E0
E0
E0
E0
ENDCHAR
STARTCHAR section
ENCODING 167
SWIDTH 773 0
DWIDTH 32 0
BBX 28 40 2 -9
BITMAP
03FFFF80
1FFFFF80
3FFFFF80
7FFFFF80
7FFFFF80
FF800000
FC000000
F8000000
F8000000
F8000000
F8000000
FC000000
7E000000
3FFFFE00
3FFFFF00
0FFFFF80
1FFFFFC0
3E000FC0
3C0007C0
3C0003E0
3C0003C0
3E0007C0
3F0007C0
3FFFFF80
1FFFFF00
0FFFFFC0
07FFFFC0
000007E0
000003F0
000001F0
000001F0
000001F0
000001F0
000003F0
00001FF0
1FFFFFE0
1FFFFFE0
1FFFFFC0
1FFFFF80
1FFFFC00
ENDCHAR
STARTCHAR dieresis
ENCODING 168
SWIDTH 393 0
DWIDTH 17 0
BBX 12 4 2 34
BITMAP
7070
F0F0
F8F0
7070
ENDCHAR
STARTCHAR copyright
ENCODING 169
SWIDTH 829 0
DWIDTH 35 0
BBX 31 31 2 0
BITMAP
001FE000
00701C00
01800700
07000180
0C000040
18000020
10000030
30000018
600FF008
603FF00C
40780004
C0E00006
C0E00006
80C00002
80C00002
81C00002
80C00002
80C00002
C0E00006
C0600006
40780004
601FF00C
6007F008
30000018
10000010
18000020
0C000040
03000180
01800300
00701C00
001FE000
ENDCHAR
STARTCHAR ordfeminine
ENCODING 170
SWIDTH 604 0
DWIDTH 25 0
BBX 22 18 2 12
BITMAP
003000
007000
00F800
00FC00
01DC00
01DE00
038E00
078F00
070700
0F0380
0E03C0
1C7FC0
3CFFE0
3800E0
780070
700078
F00038
E0003C
ENDCHAR
STARTCHAR guillemotleft
ENCODING 171
SWIDTH 629 0
DWIDTH 26 0
BBX 23 16 2 8
BITMAP
001002
003006
00F01E
03E07C
0780F0
1E03C0
7C0F80
F01E00
E01C00
780F00
3C0780
0F01E0
03C078
01F03E
00700E
001002
ENDCHAR
STARTCHAR registered
ENCODING 174
SWIDTH 585 0
DWIDTH 25 0
BBX 19 20 3 11
BITMAP
03F000
0FFC00
1C0F00
300380
600180
6000C0
C7F840
C40C60
840C60
840C60
84F860
841860
840C60
C00240
4000C0
600180
300380
1C0F00
0FFC00
03F000
ENDCHAR
STARTCHAR macron
ENCODING 175
SWIDTH 362 0
DWIDTH 15 0
BBX 11 2 2 35
BITMAP
FFE0
FFE0
ENDCHAR
STARTCHAR degree
ENCODING 176
SWIDTH 361 0
DWIDTH 15 0
BBX 11 11 2 20
BITMAP
1F00
7FC0
F1E0
E0E0
C060
C060
C060
C060
E0E0
7FC0
3F80
ENDCHAR
STARTCHAR plusminus
ENCODING 177
SWIDTH 690 0
DWIDTH 29 0
BBX 23 30 3 -2
BITMAP
003800
003800
003800
003800
003800
003800
003800
003800
003800
003800
FFFFFE
FFFFFE
FFFFFE
FFFFFE
003800
003800
003800
003800
003800
003800
003800
003800
003800
003800
000000
000000
FFFFFE
FFFFFE
FFFFFE
FFFFFE
ENDCHAR
STARTCHAR twosuperior
ENCODING 178
SWIDTH 442 0
DWIDTH 19 0
BBX 15 16 2 16
BITMAP
FFF0
FFFC
FFFC
000E
000E
000E
001E
3FFC
7FF8
E000
E000
C000
C000
FFFE
FFFE
FFFE
ENDCHAR
STARTCHAR threesuperior
ENCODING 179
SWIDTH 443 0
DWIDTH 19 0
BBX 15 16 2 16
BITMAP
FFF0
FFFC
FFFC
001E
000E
000E
001C
1FF8
1FFC
001E
000E
000E
000E
FFFE
FFFC
FFF0
ENDCHAR
STARTCHAR acute
ENCODING 180
SWIDTH 362 0
DWIDTH 15 0
BBX 11 6 2 33
BITMAP
0020
01E0
0FE0
7FE0
FF00
E000
ENDCHAR
STARTCHAR paragraph
ENCODING 182
SWIDTH 629 0
DWIDTH 26 0
BBX 22 35 2 -4
BITMAP
0FFFFC
3FFFFC
7FFFFC
7FF83C
FFF83C
FFF83C
FFF83C
FFF83C
FFF83C
FFF83C
7FF83C
7FF83C
3FF83C
07F83C
00383C
00383C
00383C
00383C
00383C
00383C
00383C
00383C
00383C
00383C
00383C
00383C
00383C
00383C
00383C
00383C
00383C
00383C
00383C
00383C
00383C
ENDCHAR
STARTCHAR periodcentered
ENCODING 183
SWIDTH 262 0
DWIDTH 11 0
BBX 5 5 3 12
BITMAP
F8
F8
F8
F8
70
ENDCHAR
STARTCHAR cedilla
ENCODING 184
SWIDTH 219 0
DWIDTH 9 0
BBX 5 7 2 -9
BITMAP
F8
F8
70
70
20
20
20
ENDCHAR
STARTCHAR onesuperior
ENCODING 185
SWIDTH 222 0
DWIDTH 9 0
BBX 6 16 1 16
BITMAP
F0
F8
FC
1C
0C
0C
0C
0C
0C
0C
0C
0C
0C
0C
0C
0C
ENDCHAR
STARTCHAR ordmasculine
ENCODING 186
SWIDTH 592 0
DWIDTH 25 0
BBX 21 17 2 13
BITMAP
07FE00
1FFF80
3FFFE0
3C01E0
7800F0
700070
E00078
E00038
E00038
E00038
E00070
700070
7800F0
3C01E0
1FFFC0
0FFF80
03FE00
ENDCHAR
STARTCHAR guillemotright
ENCODING 187
SWIDTH 629 0
DWIDTH 26 0
BBX 23 16 2 8
BITMAP
802000
C01800
F01C00
780F00
1E07C0
0F81E0
03C078
00F01C
00F01E
01E03C
0780F0
1E03C0
3C0780
F01E00
C01800
801000
ENDCHAR
STARTCHAR onequarter
ENCODING 188
SWIDTH 972 0
DWIDTH 41 0
BBX 37 36 2 -3
BITMAP
0000001E00
1E00001C00
1F00003800
1F80007800
038000F000
018001E000
01C001C000
01C003C000
01C0078000
01C00F0000
01C00E0000
01C01C0000
01C03C0000
01C0780000
01C0F00000
01C0E00000
01C1E00000
0003C00000
00078600E0
00070600E0
000E0600E0
001E0600E0
003C0600E0
00780600E0
00700700E0
00F00700E0
01E007FFF8
03C003FFF8
038001FFF8
07000000E0
0F000000E0
1E000000E0
3C000000E0
3800000000
7800000000
F000000000
ENDCHAR
STARTCHAR onehalf
ENCODING 189
SWIDTH 948 0
DWIDTH 40 0
BBX 36 36 2 -3
BITMAP
0000001E00
1E00001C00
1F00003800
1F80007800
038000F000
018001E000
01C001C000
01C003C000
01C0078000
01C00F0000
01C00E0000
01C01C0000
01C03C0000
01C0780000
01C0F00000
01C0E00000
01C1E00000
0003C7FF80
000787FFE0
000707FFF0
000E000070
001E000070
003C000070
0078000070
007001FFE0
00F003FFC0
01E0078000
03C0070000
0380070000
0700070000
0F0007FFF0
1E0007FFF0
3C0007FFF0
3800000000
7800000000
F000000000
ENDCHAR
STARTCHAR threequarters
ENCODING 190
SWIDTH 1029 0
DWIDTH 43 0
BBX 39 36 2 -3
BITMAP
0000000380
FFF0000780
FFFC000F00
FFFE001E00
001E001C00
000E003800
000E007800
000C00F000
1FF800E000
1FFC01C000
000E03C000
000E078000
000E0F0000
000E0E0000
FFFE1C0000
FFFC3C0000
FFF8780000
0000700000
0000E1C018
0001E1C018
0003C1C018
000781C018
000701C018
000F01C018
001E01C018
003C01C018
003800FFFE
007000FFFE
00F0003FFE
01E0000018
03C0000018
0380000018
0780000018
0F00000000
1E00000000
3C00000000
ENDCHAR
STARTCHAR questiondown
ENCODING 191
SWIDTH 776 0
DWIDTH 33 0
BBX 30 31 1 0
BITMAP
000003C0
000003E0
000007E0
000007E0
000003C0
00000000
00000000
00000000
00000000
00000000
000003E0
000003E0
000003E0
000007E0
03FFFFE0
0FFFFFC0
1FFFFFC0
3FFFFF80
7FFFFE00
7E000000
FC000000
FC000000
FC000000
FC000000
FC000000
7F800000
7FFFFFFC
3FFFFFFC
3FFFFFFC
0FFFFFFC
03FFFFFC
ENDCHAR
STARTCHAR Agrave
ENCODING 192
SWIDTH 989 0
DWIDTH 42 0
BBX 40 39 1 0
BITMAP
0004000000
0007800000
0007F00000
0007FE0000
0000FF0000
0000070000
0000000000
0000000000
0000380000
00007C0000
00007E0000
0000FE0000
0001FF0000
0001FF8000
0003FF8000
0003FFC000
0007EFC000
000FC7E000
000FC7F000
001F83F000
001F83F800
003F01F800
007E00FC00
007E00FE00
00FC007E00
00FC007F00
01F8003F00
03F07FFF80
03F0FFFFC0
07E1FFFFC0
07E3FFFFE0
0FC00007E0
1FC00003F0
1F800003F8
3F000001F8
3F000001FC
7E000000FC
FE0000007E
FC0000007F
ENDCHAR
STARTCHAR Aacute
ENCODING 193
SWIDTH 989 0
DWIDTH 42 0
BBX 40 39 1 0
BITMAP
0000002000
000001C000
00001FC000
0000FFC000
0000FE0000
0000C00000
0000000000
0000000000
0000380000
00007C0000
00007E0000
0000FE0000
0001FF0000
0001FF8000
0003FF8000
0003FFC000
0007EFC000
000FC7E000
000FC7F000
001F83F000
001F83F800
003F01F800
007E00FC00
007E00FE00
00FC007E00
00FC007F00
01F8003F00
03F07FFF80
03F0FFFFC0
07E1FFFFC0
07E3FFFFE0
0FC00007E0
1FC00003F0
1F800003F8
3F000001F8
3F000001FC
7E000000FC
FE0000007E
FC0000007F
ENDCHAR
STARTCHAR Acircumflex
ENCODING 194
SWIDTH 989 0
DWIDTH 42 0
BBX 40 39 1 0
BITMAP
00003C0000
00007E0000
0000EE0000
0000E70000
0001C38000
0003838000
0000004000
0000000000
0000380000
00007C0000
00007E0000
0000FE0000
0001FF0000
0001FF8000
0003FF8000
0003FFC000
0007EFC000
000FC7E000
000FC7F000
001F83F000
001F83F800
003F01F800
007E00FC00
007E00FE00
00FC007E00
00FC007F00
01F8003F00
03F07FFF80
03F0FFFFC0
07E1FFFFC0
07E3FFFFE0
0FC00007E0
1FC00003F0
1F800003F8
3F000001F8
3F000001FC
7E000000FC
FE0000007E
FC0000007F
ENDCHAR
STARTCHAR Atilde
ENCODING 195
SWIDTH 989 0
DWIDTH 42 0
BBX 40 38 1 0
BITMAP
0001E08000
0003F88000
00031F8000
0002070000
0000000000
0000000000
0000000000
0000380000
00007C0000
00007E0000
0000FE0000
0001FF0000
0001FF8000
0003FF8000
0003FFC000
0007EFC000
000FC7E000
000FC7F000
001F83F000
001F83F800
003F01F800
007E00FC00
007E00FE00
00FC007E00
00FC007F00
01F8003F00
03F07FFF80
03F0FFFFC0
07E1FFFFC0
07E3FFFFE0
0FC00007E0
1FC00003F0
1F800003F8
3F000001F8
3F000001FC
7E000000FC
FE0000007E
FC0000007F
ENDCHAR
STARTCHAR Adieresis
ENCODING 196
SWIDTH 989 0
DWIDTH 42 0
BBX 40 38 1 0
BITMAP
0003838000
0003C3C000
0003C3C000
0003838000
0000000000
0000000000
0000000000
0000380000
00007C0000
00007E0000
0000FE0000
0001FF0000
0001FF8000
0003FF8000
0003FFC000
0007EFC000
000FC7E000
000FC7F000
001F83F000
001F83F800
003F01F800
007E00FC00
007E00FE00
00FC007E00
00FC007F00
01F8003F00
03F07FFF80
03F0FFFFC0
07E1FFFFC0
07E3FFFFE0
0FC00007E0
1FC00003F0
1F800003F8
3F000001F8
3F000001FC
7E000000FC
FE0000007E
FC0000007F
ENDCHAR
STARTCHAR Aring
ENCODING 197
SWIDTH 989 0
DWIDTH 42 0
BBX 40 42 1 0
BITMAP
00007E0000
0001FF0000
0001838000
0003018000
0003008000
0003018000
0001818000
0001FF0000
00007E0000
0000000000
0000000000
0000380000
00007C0000
00007E0000
0000FE0000
0001FF0000
0001FF8000
0003FF8000
0003FFC000
0007EFC000
000FC7E000
000FC7F000
001F83F000
001F83F800
003F01F800
007E00FC00
007E00FE00
00FC007E00
00FC007F00
01F8003F00
03F07FFF80
03F0FFFFC0
07E1FFFFC0
07E3FFFFE0
0FC00007E0
1FC00003F0
1F800003F8
3F000001F8
3F000001FC
7E000000FC
FE0000007E
FC0000007F
ENDCHAR
STARTCHAR AE
ENCODING 198
SWIDTH 1345 0
DWIDTH 56 0
BBX 54 31 1 0
BITMAP
00007FFFFFFFF8
0000FFFFFFFFF8
0000FFFFFFFFF8
0001FFFFFFFFF8
0001FFFFFFFFF8
0003F00F800000
0003E00F800000
0007E00F800000
000FC00F800000
000FC00F800000
001F800F800000
001F800F800000
003F000F800000
003E000F87FFF0
007E000F87FFF0
00FC000F87FFF0
00FC000F87FFF0
01F8000F87FFF0
01F8000F800000
03F0FFFF800000
03F0FFFF800000
07E1FFFF800000
0FC3FFFF800000
0FC0000F800000
1F80000F800000
1F80000F800000
3F00000FFFFFFC
3F00000FFFFFFC
7E00000FFFFFFC
FC00000FFFFFFC
FC00000FFFFFFC
ENDCHAR
STARTCHAR Ccedilla
ENCODING 199
SWIDTH 829 0
DWIDTH 35 0
BBX 31 40 2 -9
BITMAP
001FFFFE
00FFFFFE
03FFFFFE
07FFFFFE
0FFFFFFE
1FFC0000
3FC00000
3F800000
7F000000
7E000000
FC000000
FC000000
F8000000
F8000000
F8000000
F8000000
F8000000
F8000000
F8000000
FC000000
7C000000
7E000000
7F000000
3F800000
3FC00000
1FFC0000
0FFFFFFE
07FFFFFE
03FFFFFE
00FFFFFE
001FFFFE
00000000
00000000
0007E000
0003C000
0001C000
0001C000
00018000
00008000
00008000
ENDCHAR
STARTCHAR Egrave
ENCODING 200
SWIDTH 759 0
DWIDTH 32 0
BBX 27 39 3 0
BITMAP
02000000
03C00000
03F80000
03FF8000
003F8000
00038000
00000000
00000000
FFFFFFE0
FFFFFFE0
FFFFFFE0
FFFFFFE0
FFFFFFE0
F8000000
F8000000
F8000000
F8000000
F8000000
F8000000
F8000000
F8000000
F87FFFC0
F87FFFC0
F87FFFC0
F87FFFC0
F87FFFC0
F8000000
F8000000
F8000000
F8000000
F8000000
F8000000
F8000000
F8000000
FFFFFFE0
FFFFFFE0
FFFFFFE0
FFFFFFE0
FFFFFFE0
ENDCHAR
STARTCHAR Eacute
ENCODING 201
SWIDTH 759 0
DWIDTH 32 0
BBX 27 39 3 0
BITMAP
00001000
0000F000
0007F000
007FF000
007F0000
00700000
00000000
00000000
FFFFFFE0
FFFFFFE0
FFFFFFE0
FFFFFFE0
FFFFFFE0
F8000000
F8000000
F8000000
F8000000
F8000000
F8000000
F8000000
F8000000
F87FFFC0
F87FFFC0
F87FFFC0
F87FFFC0
F87FFFC0
F8000000
F8000000
F8000000
F8000000
F8000000
F8000000
F8000000
F8000000
FFFFFFE0
FFFFFFE0
FFFFFFE0
FFFFFFE0
FFFFFFE0
ENDCHAR
STARTCHAR Ecircumflex
ENCODING 202
SWIDTH 759 0
DWIDTH 32 0
BBX 27 39 3 0
BITMAP
001E0000
003F0000
00770000
00738000
00E1C000
01C1E000
00000000
00000000
FFFFFFE0
FFFFFFE0
FFFFFFE0
FFFFFFE0
FFFFFFE0
F8000000
F8000000
F8000000
F8000000
F8000000
F8000000
F8000000
F8000000
F87FFFC0
F87FFFC0
F87FFFC0
F87FFFC0
F87FFFC0
F8000000
F8000000
F8000000
F8000000
F8000000
F8000000
F8000000
F8000000
FFFFFFE0
FFFFFFE0
FFFFFFE0
FFFFFFE0
FFFFFFE0
ENDCHAR
STARTCHAR Edieresis
ENCODING 203
SWIDTH 759 0
DWIDTH 32 0
BBX 27 38 3 0
BITMAP
00E1C000
01E1E000
01E1E000
00E1C000
00000000
00000000
00000000
FFFFFFE0
FFFFFFE0
FFFFFFE0
FFFFFFE0
FFFFFFE0
F8000000
F8000000
F8000000
F8000000
F8000000
F8000000
F8000000
F8000000
F87FFFC0
F87FFFC0
F87FFFC0
F87FFFC0
F87FFFC0
F8000000
F8000000
F8000000
F8000000
F8000000
F8000000
F8000000
F8000000
FFFFFFE0
FFFFFFE0
FFFFFFE0
FFFFFFE0
FFFFFFE0
ENDCHAR
STARTCHAR Igrave
ENCODING 204
SWIDTH 267 0
DWIDTH 11 0
BBX 11 39 -1 0
BITMAP
8000
F000
FE00
FFC0
1FE0
00E0
0000
0000
0F80
0F80
0F80
0F80
0F80
0F80
0F80
0F80
0F80
0F80
0F80
0F80
0F80
0F80
0F80
0F80
0F80
0F80
0F80
0F80
0F80
0F80
0F80
0F80
0F80
0F80
0F80
0F80
0F80
0F80
0F80
ENDCHAR
STARTCHAR Iacute
ENCODING 205
SWIDTH 267 0
DWIDTH 11 0
BBX 10 39 2 0
BITMAP
0040
01C0
1FC0
FFC0
FE00
C000
0000
0000
7C00
7C00
7C00
7C00
7C00
7C00
7C00
7C00
7C00
7C00
7C00
7C00
7C00
7C00
7C00
7C00
7C00
7C00
7C00
7C00
7C00
7C00
7C00
7C00
7C00
7C00
7C00
7C00
7C00
7C00
7C00
ENDCHAR
STARTCHAR Icircumflex
ENCODING 206
SWIDTH 267 0
DWIDTH 11 0
BBX 11 39 0 0
BITMAP
1F00
1F00
3B80
31C0
71C0
E0E0
0000
0000
1F00
1F00
1F00
1F00
1F00
1F00
1F00
1F00
1F00
1F00
1F00
1F00
1F00
1F00
1F00
1F00
1F00
1F00
1F00
1F00
1F00
1F00
1F00
1F00
1F00
1F00
1F00
1F00
1F00
1F00
1F00
ENDCHAR
STARTCHAR Idieresis
ENCODING 207
SWIDTH 267 0
DWIDTH 11 0
BBX 12 38 0 0
BITMAP
E0E0
F1F0
F1F0
E0E0
0000
0000
0000
1F00
1F00
1F00
1F00
1F00
1F00
1F00
1F00
1F00
1F00
1F00
1F00
1F00
1F00
1F00
1F00
1F00
1F00
1F00
1F00
1F00
1F00
1F00
1F00
1F00
1F00
1F00
1F00
1F00
1F00
1F00
ENDCHAR
STARTCHAR Eth
ENCODING 208
SWIDTH 877 0
DWIDTH 37 0
BBX 35 31 0 0
BITMAP
1FFFFF0000
1FFFFFE000
1FFFFFF800
1FFFFFFC00
1FFFFFFE00
1F0007FF00
1F00007F80
1F00003F80
1F00001FC0
1F00000FC0
1F000007E0
1F000007E0
1F000007E0
FFFFF003E0
FFFFF003E0
FFFFF003E0
FFFFF003E0
FFFFF003E0
1F000007E0
1F000007E0
1F000007C0
1F00000FC0
1F00001FC0
1F00003F80
1F00007F00
1F0007FF00
1FFFFFFE00
1FFFFFFC00
1FFFFFF800
1FFFFFE000
1FFFFF0000
ENDCHAR
STARTCHAR Ntilde
ENCODING 209
SWIDTH 873 0
DWIDTH 37 0
BBX 31 38 3 0
BITMAP
001C0800
003F1800
0023F800
0020F000
00000000
00000000
00000000
7000003E
F800003E
FC00003E
FE00003E
FF00003E
FF80003E
FFC0003E
FFE0003E
FFF0003E
FFF8003E
FBFC003E
F9FE003E
F8FF003E
F87F803E
F83FC03E
F81FE03E
F807F03E
F803F83E
F801FC3E
F800FE3E
F8007F3E
F8003FBE
F8001FFE
F8000FFE
F80007FE
F80003FE
F80001FE
F80000FE
F800007E
F800003E
F800001C
ENDCHAR
STARTCHAR Ograve
ENCODING 210
SWIDTH 968 0
DWIDTH 41 0
BBX 37 39 2 0
BITMAP
0010000000
000E000000
000FE00000
000FFC0000
0001FC0000
00000C0000
0000000000
0000000000
001FFFC000
00FFFFF800
03FFFFFE00
07FFFFFF00
0FFFFFFF80
1FFC01FFC0
3FC0001FE0
3F80000FE0
7F000007F0
7E000003F0
FC000001F0
FC000001F8
F8000001F8
F8000001F8
F8000000F8
F8000000F8
F8000000F8
F8000001F8
F8000001F8
FC000001F0
7C000003F0
7E000003F0
7F000007E0
3F80000FE0
3FC0001FC0
1FFC01FFC0
0FFFFFFF80
07FFFFFF00
03FFFFFC00
00FFFFF800
001FFFC000
ENDCHAR
STARTCHAR Oacute
ENCODING 211
SWIDTH 968 0
DWIDTH 41 0
BBX 37 39 2 0
BITMAP
0000008000
0000078000
00003F8000
0001FF8000
0003FC0000
0003800000
0000000000
0000000000
001FFFC000
00FFFFF800
03FFFFFE00
07FFFFFF00
0FFFFFFF80
1FFC01FFC0
3FC0001FE0
3F80000FE0
7F000007F0
7E000003F0
FC000001F0
FC000001F8
F8000001F8
F8000001F8
F8000000F8
F8000000F8
F8000000F8
F8000001F8
F8000001F8
FC000001F0
7C000003F0
7E000003F0
7F000007E0
3F80000FE0
3FC0001FC0
1FFC01FFC0
0FFFFFFF80
07FFFFFF00
03FFFFFC00
00FFFFF800
001FFFC000
ENDCHAR
STARTCHAR Ocircumflex
ENCODING 212
SWIDTH 968 0
DWIDTH 41 0
BBX 37 39 2 0
BITMAP
0000F00000
0001F80000
0001DC0000
00039C0000
00030E0000
0007070000
0000000000
0000000000
001FFFC000
00FFFFF800
03FFFFFE00
07FFFFFF00
0FFFFFFF80
1FFC01FFC0
3FC0001FE0
3F80000FE0
7F000007F0
7E000003F0
FC000001F0
FC000001F8
F8000001F8
F8000001F8
F8000000F8
F8000000F8
F8000000F8
F8000001F8
F8000001F8
FC000001F0
7C000003F0
7E000003F0
7F000007E0
3F80000FE0
3FC0001FC0
1FFC01FFC0
0FFFFFFF80
07FFFFFF00
03FFFFFC00
00FFFFF800
001FFFC000
ENDCHAR
STARTCHAR Otilde
ENCODING 213
SWIDTH 968 0
DWIDTH 41 0
BBX 37 38 2 0
BITMAP
0003810000
0007E30000
00047F0000
00041E0000
0000000000
0000000000
0000000000
001FFFC000
00FFFFF800
03FFFFFE00
07FFFFFF00
0FFFFFFF80
1FFC01FFC0
3FC0001FE0
3F80000FE0
7F000007F0
7E000003F0
FC000001F0
FC000001F8
F8000001F8
F8000001F8
F8000000F8
F8000000F8
F8000000F8
F8000001F8
F8000001F8
FC000001F0
7C000003F0
7E000003F0
7F000007E0
3F80000FE0
3FC0001FC0
1FFC01FFC0
0FFFFFFF80
07FFFFFF00
03FFFFFC00
00FFFFF800
001FFFC000
ENDCHAR
STARTCHAR Odieresis
ENCODING 214
SWIDTH 968 0
DWIDTH 41 0
BBX 37 38 2 0
BITMAP
0007070000
000F8F0000
000F8F0000
0007070000
0000000000
0000000000
0000000000
001FFFC000
00FFFFF800
03FFFFFE00
07FFFFFF00
0FFFFFFF80
1FFC01FFC0
3FC0001FE0
3F80000FE0
7F000007F0
7E000003F0
FC000001F0
FC000001F8
F8000001F8
F8000001F8
F8000000F8
F8000000F8
F8000000F8
F8000001F8
F8000001F8
FC000001F0
7C000003F0
7E000003F0
7F000007E0
3F80000FE0
3FC0001FC0
1FFC01FFC0
0FFFFFFF80
07FFFFFF00
03FFFFFC00
00FFFFF800
001FFFC000
ENDCHAR
STARTCHAR multiply
ENCODING 215
SWIDTH 690 0
DWIDTH 29 0
BBX 19 20 5 6
BITMAP
200080
6000C0
F001E0
F803E0
7C07C0
3E0F80
1F1F00
0FBE00
07FC00
03F800
01F000
03F800
07FC00
0FBE00
1F1F00
3E0F80
7C07C0
F803E0
7001C0
200080
ENDCHAR
STARTCHAR Oslash
ENCODING 216
SWIDTH 968 0
DWIDTH 41 0
BBX 37 35 2 -2
BITMAP
0000000180
00000001C0
001FFFC380
00FFFFFF00
03FFFFFE00
07FFFFFF00
0FFFFFFF80
1FFC01FFC0
3FC0007FE0
3F8000EFE0
7F0001C7F0
7E000383F0
FC000701F0
FC000601F8
F8000E01F8
F8001C01F8
F8003800F8
F8007000F8
F800E000F8
F800C001F8
F801C001F8
FC038001F0
7C070003F0
7E0E0003F0
7F1C0007E0
3F98000FE0
3FF8001FC0
1FFC01FFC0
0FFFFFFF80
07FFFFFF00
03FFFFFC00
03FFFFF800
071FFFC000
0E00000000
0400000000
ENDCHAR
STARTCHAR Ugrave
ENCODING 217
SWIDTH 889 0
DWIDTH 37 0
BBX 33 39 2 0
BITMAP
0020000000
003C000000
003F800000
003FF00000
0007F80000
0000380000
0000000000
0000000000
FC00000F80
FC00000F80
FC00000F80
FC00000F80
FC00000F80
FC00000F80
FC00000F80
FC00000F80
FC00000F80
FC00000F80
FC00000F80
FC00000F80
FC00000F80
FC00000F80
FC00000F80
FC00000F80
FC00000F80
FC00000F80
FC00000F80
FC00000F80
FC00001F80
7C00001F80
7E00001F00
7F00003F00
3FC000FF00
3FFF3FFE00
1FFFFFFC00
0FFFFFF800
07FFFFF000
01FFFFC000
001FFE0000
ENDCHAR
STARTCHAR Uacute
ENCODING 218
SWIDTH 889 0
DWIDTH 37 0
BBX 33 39 2 0
BITMAP
0000010000
00000E0000
0000FE0000
0007FE0000
0007F00000
0006000000
0000000000
0000000000
FC00000F80
FC00000F80
FC00000F80
FC00000F80
FC00000F80
FC00000F80
FC00000F80
FC00000F80
FC00000F80
FC00000F80
FC00000F80
FC00000F80
FC00000F80
FC00000F80
FC00000F80
FC00000F80
FC00000F80
FC00000F80
FC00000F80
FC00000F80
FC00001F80
7C00001F80
7E00001F00
7F00003F00
3FC000FF00
3FFF3FFE00
1FFFFFFC00
0FFFFFF800
07FFFFF000
01FFFFC000
001FFE0000
ENDCHAR
STARTCHAR Ucircumflex
ENCODING 219
SWIDTH 889 0
DWIDTH 37 0
BBX 33 39 2 0
BITMAP
0001E00000
0003E00000
0007700000
0006380000
000E380000
001C1C0000
0000000000
0000000000
FC00000F80
FC00000F80
FC00000F80
FC00000F80
FC00000F80
FC00000F80
FC00000F80
FC00000F80
FC00000F80
FC00000F80
FC00000F80
FC00000F80
FC00000F80
FC00000F80
FC00000F80
FC00000F80
FC00000F80
FC00000F80
FC00000F80
FC00000F80
FC00001F80
7C00001F80
7E00001F00
7F00003F00
3FC000FF00
3FFF3FFE00
1FFFFFFC00
0FFFFFF800
07FFFFF000
01FFFFC000
001FFE0000
ENDCHAR
STARTCHAR Udieresis
ENCODING 220
SWIDTH 889 0
DWIDTH 37 0
BBX 33 38 2 0
BITMAP
001C1C0000
001E3E0000
001E3E0000
001C1C0000
0000000000
0000000000
0000000000
FC00000F80
FC00000F80
FC00000F80
FC00000F80
FC00000F80
FC00000F80
FC00000F80
FC00000F80
FC00000F80
FC00000F80
FC00000F80
FC00000F80
FC00000F80
FC00000F80
FC00000F80
FC00000F80
FC00000F80
FC00000F80
FC00000F80
FC00000F80
FC00001F80
7C00001F80
7E00001F00
7F00003F00
3FC000FF00
3FFF3FFE00
1FFFFFFC00
0FFFFFF800
07FFFFF000
01FFFFC000
001FFE0000
ENDCHAR
STARTCHAR Yacute
ENCODING 221
SWIDTH 926 0
DWIDTH 39 0
BBX 37 39 1 0
BITMAP
0000004000
0000038000
00003F8000
0001FF8000
0003FC0000
0003800000
0000000000
0000000000
FE000003F8
7F000007F0
3F80000FE0
3FC0000FC0
1FC0001FC0
0FE0003F80
07F0007F00
03F800FE00
01FC01FC00
00FE01F800
00FE03F000
007F07F000
003F8FE000
001FDFC000
000FFF8000
0007FF0000
0007FE0000
0003FE0000
0001FC0000
0000F80000
0000F80000
0000F80000
0000F80000
0000F80000
0000F80000
0000F80000
0000F80000
0000F80000
0000F80000
0000F80000
0000F80000
ENDCHAR
STARTCHAR Thorn
ENCODING 222
SWIDTH 843 0
DWIDTH 35 0
BBX 31 31 3 0
BITMAP
F8000000
F8000000
F8000000
F8000000
F8000000
FFFFFF80
FFFFFFE0
FFFFFFF0
FFFFFFF8
FFFFFFFC
F80001FC
F80000FE
F800007E
F800003E
F800003E
F800003E
F800003E
F800003E
F800007E
F800007E
F80000FC
F80001FC
F87FFFFC
F87FFFF8
F87FFFF0
F87FFFE0
F87FFF80
F8000000
F8000000
F8000000
F8000000
ENDCHAR
STARTCHAR germandbls
ENCODING 223
SWIDTH 1760 0
DWIDTH 74 0
BBX 70 31 2 0
BITMAP
03FFFFFF001FFFFFF0
0FFFFFFF007FFFFFF0
1FFFFFFF00FFFFFFF0
3FFFFFFF01FFFFFFF0
7FFFFFFF03FFFFFFF0
7F80000003FC000000
FE00000007F0000000
FC00000007E0000000
FC00000007E0000000
FC00000007E0000000
FC00000007E0000000
FC00000007E0000000
7E00000003F0000000
7FFFFFE003FFFFFF00
3FFFFFFC01FFFFFFE0
1FFFFFFE00FFFFFFF0
0FFFFFFF007FFFFFF8
03FFFFFF001FFFFFF8
0000003F80000001FC
0000001F80000000FC
0000000F800000007C
0000000F800000007C
0000000F800000007C
0000000F800000007C
0000001F80000000FC
000000FF00000007F8
7FFFFFFF03FFFFFFF8
7FFFFFFE03FFFFFFF0
7FFFFFFE03FFFFFFF0
7FFFFFF803FFFFFFC0
7FFFFFE003FFFFFF00
ENDCHAR
STARTCHAR agrave
ENCODING 224
SWIDTH 989 0
DWIDTH 42 0
BBX 40 39 1 0
BITMAP
0004000000
0007800000
0007F00000
0007FE0000
0000FF0000
0000070000
0000000000
0000000000
0000380000
00007C0000
00007E0000
0000FE0000
0001FF0000
0001FF8000
0003FF8000
0003FFC000
0007EFC000
000FC7E000
000FC7F000
001F83F000
001F83F800
003F01F800
007E00FC00
007E00FE00
00FC007E00
00FC007F00
01F8003F00
03F07FFF80
03F0FFFFC0
07E1FFFFC0
07E3FFFFE0
0FC00007E0
1FC00003F0
1F800003F8
3F000001F8
3F000001FC
7E000000FC
FE0000007E
FC0000007F
ENDCHAR
STARTCHAR aacute
ENCODING 225
SWIDTH 989 0
DWIDTH 42 0
BBX 40 39 1 0
BITMAP
0000002000
000001C000
00001FC000
0000FFC000
0000FE0000
0000C00000
0000000000
0000000000
0000380000
00007C0000
00007E0000
0000FE0000
0001FF0000
0001FF8000
0003FF8000
0003FFC000
0007EFC000
000FC7E000
000FC7F000
001F83F000
001F83F800
003F01F800
007E00FC00
007E00FE00
00FC007E00
00FC007F00
01F8003F00
03F07FFF80
03F0FFFFC0
07E1FFFFC0
07E3FFFFE0
0FC00007E0
1FC00003F0
1F800003F8
3F000001F8
3F000001FC
7E000000FC
FE0000007E
FC0000007F
ENDCHAR
STARTCHAR acircumflex
ENCODING 226
SWIDTH 989 0
DWIDTH 42 0
BBX 40 39 1 0
BITMAP
00003C0000
00007E0000
0000EE0000
0000E70000
0001C38000
0003838000
0000004000
0000000000
0000380000
00007C0000
00007E0000
0000FE0000
0001FF0000
0001FF8000
0003FF8000
0003FFC000
0007EFC000
000FC7E000
000FC7F000
001F83F000
001F83F800
003F01F800
007E00FC00
007E00FE00
00FC007E00
00FC007F00
01F8003F00
03F07FFF80
03F0FFFFC0
07E1FFFFC0
07E3FFFFE0
0FC00007E0
1FC00003F0
1F800003F8
3F000001F8
3F000001FC
7E000000FC
FE0000007E
FC0000007F
ENDCHAR
STARTCHAR atilde
ENCODING 227
SWIDTH 989 0
DWIDTH 42 0
BBX 40 38 1 0
BITMAP
0001E08000
0003F88000
00031F8000
0002070000
0000000000
0000000000
0000000000
0000380000
00007C0000
00007E0000
0000FE0000
0001FF0000
0001FF8000
0003FF8000
0003FFC000
0007EFC000
000FC7E000
000FC7F000
001F83F000
001F83F800
003F01F800
007E00FC00
007E00FE00
00FC007E00
00FC007F00
01F8003F00
03F07FFF80
03F0FFFFC0
07E1FFFFC0
07E3FFFFE0
0FC00007E0
1FC00003F0
1F800003F8
3F000001F8
3F000001FC
7E000000FC
FE0000007E
FC0000007F
ENDCHAR
STARTCHAR adieresis
ENCODING 228
SWIDTH 989 0
DWIDTH 42 0
BBX 40 38 1 0
BITMAP
0003838000
0003C3C000
0003C3C000
0003838000
0000000000
0000000000
0000000000
0000380000
00007C0000
00007E0000
0000FE0000
0001FF0000
0001FF8000
0003FF8000
0003FFC000
0007EFC000
000FC7E000
000FC7F000
001F83F000
001F83F800
003F01F800
007E00FC00
007E00FE00
00FC007E00
00FC007F00
01F8003F00
03F07FFF80
03F0FFFFC0
07E1FFFFC0
07E3FFFFE0
0FC00007E0
1FC00003F0
1F800003F8
3F000001F8
3F000001FC
7E000000FC
FE0000007E
FC0000007F
ENDCHAR
STARTCHAR aring
ENCODING 229
SWIDTH 989 0
DWIDTH 42 0
BBX 40 42 1 0
BITMAP
00007E0000
0001FF0000
0001838000
0003018000
0003008000
0003018000
0001818000
0001FF0000
00007E0000
0000000000
0000000000
0000380000
00007C0000
00007E0000
0000FE0000
0001FF0000
0001FF8000
0003FF8000
0003FFC000
0007EFC000
000FC7E000
000FC7F000
001F83F000
001F83F800
003F01F800
007E00FC00
007E00FE00
00FC007E00
00FC007F00
01F8003F00
03F07FFF80
03F0FFFFC0
07E1FFFFC0
07E3FFFFE0
0FC00007E0
1FC00003F0
1F800003F8
3F000001F8
3F000001FC
7E000000FC
FE0000007E
FC0000007F
ENDCHAR
STARTCHAR ae
ENCODING 230
SWIDTH 1345 0
DWIDTH 56 0
BBX 54 31 1 0
BITMAP
00007FFFFFFFF8
0000FFFFFFFFF8
0000FFFFFFFFF8
0001FFFFFFFFF8
0001FFFFFFFFF8
0003F00F800000
0003E00F800000
0007E00F800000
000FC00F800000
000FC00F800000
001F800F800000
001F800F800000
003F000F800000
003E000F87FFF0
007E000F87FFF0
00FC000F87FFF0
00FC000F87FFF0
01F8000F87FFF0
01F8000F800000
03F0FFFF800000
03F0FFFF800000
07E1FFFF800000
0FC3FFFF800000
0FC0000F800000
1F80000F800000
1F80000F800000
3F00000FFFFFFC
3F00000FFFFFFC
7E00000FFFFFFC
FC00000FFFFFFC
FC00000FFFFFFC
ENDCHAR
STARTCHAR ccedilla
ENCODING 231
SWIDTH 829 0
DWIDTH 35 0
BBX 31 40 2 -9
BITMAP
001FFFFE
00FFFFFE
03FFFFFE
07FFFFFE
0FFFFFFE
1FFC0000
3FC00000
3F800000
7F000000
7E000000
FC000000
FC000000
F8000000
F8000000
F8000000
F8000000
F8000000
F8000000
F8000000
FC000000
7C000000
7E000000
7F000000
3F800000
3FC00000
1FFC0000
0FFFFFFE
07FFFFFE
03FFFFFE
00FFFFFE
001FFFFE
00000000
00000000
0007E000
0003C000
0001C000
0001C000
00018000
00008000
00008000
ENDCHAR
STARTCHAR egrave
ENCODING 232
SWIDTH 759 0
DWIDTH 32 0
BBX 27 39 3 0
BITMAP
02000000
03C00000
03F80000
03FF8000
003F8000
00038000
00000000
00000000
FFFFFFE0
FFFFFFE0
FFFFFFE0
FFFFFFE0
FFFFFFE0
F8000000
F8000000
F8000000
F8000000
F8000000
F8000000
F8000000
F8000000
F87FFFC0
F87FFFC0
F87FFFC0
F87FFFC0
F87FFFC0
F8000000
F8000000
F8000000
F8000000
F8000000
F8000000
F8000000
F8000000
FFFFFFE0
FFFFFFE0
FFFFFFE0
FFFFFFE0
FFFFFFE0
ENDCHAR
STARTCHAR eacute
ENCODING 233
SWIDTH 759 0
DWIDTH 32 0
BBX 27 39 3 0
BITMAP
00001000
0000F000
0007F000
007FF000
007F0000
00700000
00000000
00000000
FFFFFFE0
FFFFFFE0
FFFFFFE0
FFFFFFE0
FFFFFFE0
F8000000
F8000000
F8000000
F8000000
F8000000
F8000000
F8000000
F8000000
F87FFFC0
F87FFFC0
F87FFFC0
F87FFFC0
F87FFFC0
F8000000
F8000000
F8000000
F8000000
F8000000
F8000000
F8000000
F8000000
FFFFFFE0
FFFFFFE0
FFFFFFE0
FFFFFFE0
FFFFFFE0
ENDCHAR
STARTCHAR ecircumflex
ENCODING 234
SWIDTH 759 0
DWIDTH 32 0
BBX 27 39 3 0
BITMAP
001E0000
003F0000
00770000
00738000
00E1C000
01C1E000
00000000
00000000
FFFFFFE0
FFFFFFE0
FFFFFFE0
FFFFFFE0
FFFFFFE0
F8000000
F8000000
F8000000
F8000000
F8000000
F8000000
F8000000
F8000000
F87FFFC0
F87FFFC0
F87FFFC0
F87FFFC0
F87FFFC0
F8000000
F8000000
F8000000
F8000000
F8000000
F8000000
F8000000
F8000000
FFFFFFE0
FFFFFFE0
FFFFFFE0
FFFFFFE0
FFFFFFE0
ENDCHAR
STARTCHAR edieresis
ENCODING 235
SWIDTH 759 0
DWIDTH 32 0
BBX 27 38 3 0
BITMAP
00E1C000
01E1E000
01E1E000
00E1C000
00000000
00000000
00000000
FFFFFFE0
FFFFFFE0
FFFFFFE0
FFFFFFE0
FFFFFFE0
F8000000
F8000000
F8000000
F8000000
F8000000
F8000000
F8000000
F8000000
F87FFFC0
F87FFFC0
F87FFFC0
F87FFFC0
F87FFFC0
F8000000
F8000000
F8000000
F8000000
F8000000
F8000000
F8000000
F8000000
FFFFFFE0
FFFFFFE0
FFFFFFE0
FFFFFFE0
FFFFFFE0
ENDCHAR
STARTCHAR igrave
ENCODING 236
SWIDTH 267 0
DWIDTH 11 0
BBX 11 39 -1 0
BITMAP
8000
F000
FE00
FFC0
1FE0
00E0
0000
0000
0F80
0F80
0F80
0F80
0F80
0F80
0F80
0F80
0F80
0F80
0F80
0F80
0F80
0F80
0F80
0F80
0F80
0F80
0F80
0F80
0F80
0F80
0F80
0F80
0F80
0F80
0F80
0F80
0F80
0F80
0F80
ENDCHAR
STARTCHAR iacute
ENCODING 237
SWIDTH 267 0
DWIDTH 11 0
BBX 10 39 2 0
BITMAP
0040
01C0
1FC0
FFC0
FE00
C000
0000
0000
7C00
7C00
7C00
7C00
7C00
7C00
7C00
7C00
7C00
7C00
7C00
7C00
7C00
7C00
7C00
7C00
7C00
7C00
7C00
7C00
7C00
7C00
7C00
7C00
7C00
7C00
7C00
7C00
7C00
7C00
7C00
ENDCHAR
STARTCHAR icircumflex
ENCODING 238
SWIDTH 267 0
DWIDTH 11 0
BBX 11 39 0 0
BITMAP
1F00
1F00
3B80
31C0
71C0
E0E0
0000
0000
1F00
1F00
1F00
1F00
1F00
1F00
1F00
1F00
1F00
1F00
1F00
1F00
1F00
1F00
1F00
1F00
1F00
1F00
1F00
1F00
1F00
1F00
1F00
1F00
1F00
1F00
1F00
1F00
1F00
1F00
1F00
ENDCHAR
STARTCHAR idieresis
ENCODING 239
SWIDTH 267 0
DWIDTH 11 0
BBX 12 38 0 0
BITMAP
E0E0
F1F0
F1F0
E0E0
0000
0000
0000
1F00
1F00
1F00
1F00
1F00
1F00
1F00
1F00
1F00
1F00
1F00
1F00
1F00
1F00
1F00
1F00
1F00
1F00
1F00
1F00
1F00
1F00
1F00
1F00
1F00
1F00
1F00
1F00
1F00
1F00
1F00
ENDCHAR
STARTCHAR eth
ENCODING 240
SWIDTH 877 0
DWIDTH 37 0
BBX 35 31 0 0
BITMAP
1FFFFF0000
1FFFFFE000
1FFFFFF800
1FFFFFFC00
1FFFFFFE00
1F0007FF00
1F00007F80
1F00003F80
1F00001FC0
1F00000FC0
1F000007E0
1F000007E0
1F000007E0
FFFFF003E0
FFFFF003E0
FFFFF003E0
FFFFF003E0
FFFFF003E0
1F000007E0
1F000007E0
1F000007C0
1F00000FC0
1F00001FC0
1F00003F80
1F00007F00
1F0007FF00
1FFFFFFE00
1FFFFFFC00
1FFFFFF800
1FFFFFE000
1FFFFF0000
ENDCHAR
STARTCHAR ntilde
ENCODING 241
SWIDTH 873 0
DWIDTH 37 0
BBX 31 38 3 0
BITMAP
001C0800
003F1800
0023F800
0020F000
00000000
00000000
00000000
7000003E
F800003E
FC00003E
FE00003E
FF00003E
FF80003E
FFC0003E
FFE0003E
FFF0003E
FFF8003E
FBFC003E
F9FE003E
F8FF003E
F87F803E
F83FC03E
F81FE03E
F807F03E
F803F83E
F801FC3E
F800FE3E
F8007F3E
F8003FBE
F8001FFE
F8000FFE
F80007FE
F80003FE
F80001FE
F80000FE
F800007E
F800003E
F800001C
ENDCHAR
STARTCHAR ograve
ENCODING 242
SWIDTH 968 0
DWIDTH 41 0
BBX 37 39 2 0
BITMAP
0010000000
000E000000
000FE00000
000FFC0000
0001FC0000
00000C0000
0000000000
0000000000
001FFFC000
00FFFFF800
03FFFFFE00
07FFFFFF00
0FFFFFFF80
1FFC01FFC0
3FC0001FE0
3F80000FE0
7F000007F0
7E000003F0
FC000001F0
FC000001F8
F8000001F8
F8000001F8
F8000000F8
F8000000F8
F8000000F8
F8000001F8
F8000001F8
FC000001F0
7C000003F0
7E000003F0
7F000007E0
3F80000FE0
3FC0001FC0
1FFC01FFC0
0FFFFFFF80
07FFFFFF00
03FFFFFC00
00FFFFF800
001FFFC000
ENDCHAR
STARTCHAR oacute
ENCODING 243
SWIDTH 968 0
DWIDTH 41 0
BBX 37 39 2 0
BITMAP
0000008000
0000078000
00003F8000
0001FF8000
0003FC0000
0003800000
0000000000
0000000000
001FFFC000
00FFFFF800
03FFFFFE00
07FFFFFF00
0FFFFFFF80
1FFC01FFC0
3FC0001FE0
3F80000FE0
7F000007F0
7E000003F0
FC000001F0
FC000001F8
F8000001F8
F8000001F8
F8000000F8
F8000000F8
F8000000F8
F8000001F8
F8000001F8
FC000001F0
7C000003F0
7E000003F0
7F000007E0
3F80000FE0
3FC0001FC0
1FFC01FFC0
0FFFFFFF80
07FFFFFF00
03FFFFFC00
00FFFFF800
001FFFC000
ENDCHAR
STARTCHAR ocircumflex
ENCODING 244
SWIDTH 968 0
DWIDTH 41 0
BBX 37 39 2 0
BITMAP
0000F00000
0001F80000
0001DC0000
00039C0000
00030E0000
0007070000
0000000000
0000000000
001FFFC000
00FFFFF800
03FFFFFE00
07FFFFFF00
0FFFFFFF80
1FFC01FFC0
3FC0001FE0
3F80000FE0
7F000007F0
7E000003F0
FC000001F0
FC000001F8
F8000001F8
F8000001F8
F8000000F8
F8000000F8
F8000000F8
F8000001F8
F8000001F8
FC000001F0
7C000003F0
7E000003F0
7F000007E0
3F80000FE0
3FC0001FC0
1FFC01FFC0
0FFFFFFF80
07FFFFFF00
03FFFFFC00
00FFFFF800
001FFFC000
ENDCHAR
STARTCHAR otilde
ENCODING 245
SWIDTH 968 0
DWIDTH 41 0
BBX 37 38 2 0
BITMAP
0003810000
0007E30000
00047F0000
00041E0000
0000000000
0000000000
0000000000
001FFFC000
00FFFFF800
03FFFFFE00
07FFFFFF00
0FFFFFFF80
1FFC01FFC0
3FC0001FE0
3F80000FE0
7F000007F0
7E000003F0
FC000001F0
FC000001F8
F8000001F8
F8000001F8
F8000000F8
F8000000F8
F8000000F8
F8000001F8
F8000001F8
FC000001F0
7C000003F0
7E000003F0
7F000007E0
3F80000FE0
3FC0001FC0
1FFC01FFC0
0FFFFFFF80
07FFFFFF00
03FFFFFC00
00FFFFF800
001FFFC000
ENDCHAR
STARTCHAR odieresis
ENCODING 246
SWIDTH 968 0
DWIDTH 41 0
BBX 37 38 2 0
BITMAP
0007070000
000F8F0000
000F8F0000
0007070000
0000000000
0000000000
0000000000
001FFFC000
00FFFFF800
03FFFFFE00
07FFFFFF00
0FFFFFFF80
1FFC01FFC0
3FC0001FE0
3F80000FE0
7F000007F0
7E000003F0
FC000001F0
FC000001F8
F8000001F8
F8000001F8
F8000000F8
F8000000F8
F8000000F8
F8000001F8
F8000001F8
FC000001F0
7C000003F0
7E000003F0
7F000007E0
3F80000FE0
3FC0001FC0
1FFC01FFC0
0FFFFFFF80
07FFFFFF00
03FFFFFC00
00FFFFF800
001FFFC000
ENDCHAR
STARTCHAR divide
ENCODING 247
SWIDTH 690 0
DWIDTH 29 0
BBX 23 27 3 2
BITMAP
007C00
007C00
007C00
007C00
003800
000000
000000
000000
000000
000000
000000
FFFFFE
FFFFFE
FFFFFE
FFFFFE
000000
000000
000000
000000
000000
000000
000000
007C00
007C00
007C00
007C00
003800
ENDCHAR
STARTCHAR oslash
ENCODING 248
SWIDTH 968 0
DWIDTH 41 0
BBX 37 35 2 -2
BITMAP
0000000180
00000001C0
001FFFC380
00FFFFFF00
03FFFFFE00
07FFFFFF00
0FFFFFFF80
1FFC01FFC0
3FC0007FE0
3F8000EFE0
7F0001C7F0
7E000383F0
FC000701F0
FC000601F8
F8000E01F8
F8001C01F8
F8003800F8
F8007000F8
F800E000F8
F800C001F8
F801C001F8
FC038001F0
7C070003F0
7E0E0003F0
7F1C0007E0
3F98000FE0
3FF8001FC0
1FFC01FFC0
0FFFFFFF80
07FFFFFF00
03FFFFFC00
03FFFFF800
071FFFC000
0E00000000
0400000000
ENDCHAR
STARTCHAR ugrave
ENCODING 249
SWIDTH 889 0
DWIDTH 37 0
BBX 33 39 2 0
BITMAP
0020000000
003C000000
003F800000
003FF00000
0007F80000
0000380000
0000000000
0000000000
FC00000F80
FC00000F80
FC00000F80
FC00000F80
FC00000F80
FC00000F80
FC00000F80
FC00000F80
FC00000F80
FC00000F80
FC00000F80
FC00000F80
FC00000F80
FC00000F80
FC00000F80
FC00000F80
FC00000F80
FC00000F80
FC00000F80
FC00000F80
FC00001F80
7C00001F80
7E00001F00
7F00003F00
3FC000FF00
3FFF3FFE00
1FFFFFFC00
0FFFFFF800
07FFFFF000
01FFFFC000
001FFE0000
ENDCHAR
STARTCHAR uacute
ENCODING 250
SWIDTH 889 0
DWIDTH 37 0
BBX 33 39 2 0
BITMAP
0000010000
00000E0000
0000FE0000
0007FE0000
0007F00000
0006000000
0000000000
0000000000
FC00000F80
FC00000F80
FC00000F80
FC00000F80
FC00000F80
FC00000F80
FC00000F80
FC00000F80
FC00000F80
FC00000F80
FC00000F80
FC00000F80
FC00000F80
FC00000F80
FC00000F80
FC00000F80
FC00000F80
FC00000F80
FC00000F80
FC00000F80
FC00001F80
7C00001F80
7E00001F00
7F00003F00
3FC000FF00
3FFF3FFE00
1FFFFFFC00
0FFFFFF800
07FFFFF000
01FFFFC000
001FFE0000
ENDCHAR
STARTCHAR ucircumflex
ENCODING 251
SWIDTH 889 0
DWIDTH 37 0
BBX 33 39 2 0
BITMAP
0001E00000
0003E00000
0007700000
0006380000
000E380000
001C1C0000
0000000000
0000000000
FC00000F80
FC00000F80
FC00000F80
FC00000F80
FC00000F80
FC00000F80
FC00000F80
FC00000F80
FC00000F80
FC00000F80
FC00000F80
FC00000F80
FC00000F80
FC00000F80
FC00000F80
FC00000F80
FC00000F80
FC00000F80
FC00000F80
FC00000F80
FC00001F80
7C00001F80
7E00001F00
7F00003F00
3FC000FF00
3FFF3FFE00
1FFFFFFC00
0FFFFFF800
07FFFFF000
01FFFFC000
001FFE0000
ENDCHAR
STARTCHAR udieresis
ENCODING 252
SWIDTH 889 0
DWIDTH 37 0
BBX 33 38 2 0
BITMAP
001C1C0000
001E3E0000
001E3E0000
001C1C0000
0000000000
0000000000
0000000000
FC00000F80
FC00000F80
FC00000F80
FC00000F80
FC00000F80
FC00000F80
FC00000F80
FC00000F80
FC00000F80
FC00000F80
FC00000F80
FC00000F80
FC00000F80
FC00000F80
FC00000F80
FC00000F80
FC00000F80
FC00000F80
FC00000F80
FC00000F80
FC00001F80
7C00001F80
7E00001F00
7F00003F00
3FC000FF00
3FFF3FFE00
1FFFFFFC00
0FFFFFF800
07FFFFF000
01FFFFC000
001FFE0000
ENDCHAR
STARTCHAR yacute
ENCODING 253
SWIDTH 926 0
DWIDTH 39 0
BBX 37 39 1 0
BITMAP
0000004000
0000038000
00003F8000
0001FF8000
0003FC0000
0003800000
0000000000
0000000000
FE000003F8
7F000007F0
3F80000FE0
3FC0000FC0
1FC0001FC0
0FE0003F80
07F0007F00
03F800FE00
01FC01FC00
00FE01F800
00FE03F000
007F07F000
003F8FE000
001FDFC000
000FFF8000
0007FF0000
0007FE0000
0003FE0000
0001FC0000
0000F80000
0000F80000
0000F80000
0000F80000
0000F80000
0000F80000
0000F80000
0000F80000
0000F80000
0000F80000
0000F80000
0000F80000
ENDCHAR
STARTCHAR thorn
ENCODING 254
SWIDTH 843 0
DWIDTH 35 0
BBX 31 31 3 0
BITMAP
F8000000
F8000000
F8000000
F8000000
F8000000
FFFFFF80
FFFFFFE0
FFFFFFF0
FFFFFFF8
FFFFFFFC
F80001FC
F80000FE
F800007E
F800003E
F800003E
F800003E
F800003E
F800003E
F800007E
F800007E
F80000FC
F80001FC
F87FFFFC
F87FFFF8
F87FFFF0
F87FFFE0
F87FFF80
F8000000
F8000000
F8000000
F8000000
ENDCHAR
STARTCHAR ydieresis
ENCODING 255
SWIDTH 926 0
DWIDTH 39 0
BBX 37 38 1 0
BITMAP
0007070000
00078F8000
00078F8000
0007070000
0000000000
0000000000
0000000000
FE000003F8
7F000007F0
3F80000FE0
3FC0000FC0
1FC0001FC0
0FE0003F80
07F0007F00
03F800FE00
01FC01FC00
00FE01F800
00FE03F000
007F07F000
003F8FE000
001FDFC000
000FFF8000
0007FF0000
0007FE0000
0003FE0000
0001FC0000
0000F80000
0000F80000
0000F80000
0000F80000
0000F80000
0000F80000
0000F80000
0000F80000
0000F80000
0000F80000
0000F80000
0000F80000
ENDCHAR
STARTCHAR Amacron
ENCODING 256
SWIDTH 989 0
DWIDTH 42 0
BBX 40 37 1 0
BITMAP
0003FF8000
0003FF8000
0000000000
0000000000
0000000000
0000000000
0000380000
00007C0000
00007E0000
0000FE0000
0001FF0000
0001FF8000
0003FF8000
0003FFC000
0007EFC000
000FC7E000
000FC7F000
001F83F000
001F83F800
003F01F800
007E00FC00
007E00FE00
00FC007E00
00FC007F00
01F8003F00
03F07FFF80
03F0FFFFC0
07E1FFFFC0
07E3FFFFE0
0FC00007E0
1FC00003F0
1F800003F8
3F000001F8
3F000001FC
7E000000FC
FE0000007E
FC0000007F
ENDCHAR
STARTCHAR amacron
ENCODING 257
SWIDTH 989 0
DWIDTH 42 0
BBX 40 37 1 0
BITMAP
0003FF8000
0003FF8000
0000000000
0000000000
0000000000
0000000000
0000380000
00007C0000
00007E0000
0000FE0000
0001FF0000
0001FF8000
0003FF8000
0003FFC000
0007EFC000
000FC7E000
000FC7F000
001F83F000
001F83F800
003F01F800
007E00FC00
007E00FE00
00FC007E00
00FC007F00
01F8003F00
03F07FFF80
03F0FFFFC0
07E1FFFFC0
07E3FFFFE0
0FC00007E0
1FC00003F0
1F800003F8
3F000001F8
3F000001FC
7E000000FC
FE0000007E
FC0000007F
ENDCHAR
STARTCHAR Abreve
ENCODING 258
SWIDTH 989 0
DWIDTH 42 0
BBX 40 39 1 0
BITMAP
000381C000
0003818000
0003838000
0001C38000
0001FF0000
00007E0000
0000000000
0000000000
0000380000
00007C0000
00007E0000
0000FE0000
0001FF0000
0001FF8000
0003FF8000
0003FFC000
0007EFC000
000FC7E000
000FC7F000
001F83F000
001F83F800
003F01F800
007E00FC00
007E00FE00
00FC007E00
00FC007F00
01F8003F00
03F07FFF80
03F0FFFFC0
07E1FFFFC0
07E3FFFFE0
0FC00007E0
1FC00003F0
1F800003F8
3F000001F8
3F000001FC
7E000000FC
FE0000007E
FC0000007F
ENDCHAR
STARTCHAR abreve
ENCODING 259
SWIDTH 989 0
DWIDTH 42 0
BBX 40 39 1 0
BITMAP
000381C000
0003818000
0003838000
0001C38000
0001FF0000
00007E0000
0000000000
0000000000
0000380000
00007C0000
00007E0000
0000FE0000
0001FF0000
0001FF8000
0003FF8000
0003FFC000
0007EFC000
000FC7E000
000FC7F000
001F83F000
001F83F800
003F01F800
007E00FC00
007E00FE00
00FC007E00
00FC007F00
01F8003F00
03F07FFF80
03F0FFFFC0
07E1FFFFC0
07E3FFFFE0
0FC00007E0
1FC00003F0
1F800003F8
3F000001F8
3F000001FC
7E000000FC
FE0000007E
FC0000007F
ENDCHAR
STARTCHAR Aogonek
ENCODING 260
SWIDTH 989 0
DWIDTH 42 0
BBX 40 40 1 -9
BITMAP
0000380000
00007C0000
00007E0000
0000FE0000
0001FF0000
0001FF8000
0003FF8000
0003FFC000
0007EFC000
000FC7E000
000FC7F000
001F83F000
001F83F800
003F01F800
007E00FC00
007E00FE00
00FC007E00
00FC007F00
01F8003F00
03F07FFF80
03F0FFFFC0
07E1FFFFC0
07E3FFFFE0
0FC00007E0
1FC00003F0
1F800003F8
3F000001F8
3F000001FC
7E000000FC
FE0000007E
FC0000007F
0000000006
000000001C
0000000030
0000000060
00000000E0
00000000FF
00000000FF
00000000FF
000000003F
ENDCHAR
STARTCHAR aogonek
ENCODING 261
SWIDTH 989 0
DWIDTH 42 0
BBX 40 40 1 -9
BITMAP
0000380000
00007C0000
00007E0000
0000FE0000
0001FF0000
0001FF8000
0003FF8000
0003FFC000
0007EFC000
000FC7E000
000FC7F000
001F83F000
001F83F800
003F01F800
007E00FC00
007E00FE00
00FC007E00
00FC007F00
01F8003F00
03F07FFF80
03F0FFFFC0
07E1FFFFC0
07E3FFFFE0
0FC00007E0
1FC00003F0
1F800003F8
3F000001F8
3F000001FC
7E000000FC
FE0000007E
FC0000007F
0000000006
000000001C
0000000030
0000000060
00000000E0
00000000FF
00000000FF
00000000FF
000000003F
ENDCHAR
STARTCHAR Cacute
ENCODING 262
SWIDTH 829 0
DWIDTH 35 0
BBX 31 39 2 0
BITMAP
00000100
00000F00
00007F00
0003FF00
0007F800
00070000
00000000
00000000
001FFFFE
00FFFFFE
03FFFFFE
07FFFFFE
0FFFFFFE
1FFC0000
3FC00000
3F800000
7F000000
7E000000
FC000000
FC000000
F8000000
F8000000
F8000000
F8000000
F8000000
F8000000
F8000000
FC000000
7C000000
7E000000
7F000000
3F800000
3FC00000
1FFC0000
0FFFFFFE
07FFFFFE
03FFFFFE
00FFFFFE
001FFFFE
ENDCHAR
STARTCHAR cacute
ENCODING 263
SWIDTH 829 0
DWIDTH 35 0
BBX 31 39 2 0
BITMAP
00000100
00000F00
00007F00
0003FF00
0007F800
00070000
00000000
00000000
001FFFFE
00FFFFFE
03FFFFFE
07FFFFFE
0FFFFFFE
1FFC0000
3FC00000
3F800000
7F000000
7E000000
FC000000
FC000000
F8000000
F8000000
F8000000
F8000000
F8000000
F8000000
F8000000
FC000000
7C000000
7E000000
7F000000
3F800000
3FC00000
1FFC0000
0FFFFFFE
07FFFFFE
03FFFFFE
00FFFFFE
001FFFFE
ENDCHAR
STARTCHAR Cdotaccent
ENCODING 266
SWIDTH 829 0
DWIDTH 35 0
BBX 31 38 2 0
BITMAP
0000E000
0000F000
0000F000
0000E000
00000000
00000000
00000000
001FFFFE
00FFFFFE
03FFFFFE
07FFFFFE
0FFFFFFE
1FFC0000
3FC00000
3F800000
7F000000
7E000000
FC000000
FC000000
F8000000
F8000000
F8000000
F8000000
F8000000
F8000000
F8000000
FC000000
7C000000
7E000000
7F000000
3F800000
3FC00000
1FFC0000
0FFFFFFE
07FFFFFE
03FFFFFE
00FFFFFE
001FFFFE
ENDCHAR
STARTCHAR cdotaccent
ENCODING 267
SWIDTH 829 0
DWIDTH 35 0
BBX 31 38 2 0
BITMAP
0000E000
0000F000
0000F000
0000E000
00000000
00000000
00000000
001FFFFE
00FFFFFE
03FFFFFE
07FFFFFE
0FFFFFFE
1FFC0000
3FC00000
3F800000
7F000000
7E000000
FC000000
FC000000
F8000000
F8000000
F8000000
F8000000
F8000000
F8000000
F8000000
FC000000
7C000000
7E000000
7F000000
3F800000
3FC00000
1FFC0000
0FFFFFFE
07FFFFFE
03FFFFFE
00FFFFFE
001FFFFE
ENDCHAR
STARTCHAR Ccaron
ENCODING 268
SWIDTH 829 0
DWIDTH 35 0
BBX 31 39 2 0
BITMAP
000E0E00
000E0E00
00071C00
0003B800
0001F000
0001F000
00000000
00000000
001FFFFE
00FFFFFE
03FFFFFE
07FFFFFE
0FFFFFFE
1FFC0000
3FC00000
3F800000
7F000000
7E000000
FC000000
FC000000
F8000000
F8000000
F8000000
F8000000
F8000000
F8000000
F8000000
FC000000
7C000000
7E000000
7F000000
3F800000
3FC00000
1FFC0000
0FFFFFFE
07FFFFFE
03FFFFFE
00FFFFFE
001FFFFE
ENDCHAR
STARTCHAR ccaron
ENCODING 269
SWIDTH 829 0
DWIDTH 35 0
BBX 31 39 2 0
BITMAP
000E0E00
000E0E00
00071C00
0003B800
0001F000
0001F000
00000000
00000000
001FFFFE
00FFFFFE
03FFFFFE
07FFFFFE
0FFFFFFE
1FFC0000
3FC00000
3F800000
7F000000
7E000000
FC000000
FC000000
F8000000
F8000000
F8000000
F8000000
F8000000
F8000000
F8000000
FC000000
7C000000
7E000000
7F000000
3F800000
3FC00000
1FFC0000
0FFFFFFE
07FFFFFE
03FFFFFE
00FFFFFE
001FFFFE
ENDCHAR
STARTCHAR Dcaron
ENCODING 270
SWIDTH 879 0
DWIDTH 37 0
BBX 32 39 3 0
BITMAP
00E07000
0070E000
0071C000
003B8000
001F8000
001F0000
00000000
00000000
FFFFF800
FFFFFF00
FFFFFFC0
FFFFFFE0
FFFFFFF0
F8003FF8
F80003FC
F80001FC
F80000FE
F800007E
F800003F
F800003F
F800003F
F800001F
F800001F
F800001F
F800001F
F800001F
F800003F
F800003F
F800003E
F800007E
F80000FE
F80001FC
F80003FC
F8003FF8
FFFFFFF0
FFFFFFE0
FFFFFFC0
FFFFFF00
FFFFF800
ENDCHAR
STARTCHAR dcaron
ENCODING 271
SWIDTH 879 0
DWIDTH 37 0
BBX 32 39 3 0
BITMAP
00E07000
0070E000
0071C000
003B8000
001F8000
001F0000
00000000
00000000
FFFFF800
FFFFFF00
FFFFFFC0
FFFFFFE0
FFFFFFF0
F8003FF8
F80003FC
F80001FC
F80000FE
F800007E
F800003F
F800003F
F800003F
F800001F
F800001F
F800001F
F800001F
F800001F
F800003F
F800003F
F800003E
F800007E
F80000FE
F80001FC
F80003FC
F8003FF8
FFFFFFF0
FFFFFFE0
FFFFFFC0
FFFFFF00
FFFFF800
ENDCHAR
STARTCHAR Dcroat
ENCODING 272
SWIDTH 877 0
DWIDTH 37 0
BBX 35 31 0 0
BITMAP
1FFFFF0000
1FFFFFE000
1FFFFFF800
1FFFFFFC00
1FFFFFFE00
1F0007FF00
1F00007F80
1F00003F80
1F00001FC0
1F00000FC0
1F000007E0
1F000007E0
1F000007E0
FFFFF003E0
FFFFF003E0
FFFFF003E0
FFFFF003E0
FFFFF003E0
1F000007E0
1F000007E0
1F000007C0
1F00000FC0
1F00001FC0
1F00003F80
1F00007F00
1F0007FF00
1FFFFFFE00
1FFFFFFC00
1FFFFFF800
1FFFFFE000
1FFFFF0000
ENDCHAR
STARTCHAR dcroat
ENCODING 273
SWIDTH 877 0
DWIDTH 37 0
BBX 35 31 0 0
BITMAP
1FFFFF0000
1FFFFFE000
1FFFFFF800
1FFFFFFC00
1FFFFFFE00
1F0007FF00
1F00007F80
1F00003F80
1F00001FC0
1F00000FC0
1F000007E0
1F000007E0
1F000007E0
FFFFF003E0
FFFFF003E0
FFFFF003E0
FFFFF003E0
FFFFF003E0
1F000007E0
1F000007E0
1F000007C0
1F00000FC0
1F00001FC0
1F00003F80
1F00007F00
1F0007FF00
1FFFFFFE00
1FFFFFFC00
1FFFFFF800
1FFFFFE000
1FFFFF0000
ENDCHAR
STARTCHAR Emacron
ENCODING 274
SWIDTH 759 0
DWIDTH 32 0
BBX 27 37 3 0
BITMAP
00FFC000
00FFC000
00000000
00000000
00000000
00000000
FFFFFFE0
FFFFFFE0
FFFFFFE0
FFFFFFE0
FFFFFFE0
F8000000
F8000000
F8000000
F8000000
F8000000
F8000000
F8000000
F8000000
F87FFFC0
F87FFFC0
F87FFFC0
F87FFFC0
F87FFFC0
F8000000
F8000000
F8000000
F8000000
F8000000
F8000000
F8000000
F8000000
FFFFFFE0
FFFFFFE0
FFFFFFE0
FFFFFFE0
FFFFFFE0
ENDCHAR
STARTCHAR emacron
ENCODING 275
SWIDTH 759 0
DWIDTH 32 0
BBX 27 37 3 0
BITMAP
00FFC000
00FFC000
00000000
00000000
00000000
00000000
FFFFFFE0
FFFFFFE0
FFFFFFE0
FFFFFFE0
FFFFFFE0
F8000000
F8000000
F8000000
F8000000
F8000000
F8000000
F8000000
F8000000
F87FFFC0
F87FFFC0
F87FFFC0
F87FFFC0
F87FFFC0
F8000000
F8000000
F8000000
F8000000
F8000000
F8000000
F8000000
F8000000
FFFFFFE0
FFFFFFE0
FFFFFFE0
FFFFFFE0
FFFFFFE0
ENDCHAR
STARTCHAR Ebreve
ENCODING 276
SWIDTH 759 0
DWIDTH 32 0
BBX 27 39 3 0
BITMAP
01C0E000
01C0E000
01C1C000
00E1C000
007F8000
003F0000
00000000
00000000
FFFFFFE0
FFFFFFE0
FFFFFFE0
FFFFFFE0
FFFFFFE0
F8000000
F8000000
F8000000
F8000000
F8000000
F8000000
F8000000
F8000000
F87FFFC0
F87FFFC0
F87FFFC0
F87FFFC0
F87FFFC0
F8000000
F8000000
F8000000
F8000000
F8000000
F8000000
F8000000
F8000000
FFFFFFE0
FFFFFFE0
FFFFFFE0
FFFFFFE0
FFFFFFE0
ENDCHAR
STARTCHAR ebreve
ENCODING 277
SWIDTH 759 0
DWIDTH 32 0
BBX 27 39 3 0
BITMAP
01C0E000
01C0E000
01C1C000
00E1C000
007F8000
003F0000
00000000
00000000
FFFFFFE0
FFFFFFE0
FFFFFFE0
FFFFFFE0
FFFFFFE0
F8000000
F8000000
F8000000
F8000000
F8000000
F8000000
F8000000
F8000000
F87FFFC0
F87FFFC0
F87FFFC0
F87FFFC0
F87FFFC0
F8000000
F8000000
F8000000
F8000000
F8000000
F8000000
F8000000
F8000000
FFFFFFE0
FFFFFFE0
FFFFFFE0
FFFFFFE0
FFFFFFE0
ENDCHAR
STARTCHAR Edotaccent
ENCODING 278
SWIDTH 759 0
DWIDTH 32 0
BBX 27 38 3 0
BITMAP
001C0000
001E0000
001E0000
001C0000
00000000
00000000
00000000
FFFFFFE0
FFFFFFE0
FFFFFFE0
FFFFFFE0
FFFFFFE0
F8000000
F8000000
F8000000
F8000000
F8000000
F8000000
F8000000
F8000000
F87FFFC0
F87FFFC0
F87FFFC0
F87FFFC0
F87FFFC0
F8000000
F8000000
F8000000
F8000000
F8000000
F8000000
F8000000
F8000000
FFFFFFE0
FFFFFFE0
FFFFFFE0
FFFFFFE0
FFFFFFE0
ENDCHAR
STARTCHAR edotaccent
ENCODING 279
SWIDTH 759 0
DWIDTH 32 0
BBX 27 38 3 0
BITMAP
001C0000
001E0000
001E0000
001C0000
00000000
00000000
00000000
FFFFFFE0
FFFFFFE0
FFFFFFE0
FFFFFFE0
FFFFFFE0
F8000000
F8000000
F8000000
F8000000
F8000000
F8000000
F8000000
F8000000
F87FFFC0
F87FFFC0
F87FFFC0
F87FFFC0
F87FFFC0
F8000000
F8000000
F8000000
F8000000
F8000000
F8000000
F8000000
F8000000
FFFFFFE0
FFFFFFE0
FFFFFFE0
FFFFFFE0
FFFFFFE0
ENDCHAR
STARTCHAR Eogonek
ENCODING 280
SWIDTH 759 0
DWIDTH 32 0
BBX 27 40 3 -9
BITMAP
FFFFFFE0
FFFFFFE0
FFFFFFE0
FFFFFFE0
FFFFFFE0
F8000000
F8000000
F8000000
F8000000
F8000000
F8000000
F8000000
F8000000
F87FFFC0
F87FFFC0
F87FFFC0
F87FFFC0
F87FFFC0
F8000000
F8000000
F8000000
F8000000
F8000000
F8000000
F8000000
F8000000
FFFFFFE0
FFFFFFE0
FFFFFFE0
FFFFFFE0
FFFFFFE0
000000C0
00000380
00000600
00000C00
00001C00
00001FE0
00001FE0
00000FE0
000007E0
ENDCHAR
STARTCHAR eogonek
ENCODING 281
SWIDTH 759 0
DWIDTH 32 0
BBX 27 40 3 -9
BITMAP
FFFFFFE0
FFFFFFE0
FFFFFFE0
FFFFFFE0
FFFFFFE0
F8000000
F8000000
F8000000
F8000000
F8000000
F8000000
F8000000
F8000000
F87FFFC0
F87FFFC0
F87FFFC0
F87FFFC0
F87FFFC0
F8000000
F8000000
F8000000
F8000000
F8000000
F8000000
F8000000
F8000000
FFFFFFE0
FFFFFFE0
FFFFFFE0
FFFFFFE0
FFFFFFE0
000000C0
00000380
00000600
00000C00
00001C00
00001FE0
00001FE0
00000FE0
000007E0
ENDCHAR
STARTCHAR Ecaron
ENCODING 282
SWIDTH 759 0
DWIDTH 32 0
BBX 27 39 3 0
BITMAP
01C0E000
00E1C000
00738000
00738000
003F0000
001E0000
00000000
00000000
FFFFFFE0
FFFFFFE0
FFFFFFE0
FFFFFFE0
FFFFFFE0
F8000000
F8000000
F8000000
F8000000
F8000000
F8000000
F8000000
F8000000
F87FFFC0
F87FFFC0
F87FFFC0
F87FFFC0
F87FFFC0
F8000000
F8000000
F8000000
F8000000
F8000000
F8000000
F8000000
F8000000
FFFFFFE0
FFFFFFE0
FFFFFFE0
FFFFFFE0
FFFFFFE0
ENDCHAR
STARTCHAR ecaron
ENCODING 283
SWIDTH 759 0
DWIDTH 32 0
BBX 27 39 3 0
BITMAP
01C0E000
00E1C000
00738000
00738000
003F0000
001E0000
00000000
00000000
FFFFFFE0
FFFFFFE0
FFFFFFE0
FFFFFFE0
FFFFFFE0
F8000000
F8000000
F8000000
F8000000
F8000000
F8000000
F8000000
F8000000
F87FFFC0
F87FFFC0
F87FFFC0
F87FFFC0
F87FFFC0
F8000000
F8000000
F8000000
F8000000
F8000000
F8000000
F8000000
F8000000
FFFFFFE0
FFFFFFE0
FFFFFFE0
FFFFFFE0
FFFFFFE0
ENDCHAR
STARTCHAR Gbreve
ENCODING 286
SWIDTH 888 0
DWIDTH 37 0
BBX 33 39 2 0
BITMAP
000E070000
000E070000
000E0E0000
00070E0000
0003FC0000
0001F80000
0000000000
0000000000
001FFFFE00
00FFFFFE00
03FFFFFE00
07FFFFFE00
0FFFFFFE00
1FFC000000
3FC0000000
3F80000000
7F00000000
7E00000000
FC00000000
FC00000000
F800000000
F803FFFF80
F803FFFF80
F803FFFF80
F803FFFF80
F803FFFF80
F800000F80
FC00000F80
7C00000F80
7E00000F80
7F00000F80
3F80000F80
3FC0000F80
1FFC000F80
0FFFFFFF80
07FFFFFF80
03FFFFFF80
00FFFFFF80
001FFFFF80
ENDCHAR
STARTCHAR gbreve
ENCODING 287
SWIDTH 888 0
DWIDTH 37 0
BBX 33 39 2 0
BITMAP
000E070000
000E070000
000E0E0000
00070E0000
0003FC0000
0001F80000
0000000000
0000000000
001FFFFE00
00FFFFFE00
03FFFFFE00
07FFFFFE00
0FFFFFFE00
1FFC000000
3FC0000000
3F80000000
7F00000000
7E00000000
FC00000000
FC00000000
F800000000
F803FFFF80
F803FFFF80
F803FFFF80
F803FFFF80
F803FFFF80
F800000F80
FC00000F80
7C00000F80
7E00000F80
7F00000F80
3F80000F80
3FC0000F80
1FFC000F80
0FFFFFFF80
07FFFFFF80
03FFFFFF80
00FFFFFF80
001FFFFF80
ENDCHAR
STARTCHAR Gdotaccent
ENCODING 288
SWIDTH 888 0
DWIDTH 37 0
BBX 33 38 2 0
BITMAP
0000700000
0000F00000
0000F00000
0000700000
0000000000
0000000000
0000000000
001FFFFE00
00FFFFFE00
03FFFFFE00
07FFFFFE00
0FFFFFFE00
1FFC000000
3FC0000000
3F80000000
7F00000000
7E00000000
FC00000000
FC00000000
F800000000
F803FFFF80
F803FFFF80
F803FFFF80
F803FFFF80
F803FFFF80
F800000F80
FC00000F80
7C00000F80
7E00000F80
7F00000F80
3F80000F80
3FC0000F80
1FFC000F80
0FFFFFFF80
07FFFFFF80
03FFFFFF80
00FFFFFF80
001FFFFF80
ENDCHAR
STARTCHAR gdotaccent
ENCODING 289
SWIDTH 888 0
DWIDTH 37 0
BBX 33 38 2 0
BITMAP
0000700000
0000F00000
0000F00000
0000700000
0000000000
0000000000
0000000000
001FFFFE00
00FFFFFE00
03FFFFFE00
07FFFFFE00
0FFFFFFE00
1FFC000000
3FC0000000
3F80000000
7F00000000
7E00000000
FC00000000
FC00000000
F800000000
F803FFFF80
F803FFFF80
F803FFFF80
F803FFFF80
F803FFFF80
F800000F80
FC00000F80
7C00000F80
7E00000F80
7F00000F80
3F80000F80
3FC0000F80
1FFC000F80
0FFFFFFF80
07FFFFFF80
03FFFFFF80
00FFFFFF80
001FFFFF80
ENDCHAR
STARTCHAR Gcommaaccent
ENCODING 290
SWIDTH 888 0
DWIDTH 37 0
BBX 33 40 2 -9
BITMAP
001FFFFE00
00FFFFFE00
03FFFFFE00
07FFFFFE00
0FFFFFFE00
1FFC000000
3FC0000000
3F80000000
7F00000000
7E00000000
FC00000000
FC00000000
F800000000
F803FFFF80
F803FFFF80
F803FFFF80
F803FFFF80
F803FFFF80
F800000F80
FC00000F80
7C00000F80
7E00000F80
7F00000F80
3F80000F80
3FC0000F80
1FFC000F80
0FFFFFFF80
07FFFFFF80
03FFFFFF80
00FFFFFF80
001FFFFF80
0000000000
0000000000
0003F00000
0001E00000
0001E00000
0000C00000
0000C00000
0000400000
0000400000
ENDCHAR
STARTCHAR gcommaaccent
ENCODING 291
SWIDTH 888 0
DWIDTH 37 0
BBX 33 40 2 -9
BITMAP
001FFFFE00
00FFFFFE00
03FFFFFE00
07FFFFFE00
0FFFFFFE00
1FFC000000
3FC0000000
3F80000000
7F00000000
7E00000000
FC00000000
FC00000000
F800000000
F803FFFF80
F803FFFF80
F803FFFF80
F803FFFF80
F803FFFF80
F800000F80
FC00000F80
7C00000F80
7E00000F80
7F00000F80
3F80000F80
3FC0000F80
1FFC000F80
0FFFFFFF80
07FFFFFF80
03FFFFFF80
00FFFFFF80
001FFFFF80
0000000000
0000000000
0003F00000
0001E00000
0001E00000
0000C00000
0000C00000
0000400000
0000400000
ENDCHAR
STARTCHAR Hbar
ENCODING 294
SWIDTH 838 0
DWIDTH 35 0
BBX 30 31 3 0
BITMAP
F80000FC
F80000FC
F80000FC
F80000FC
F80000FC
F87FFFFC
F87FFFFC
F80000FC
F80000FC
F80000FC
F80000FC
F80000FC
F80000FC
F87FFFFC
F87FFFFC
F87FFFFC
F87FFFFC
F87FFFFC
F80000FC
F80000FC
F80000FC
F80000FC
F80000FC
F80000FC
F80000FC
F80000FC
F80000FC
F80000FC
F80000FC
F80000FC
F80000FC
ENDCHAR
STARTCHAR hbar
ENCODING 295
SWIDTH 838 0
DWIDTH 35 0
BBX 30 31 3 0
BITMAP
F80000FC
F80000FC
F80000FC
F80000FC
F80000FC
F87FFFFC
F87FFFFC
F80000FC
F80000FC
F80000FC
F80000FC
F80000FC
F80000FC
F87FFFFC
F87FFFFC
F87FFFFC
F87FFFFC
F87FFFFC
F80000FC
F80000FC
F80000FC
F80000FC
F80000FC
F80000FC
F80000FC
F80000FC
F80000FC
F80000FC
F80000FC
F80000FC
F80000FC
ENDCHAR
STARTCHAR uni012A
ENCODING 298
SWIDTH 267 0
DWIDTH 11 0
BBX 11 37 0 0
BITMAP
FFE0
FFE0
0000
0000
0000
0000
1F00
1F00
1F00
1F00
1F00
1F00
1F00
1F00
1F00
1F00
1F00
1F00
1F00
1F00
1F00
1F00
1F00
1F00
1F00
1F00
1F00
1F00
1F00
1F00
1F00
1F00
1F00
1F00
1F00
1F00
1F00
ENDCHAR
STARTCHAR imacron
ENCODING 299
SWIDTH 267 0
DWIDTH 11 0
BBX 11 37 0 0
BITMAP
FFE0
FFE0
0000
0000
0000
0000
1F00
1F00
1F00
1F00
1F00
1F00
1F00
1F00
1F00
1F00
1F00
1F00
1F00
1F00
1F00
1F00
1F00
1F00
1F00
1F00
1F00
1F00
1F00
1F00
1F00
1F00
1F00
1F00
1F00
1F00
1F00
ENDCHAR
STARTCHAR Ibreve
ENCODING 300
SWIDTH 267 0
DWIDTH 11 0
BBX 11 39 0 0
BITMAP
E060
E0E0
E0E0
70E0
7FC0
3F80
0000
0000
1F00
1F00
1F00
1F00
1F00
1F00
1F00
1F00
1F00
1F00
1F00
1F00
1F00
1F00
1F00
1F00
1F00
1F00
1F00
1F00
1F00
1F00
1F00
1F00
1F00
1F00
1F00
1F00
1F00
1F00
1F00
ENDCHAR
STARTCHAR ibreve
ENCODING 301
SWIDTH 267 0
DWIDTH 11 0
BBX 11 39 0 0
BITMAP
E060
E0E0
E0E0
70E0
7FC0
3F80
0000
0000
1F00
1F00
1F00
1F00
1F00
1F00
1F00
1F00
1F00
1F00
1F00
1F00
1F00
1F00
1F00
1F00
1F00
1F00
1F00
1F00
1F00
1F00
1F00
1F00
1F00
1F00
1F00
1F00
1F00
1F00
1F00
ENDCHAR
STARTCHAR Iogonek
ENCODING 302
SWIDTH 267 0
DWIDTH 11 0
BBX 8 40 0 -9
BITMAP
1F
1F
1F
1F
1F
1F
1F
1F
1F
1F
1F
1F
1F
1F
1F
1F
1F
1F
1F
1F
1F
1F
1F
1F
1F
1F
1F
1F
1F
1F
1F
07
0C
38
70
70
FF
FF
7F
3F
ENDCHAR
STARTCHAR iogonek
ENCODING 303
SWIDTH 267 0
DWIDTH 11 0
BBX 8 40 0 -9
BITMAP
1F
1F
1F
1F
1F
1F
1F
1F
1F
1F
1F
1F
1F
1F
1F
1F
1F
1F
1F
1F
1F
1F
1F
1F
1F
1F
1F
1F
1F
1F
1F
07
0C
38
70
70
FF
FF
7F
3F
ENDCHAR
STARTCHAR Idotaccent
ENCODING 304
SWIDTH 267 0
DWIDTH 11 0
BBX 5 38 3 0
BITMAP
70
F8
F8
70
00
00
00
F8
F8
F8
F8
F8
F8
F8
F8
F8
F8
F8
F8
F8
F8
F8
F8
F8
F8
F8
F8
F8
F8
F8
F8
F8
F8
F8
F8
F8
F8
F8
ENDCHAR
STARTCHAR dotlessi
ENCODING 305
SWIDTH 267 0
DWIDTH 11 0
BBX 5 31 3 0
BITMAP
F8
F8
F8
F8
F8
F8
F8
F8
F8
F8
F8
F8
F8
F8
F8
F8
F8
F8
F8
F8
F8
F8
F8
F8
F8
F8
F8
F8
F8
F8
F8
ENDCHAR
STARTCHAR IJ
ENCODING 306
SWIDTH 975 0
DWIDTH 41 0
BBX 36 31 3 0
BITMAP
F8000003F0
F8000003F0
F8000003F0
F8000003F0
F8000003F0
F8000003F0
F8000003F0
F8000003F0
F8000003F0
F8000003F0
F8000003F0
F8000003F0
F8000003F0
F8000003F0
F8000003F0
F8000003F0
F8000003F0
F8000003F0
F8000003F0
F8000003F0
F8000003E0
F8000003E0
F8000007E0
F800000FE0
F800001FC0
F80003FFC0
F87FFFFF80
F87FFFFF00
F87FFFFE00
F87FFFF800
F87FFFC000
ENDCHAR
STARTCHAR ij
ENCODING 307
SWIDTH 975 0
DWIDTH 41 0
BBX 36 31 3 0
BITMAP
F8000003F0
F8000003F0
F8000003F0
F8000003F0
F8000003F0
F8000003F0
F8000003F0
F8000003F0
F8000003F0
F8000003F0
F8000003F0
F8000003F0
F8000003F0
F8000003F0
F8000003F0
F8000003F0
F8000003F0
F8000003F0
F8000003F0
F8000003F0
F8000003E0
F8000003E0
F8000007E0
F800000FE0
F800001FC0
F80003FFC0
F87FFFFF80
F87FFFFF00
F87FFFFE00
F87FFFF800
F87FFFC000
ENDCHAR
STARTCHAR Kcommaaccent
ENCODING 310
SWIDTH 875 0
DWIDTH 37 0
BBX 33 40 3 -9
BITMAP
F80001FF00
F80003FC00
F80007F800
F8000FF000
F8003FC000
F8007F8000
F800FF0000
F801FC0000
F807F80000
F80FF00000
F81FC00000
F87F800000
F8FF000000
F9FE000000
F9F8000000
F9F8000000
F9FC000000
F8FE000000
F87F800000
F83FC00000
F80FE00000
F807F80000
F803FC0000
F801FE0000
F8007F8000
F8003FC000
F8001FE000
F8000FF000
F80003FC00
F80001FE00
F80000FF80
0000000000
0000000000
0007C00000
0007C00000
0003800000
0003800000
0003000000
0001000000
0001000000
ENDCHAR
STARTCHAR kcommaaccent
ENCODING 311
SWIDTH 875 0
DWIDTH 37 0
BBX 33 40 3 -9
BITMAP
F80001FF00
F80003FC00
F80007F800
F8000FF000
F8003FC000
F8007F8000
F800FF0000
F801FC0000
F807F80000
F80FF00000
F81FC00000
F87F800000
F8FF000000
F9FE000000
F9F8000000
F9F8000000
F9FC000000
F8FE000000
F87F800000
F83FC00000
F80FE00000
F807F80000
F803FC0000
F801FE0000
F8007F8000
F8003FC000
F8001FE000
F8000FF000
F80003FC00
F80001FE00
F80000FF80
0000000000
0000000000
0007C00000
0007C00000
0003800000
0003800000
0003000000
0001000000
0001000000
ENDCHAR
STARTCHAR Lacute
ENCODING 313
SWIDTH 707 0
DWIDTH 30 0
BBX 28 39 1 0
BITMAP
00200000
01E00000
0FE00000
7FE00000
FE000000
E0000000
00000000
00000000
3E000000
3E000000
3E000000
3E000000
3E000000
3E000000
3E000000
3E000000
3E000000
3E000000
3E000000
3E000000
3E000000
3E000000
3E000000
3E000000
3E000000
3E000000
3E000000
3E000000
3E000000
3E000000
3E000000
3E000000
3E000000
3E000000
3FFFFFF0
3FFFFFF0
3FFFFFF0
3FFFFFF0
3FFFFFF0
ENDCHAR
STARTCHAR lacute
ENCODING 314
SWIDTH 707 0
DWIDTH 30 0
BBX 28 39 1 0
BITMAP
00200000
01E00000
0FE00000
7FE00000
FE000000
E0000000
00000000
00000000
3E000000
3E000000
3E000000
3E000000
3E000000
3E000000
3E000000
3E000000
3E000000
3E000000
3E000000
3E000000
3E000000
3E000000
3E000000
3E000000
3E000000
3E000000
3E000000
3E000000
3E000000
3E000000
3E000000
3E000000
3E000000
3E000000
3FFFFFF0
3FFFFFF0
3FFFFFF0
3FFFFFF0
3FFFFFF0
ENDCHAR
STARTCHAR Lcommaaccent
ENCODING 315
SWIDTH 707 0
DWIDTH 30 0
BBX 26 40 3 -9
BITMAP
F8000000
F8000000
F8000000
F8000000
F8000000
F8000000
F8000000
F8000000
F8000000
F8000000
F8000000
F8000000
F8000000
F8000000
F8000000
F8000000
F8000000
F8000000
F8000000
F8000000
F8000000
F8000000
F8000000
F8000000
F8000000
F8000000
FFFFFFC0
FFFFFFC0
FFFFFFC0
FFFFFFC0
FFFFFFC0
00000000
00000000
003E0000
003E0000
001C0000
001C0000
00080000
00080000
00080000
ENDCHAR
STARTCHAR lcommaaccent
ENCODING 316
SWIDTH 707 0
DWIDTH 30 0
BBX 26 40 3 -9
BITMAP
F8000000
F8000000
F8000000
F8000000
F8000000
F8000000
F8000000
F8000000
F8000000
F8000000
F8000000
F8000000
F8000000
F8000000
F8000000
F8000000
F8000000
F8000000
F8000000
F8000000
F8000000
F8000000
F8000000
F8000000
F8000000
F8000000
FFFFFFC0
FFFFFFC0
FFFFFFC0
FFFFFFC0
FFFFFFC0
00000000
00000000
003E0000
003E0000
001C0000
001C0000
00080000
00080000
00080000
ENDCHAR
STARTCHAR Lcaron
ENCODING 317
SWIDTH 707 0
DWIDTH 30 0
BBX 26 31 3 0
BITMAP
F83E0000
F83E0000
F83E0000
F83E0000
F83E0000
F83C0000
F83C0000
F83C0000
F83C0000
F83C0000
F8380000
F8000000
F8000000
F8000000
F8000000
F8000000
F8000000
F8000000
F8000000
F8000000
F8000000
F8000000
F8000000
F8000000
F8000000
F8000000
FFFFFFC0
FFFFFFC0
FFFFFFC0
FFFFFFC0
FFFFFFC0
ENDCHAR
STARTCHAR lcaron
ENCODING 318
SWIDTH 707 0
DWIDTH 30 0
BBX 26 31 3 0
BITMAP
F83E0000
F83E0000
F83E0000
F83E0000
F83E0000
F83C0000
F83C0000
F83C0000
F83C0000
F83C0000
F8380000
F8000000
F8000000
F8000000
F8000000
F8000000
F8000000
F8000000
F8000000
F8000000
F8000000
F8000000
F8000000
F8000000
F8000000
F8000000
FFFFFFC0
FFFFFFC0
FFFFFFC0
FFFFFFC0
FFFFFFC0
ENDCHAR
STARTCHAR Ldot
ENCODING 319
SWIDTH 707 0
DWIDTH 30 0
BBX 26 31 3 0
BITMAP
F8000000
F8000000
F8000000
F8000000
F8000000
F8000000
F8000000
F8000000
F8000000
F8000000
F8000000
F8000000
F8000000
F8780000
F8780000
F8780000
F8300000
F8000000
F8000000
F8000000
F8000000
F8000000
F8000000
F8000000
F8000000
F8000000
FFFFFFC0
FFFFFFC0
FFFFFFC0
FFFFFFC0
FFFFFFC0
ENDCHAR
STARTCHAR ldot
ENCODING 320
SWIDTH 707 0
DWIDTH 30 0
BBX 26 31 3 0
BITMAP
F8000000
F8000000
F8000000
F8000000
F8000000
F8000000
F8000000
F8000000
F8000000
F8000000
F8000000
F8000000
F8000000
F8780000
F8780000
F8780000
F8300000
F8000000
F8000000
F8000000
F8000000
F8000000
F8000000
F8000000
F8000000
F8000000
FFFFFFC0
FFFFFFC0
FFFFFFC0
FFFFFFC0
FFFFFFC0
ENDCHAR
STARTCHAR Lslash
ENCODING 321
SWIDTH 707 0
DWIDTH 30 0
BBX 26 31 3 0
BITMAP
F8000000
F8000000
F8000000
F8000000
F8000000
F8000000
F8000000
F8000000
F8000000
F8010000
F8070000
F83F0000
F8FF0000
FBFF0000
FFFC0000
FFF00000
FFC00000
FE000000
F8000000
F8000000
F8000000
F8000000
F8000000
F8000000
F8000000
F8000000
FFFFFFC0
FFFFFFC0
FFFFFFC0
FFFFFFC0
FFFFFFC0
ENDCHAR
STARTCHAR lslash
ENCODING 322
SWIDTH 707 0
DWIDTH 30 0
BBX 26 31 3 0
BITMAP
F8000000
F8000000
F8000000
F8000000
F8000000
F8000000
F8000000
F8000000
F8000000
F8010000
F8070000
F83F0000
F8FF0000
FBFF0000
FFFC0000
FFF00000
FFC00000
FE000000
F8000000
F8000000
F8000000
F8000000
F8000000
F8000000
F8000000
F8000000
FFFFFFC0
FFFFFFC0
FFFFFFC0
FFFFFFC0
FFFFFFC0
ENDCHAR
STARTCHAR Nacute
ENCODING 323
SWIDTH 873 0
DWIDTH 37 0
BBX 31 39 3 0
BITMAP
00000400
00003C00
0001FC00
000FFC00
001FE000
001C0000
00000000
00000000
7000003E
F800003E
FC00003E
FE00003E
FF00003E
FF80003E
FFC0003E
FFE0003E
FFF0003E
FFF8003E
FBFC003E
F9FE003E
F8FF003E
F87F803E
F83FC03E
F81FE03E
F807F03E
F803F83E
F801FC3E
F800FE3E
F8007F3E
F8003FBE
F8001FFE
F8000FFE
F80007FE
F80003FE
F80001FE
F80000FE
F800007E
F800003E
F800001C
ENDCHAR
STARTCHAR nacute
ENCODING 324
SWIDTH 873 0
DWIDTH 37 0
BBX 31 39 3 0
BITMAP
00000400
00003C00
0001FC00
000FFC00
001FE000
001C0000
00000000
00000000
7000003E
F800003E
FC00003E
FE00003E
FF00003E
FF80003E
FFC0003E
FFE0003E
FFF0003E
FFF8003E
FBFC003E
F9FE003E
F8FF003E
F87F803E
F83FC03E
F81FE03E
F807F03E
F803F83E
F801FC3E
F800FE3E
F8007F3E
F8003FBE
F8001FFE
F8000FFE
F80007FE
F80003FE
F80001FE
F80000FE
F800007E
F800003E
F800001C
ENDCHAR
STARTCHAR Ncommaaccent
ENCODING 325
SWIDTH 873 0
DWIDTH 37 0
BBX 31 40 3 -9
BITMAP
7000003E
F800003E
FC00003E
FE00003E
FF00003E
FF80003E
FFC0003E
FFE0003E
FFF0003E
FFF8003E
FBFC003E
F9FE003E
F8FF003E
F87F803E
F83FC03E
F81FE03E
F807F03E
F803F83E
F801FC3E
F800FE3E
F8007F3E
F8003FBE
F8001FFE
F8000FFE
F80007FE
F80003FE
F80001FE
F80000FE
F800007E
F800003E
F800001C
00000000
00000000
0007C000
00078000
00038000
00038000
00030000
00010000
00010000
ENDCHAR
STARTCHAR ncommaaccent
ENCODING 326
SWIDTH 873 0
DWIDTH 37 0
BBX 31 40 3 -9
BITMAP
7000003E
F800003E
FC00003E
FE00003E
FF00003E
FF80003E
FFC0003E
FFE0003E
FFF0003E
FFF8003E
FBFC003E
F9FE003E
F8FF003E
F87F803E
F83FC03E
F81FE03E
F807F03E
F803F83E
F801FC3E
F800FE3E
F8007F3E
F8003FBE
F8001FFE
F8000FFE
F80007FE
F80003FE
F80001FE
F80000FE
F800007E
F800003E
F800001C
00000000
00000000
0007C000
00078000
00038000
00038000
00030000
00010000
00010000
ENDCHAR
STARTCHAR Ncaron
ENCODING 327
SWIDTH 873 0
DWIDTH 37 0
BBX 31 39 3 0
BITMAP
00383800
00387000
001C7000
000EE000
000FC000
0007C000
00000000
00000000
7000003E
F800003E
FC00003E
FE00003E
FF00003E
FF80003E
FFC0003E
FFE0003E
FFF0003E
FFF8003E
FBFC003E
F9FE003E
F8FF003E
F87F803E
F83FC03E
F81FE03E
F807F03E
F803F83E
F801FC3E
F800FE3E
F8007F3E
F8003FBE
F8001FFE
F8000FFE
F80007FE
F80003FE
F80001FE
F80000FE
F800007E
F800003E
F800001C
ENDCHAR
STARTCHAR ncaron
ENCODING 328
SWIDTH 873 0
DWIDTH 37 0
BBX 31 39 3 0
BITMAP
00383800
00387000
001C7000
000EE000
000FC000
0007C000
00000000
00000000
7000003E
F800003E
FC00003E
FE00003E
FF00003E
FF80003E
FFC0003E
FFE0003E
FFF0003E
FFF8003E
FBFC003E
F9FE003E
F8FF003E
F87F803E
F83FC03E
F81FE03E
F807F03E
F803F83E
F801FC3E
F800FE3E
F8007F3E
F8003FBE
F8001FFE
F8000FFE
F80007FE
F80003FE
F80001FE
F80000FE
F800007E
F800003E
F800001C
ENDCHAR
STARTCHAR Eng
ENCODING 330
SWIDTH 873 0
DWIDTH 37 0
BBX 31 39 3 -8
BITMAP
7000003E
F800003E
FC00003E
FE00003E
FF00003E
FF80003E
FFC0003E
FFE0003E
FFF0003E
FFF8003E
FBFC003E
F9FE003E
F8FF003E
F87F803E
F83FC03E
F81FE03E
F80FF03E
F807F83E
F803FC3E
F801FE3E
F800FF3E
F8007FBE
F8003FFE
F8001FFE
F8000FFE
F80007FE
F80003FE
F80001FE
F80000FE
F800007E
F800007E
000000FE
000001FC
00000FFC
000FFFF8
000FFFF0
000FFFE0
000FFF80
000FFE00
ENDCHAR
STARTCHAR eng
ENCODING 331
SWIDTH 873 0
DWIDTH 37 0
BBX 31 39 3 -8
BITMAP
7000003E
F800003E
FC00003E
FE00003E
FF00003E
FF80003E
FFC0003E
FFE0003E
FFF0003E
FFF8003E
FBFC003E
F9FE003E
F8FF003E
F87F803E
F83FC03E
F81FE03E
F80FF03E
F807F83E
F803FC3E
F801FE3E
F800FF3E
F8007FBE
F8003FFE
F8001FFE
F8000FFE
F80007FE
F80003FE
F80001FE
F80000FE
F800007E
F800007E
000000FE
000001FC
00000FFC
000FFFF8
000FFFF0
000FFFE0
000FFF80
000FFE00
ENDCHAR
STARTCHAR Omacron
ENCODING 332
SWIDTH 968 0
DWIDTH 41 0
BBX 37 37 2 0
BITMAP
0007FF0000
0007FF0000
0000000000
0000000000
0000000000
0000000000
001FFFC000
00FFFFF800
03FFFFFE00
07FFFFFF00
0FFFFFFF80
1FFC01FFC0
3FC0001FE0
3F80000FE0
7F000007F0
7E000003F0
FC000001F0
FC000001F8
F8000001F8
F8000001F8
F8000000F8
F8000000F8
F8000000F8
F8000001F8
F8000001F8
FC000001F0
7C000003F0
7E000003F0
7F000007E0
3F80000FE0
3FC0001FC0
1FFC01FFC0
0FFFFFFF80
07FFFFFF00
03FFFFFC00
00FFFFF800
001FFFC000
ENDCHAR
STARTCHAR omacron
ENCODING 333
SWIDTH 968 0
DWIDTH 41 0
BBX 37 37 2 0
BITMAP
0007FF0000
0007FF0000
0000000000
0000000000
0000000000
0000000000
001FFFC000
00FFFFF800
03FFFFFE00
07FFFFFF00
0FFFFFFF80
1FFC01FFC0
3FC0001FE0
3F80000FE0
7F000007F0
7E000003F0
FC000001F0
FC000001F8
F8000001F8
F8000001F8
F8000000F8
F8000000F8
F8000000F8
F8000001F8
F8000001F8
FC000001F0
7C000003F0
7E000003F0
7F000007E0
3F80000FE0
3FC0001FC0
1FFC01FFC0
0FFFFFFF80
07FFFFFF00
03FFFFFC00
00FFFFF800
001FFFC000
ENDCHAR
STARTCHAR Obreve
ENCODING 334
SWIDTH 968 0
DWIDTH 41 0
BBX 37 39 2 0
BITMAP
0006070000
0006070000
0007070000
00070E0000
0003FE0000
0001F80000
0000000000
0000000000
001FFFC000
00FFFFF800
03FFFFFE00
07FFFFFF00
0FFFFFFF80
1FFC01FFC0
3FC0001FE0
3F80000FE0
7F000007F0
7E000003F0
FC000001F0
FC000001F8
F8000001F8
F8000001F8
F8000000F8
F8000000F8
F8000000F8
F8000001F8
F8000001F8
FC000001F0
7C000003F0
7E000003F0
7F000007E0
3F80000FE0
3FC0001FC0
1FFC01FFC0
0FFFFFFF80
07FFFFFF00
03FFFFFC00
00FFFFF800
001FFFC000
ENDCHAR
STARTCHAR obreve
ENCODING 335
SWIDTH 968 0
DWIDTH 41 0
BBX 37 39 2 0
BITMAP
0006070000
0006070000
0007070000
00070E0000
0003FE0000
0001F80000
0000000000
0000000000
001FFFC000
00FFFFF800
03FFFFFE00
07FFFFFF00
0FFFFFFF80
1FFC01FFC0
3FC0001FE0
3F80000FE0
7F000007F0
7E000003F0
FC000001F0
FC000001F8
F8000001F8
F8000001F8
F8000000F8
F8000000F8
F8000000F8
F8000001F8
F8000001F8
FC000001F0
7C000003F0
7E000003F0
7F000007E0
3F80000FE0
3FC0001FC0
1FFC01FFC0
0FFFFFFF80
07FFFFFF00
03FFFFFC00
00FFFFF800
001FFFC000
ENDCHAR
STARTCHAR Ohungarumlaut
ENCODING 336
SWIDTH 968 0
DWIDTH 41 0
BBX 37 38 2 0
BITMAP
0001E3C000
0001C38000
0001870000
0003870000
00030E0000
0000000000
0000000000
001FFFC000
00FFFFF800
03FFFFFE00
07FFFFFF00
0FFFFFFF80
1FFC01FFC0
3FC0001FE0
3F80000FE0
7F000007F0
7E000003F0
FC000001F0
FC000001F8
F8000001F8
F8000001F8
F8000000F8
F8000000F8
F8000000F8
F8000001F8
F8000001F8
FC000001F0
7C000003F0
7E000003F0
7F000007E0
3F80000FE0
3FC0001FC0
1FFC01FFC0
0FFFFFFF80
07FFFFFF00
03FFFFFC00
00FFFFF800
001FFFC000
ENDCHAR
STARTCHAR ohungarumlaut
ENCODING 337
SWIDTH 968 0
DWIDTH 41 0
BBX 37 38 2 0
BITMAP
0001E3C000
0001C38000
0001870000
0003870000
00030E0000
0000000000
0000000000
001FFFC000
00FFFFF800
03FFFFFE00
07FFFFFF00
0FFFFFFF80
1FFC01FFC0
3FC0001FE0
3F80000FE0
7F000007F0
7E000003F0
FC000001F0
FC000001F8
F8000001F8
F8000001F8
F8000000F8
F8000000F8
F8000000F8
F8000001F8
F8000001F8
FC000001F0
7C000003F0
7E000003F0
7F000007E0
3F80000FE0
3FC0001FC0
1FFC01FFC0
0FFFFFFF80
07FFFFFF00
03FFFFFC00
00FFFFF800
001FFFC000
ENDCHAR
STARTCHAR OE
ENCODING 338
SWIDTH 1304 0
DWIDTH 55 0
BBX 51 31 2 0
BITMAP
001FFFFFFFFFE0
00FFFFFFFFFFE0
03FFFFFFFFFFE0
07FFFFFFFFFFE0
0FFFFFFFFFFFE0
1FFC007C000000
3FC0007C000000
3F80007C000000
7F00007C000000
7E00007C000000
FC00007C000000
FC00007C000000
F800007C000000
F800007C3FFFC0
F800007C3FFFC0
F800007C3FFFC0
F800007C3FFFC0
F800007C3FFFC0
F800007C000000
FC00007C000000
7C00007C000000
7E00007C000000
7F00007C000000
3F80007C000000
3FC0007C000000
1FFC007C000000
0FFFFFFFFFFFE0
07FFFFFFFFFFE0
03FFFFFFFFFFE0
00FFFFFFFFFFE0
001FFFFFFFFFE0
ENDCHAR
STARTCHAR oe
ENCODING 339
SWIDTH 1304 0
DWIDTH 55 0
BBX 51 31 2 0
BITMAP
001FFFFFFFFFE0
00FFFFFFFFFFE0
03FFFFFFFFFFE0
07FFFFFFFFFFE0
0FFFFFFFFFFFE0
1FFC007C000000
3FC0007C000000
3F80007C000000
7F00007C000000
7E00007C000000
FC00007C000000
FC00007C000000
F800007C000000
F800007C3FFFC0
F800007C3FFFC0
F800007C3FFFC0
F800007C3FFFC0
F800007C3FFFC0
F800007C000000
FC00007C000000
7C00007C000000
7E00007C000000
7F00007C000000
3F80007C000000
3FC0007C000000
1FFC007C000000
0FFFFFFFFFFFE0
07FFFFFFFFFFE0
03FFFFFFFFFFE0
00FFFFFFFFFFE0
001FFFFFFFFFE0
ENDCHAR
STARTCHAR Racute
ENCODING 340
SWIDTH 921 0
DWIDTH 39 0
BBX 36 39 3 0
BITMAP
0000040000
0000380000
0003F80000
001FF80000
001FC00000
0018000000
0000000000
0000000000
FFFFFF8000
FFFFFFF000
FFFFFFF800
FFFFFFFC00
FFFFFFFE00
F80003FE00
F800007F00
F800003F00
F800001F00
F800001F80
F800001F80
F800001F80
F800001F80
F800001F80
F800001F00
F800001F00
F800003F00
F80000FE00
F87FFFFE00
F87FFFFC00
F87FFFF800
F87FFFF000
F87FFFE000
F80007F000
F80003F800
F80001FC00
F80000FE00
F800007F00
F800003F80
F800001FC0
F800000FF0
ENDCHAR
STARTCHAR racute
ENCODING 341
SWIDTH 921 0
DWIDTH 39 0
BBX 36 39 3 0
BITMAP
0000040000
0000380000
0003F80000
001FF80000
001FC00000
0018000000
0000000000
0000000000
FFFFFF8000
FFFFFFF000
FFFFFFF800
FFFFFFFC00
FFFFFFFE00
F80003FE00
F800007F00
F800003F00
F800001F00
F800001F80
F800001F80
F800001F80
F800001F80
F800001F80
F800001F00
F800001F00
F800003F00
F80000FE00
F87FFFFE00
F87FFFFC00
F87FFFF800
F87FFFF000
F87FFFE000
F80007F000
F80003F800
F80001FC00
F80000FE00
F800007F00
F800003F80
F800001FC0
F800000FF0
ENDCHAR
STARTCHAR Rcommaaccent
ENCODING 342
SWIDTH 921 0
DWIDTH 39 0
BBX 36 40 3 -9
BITMAP
FFFFFF8000
FFFFFFF000
FFFFFFF800
FFFFFFFC00
FFFFFFFE00
F80003FE00
F800007F00
F800003F00
F800001F00
F800001F80
F800001F80
F800001F80
F800001F80
F800001F80
F800001F00
F800001F00
F800003F00
F80000FE00
F87FFFFE00
F87FFFFC00
F87FFFF800
F87FFFF000
F87FFFE000
F80007F000
F80003F800
F80001FC00
F80000FE00
F800007F00
F800003F80
F800001FC0
F800000FF0
0000000000
0000000000
0003E00000
0003C00000
0001C00000
0001C00000
0001800000
0000800000
0000800000
ENDCHAR
STARTCHAR rcommaaccent
ENCODING 343
SWIDTH 921 0
DWIDTH 39 0
BBX 36 40 3 -9
BITMAP
FFFFFF8000
FFFFFFF000
FFFFFFF800
FFFFFFFC00
FFFFFFFE00
F80003FE00
F800007F00
F800003F00
F800001F00
F800001F80
F800001F80
F800001F80
F800001F80
F800001F80
F800001F00
F800001F00
F800003F00
F80000FE00
F87FFFFE00
F87FFFFC00
F87FFFF800
F87FFFF000
F87FFFE000
F80007F000
F80003F800
F80001FC00
F80000FE00
F800007F00
F800003F80
F800001FC0
F800000FF0
0000000000
0000000000
0003E00000
0003C00000
0001C00000
0001C00000
0001800000
0000800000
0000800000
ENDCHAR
STARTCHAR Rcaron
ENCODING 344
SWIDTH 921 0
DWIDTH 39 0
BBX 36 39 3 0
BITMAP
0070700000
0038700000
0038E00000
001DC00000
000FC00000
000F800000
0000000000
0000000000
FFFFFF8000
FFFFFFF000
FFFFFFF800
FFFFFFFC00
FFFFFFFE00
F80003FE00
F800007F00
F800003F00
F800001F00
F800001F80
F800001F80
F800001F80
F800001F80
F800001F80
F800001F00
F800001F00
F800003F00
F80000FE00
F87FFFFE00
F87FFFFC00
F87FFFF800
F87FFFF000
F87FFFE000
F80007F000
F80003F800
F80001FC00
F80000FE00
F800007F00
F800003F80
F800001FC0
F800000FF0
ENDCHAR
STARTCHAR rcaron
ENCODING 345
SWIDTH 921 0
DWIDTH 39 0
BBX 36 39 3 0
BITMAP
0070700000
0038700000
0038E00000
001DC00000
000FC00000
000F800000
0000000000
0000000000
FFFFFF8000
FFFFFFF000
FFFFFFF800
FFFFFFFC00
FFFFFFFE00
F80003FE00
F800007F00
F800003F00
F800001F00
F800001F80
F800001F80
F800001F80
F800001F80
F800001F80
F800001F00
F800001F00
F800003F00
F80000FE00
F87FFFFE00
F87FFFFC00
F87FFFF800
F87FFFF000
F87FFFE000
F80007F000
F80003F800
F80001FC00
F80000FE00
F800007F00
F800003F80
F800001FC0
F800000FF0
ENDCHAR
STARTCHAR Sacute
ENCODING 346
SWIDTH 880 0
DWIDTH 37 0
BBX 33 39 2 0
BITMAP
0000020000
00001E0000
0000FE0000
0007FE0000
000FF00000
000E000000
0000000000
0000000000
03FFFFFF00
0FFFFFFF00
1FFFFFFF00
3FFFFFFF00
7FFFFFFF00
7F80000000
FE00000000
FC00000000
FC00000000
FC00000000
FC00000000
FC00000000
7E00000000
7FFFFFE000
3FFFFFFC00
1FFFFFFE00
0FFFFFFF00
03FFFFFF00
0000003F80
0000001F80
0000000F80
0000000F80
0000000F80
0000000F80
0000001F80
000000FF00
7FFFFFFF00
7FFFFFFE00
7FFFFFFE00
7FFFFFF800
7FFFFFE000
ENDCHAR
STARTCHAR sacute
ENCODING 347
SWIDTH 880 0
DWIDTH 37 0
BBX 33 39 2 0
BITMAP
0000020000
00001E0000
0000FE0000
0007FE0000
000FF00000
000E000000
0000000000
0000000000
03FFFFFF00
0FFFFFFF00
1FFFFFFF00
3FFFFFFF00
7FFFFFFF00
7F80000000
FE00000000
FC00000000
FC00000000
FC00000000
FC00000000
FC00000000
7E00000000
7FFFFFE000
3FFFFFFC00
1FFFFFFE00
0FFFFFFF00
03FFFFFF00
0000003F80
0000001F80
0000000F80
0000000F80
0000000F80
0000000F80
0000001F80
000000FF00
7FFFFFFF00
7FFFFFFE00
7FFFFFFE00
7FFFFFF800
7FFFFFE000
ENDCHAR
STARTCHAR Scedilla
ENCODING 350
SWIDTH 880 0
DWIDTH 37 0
BBX 33 40 2 -9
BITMAP
03FFFFFF00
0FFFFFFF00
1FFFFFFF00
3FFFFFFF00
7FFFFFFF00
7F80000000
FE00000000
FC00000000
FC00000000
FC00000000
FC00000000
FC00000000
7E00000000
7FFFFFE000
3FFFFFFC00
1FFFFFFE00
0FFFFFFF00
03FFFFFF00
0000003F80
0000001F80
0000000F80
0000000F80
0000000F80
0000000F80
0000001F80
000000FF00
7FFFFFFF00
7FFFFFFE00
7FFFFFFE00
7FFFFFF800
7FFFFFE000
0000000000
0000000000
0003E00000
0003E00000
0001C00000
0001C00000
0000800000
0000800000
0000800000
ENDCHAR
STARTCHAR scedilla
ENCODING 351
SWIDTH 880 0
DWIDTH 37 0
BBX 33 40 2 -9
BITMAP
03FFFFFF00
0FFFFFFF00
1FFFFFFF00
3FFFFFFF00
7FFFFFFF00
7F80000000
FE00000000
FC00000000
FC00000000
FC00000000
FC00000000
FC00000000
7E00000000
7FFFFFE000
3FFFFFFC00
1FFFFFFE00
0FFFFFFF00
03FFFFFF00
0000003F80
0000001F80
0000000F80
0000000F80
0000000F80
0000000F80
0000001F80
000000FF00
7FFFFFFF00
7FFFFFFE00
7FFFFFFE00
7FFFFFF800
7FFFFFE000
0000000000
0000000000
0003E00000
0003E00000
0001C00000
0001C00000
0000800000
0000800000
0000800000
ENDCHAR
STARTCHAR Scaron
ENCODING 352
SWIDTH 880 0
DWIDTH 37 0
BBX 33 39 2 0
BITMAP
001C0E0000
000E1C0000
0007380000
0007780000
0003F00000
0001E00000
0000000000
0000000000
03FFFFFF00
0FFFFFFF00
1FFFFFFF00
3FFFFFFF00
7FFFFFFF00
7F80000000
FE00000000
FC00000000
FC00000000
FC00000000
FC00000000
FC00000000
7E00000000
7FFFFFE000
3FFFFFFC00
1FFFFFFE00
0FFFFFFF00
03FFFFFF00
0000003F80
0000001F80
0000000F80
0000000F80
0000000F80
0000000F80
0000001F80
000000FF00
7FFFFFFF00
7FFFFFFE00
7FFFFFFE00
7FFFFFF800
7FFFFFE000
ENDCHAR
STARTCHAR scaron
ENCODING 353
SWIDTH 880 0
DWIDTH 37 0
BBX 33 39 2 0
BITMAP
001C0E0000
000E1C0000
0007380000
0007780000
0003F00000
0001E00000
0000000000
0000000000
03FFFFFF00
0FFFFFFF00
1FFFFFFF00
3FFFFFFF00
7FFFFFFF00
7F80000000
FE00000000
FC00000000
FC00000000
FC00000000
FC00000000
FC00000000
7E00000000
7FFFFFE000
3FFFFFFC00
1FFFFFFE00
0FFFFFFF00
03FFFFFF00
0000003F80
0000001F80
0000000F80
0000000F80
0000000F80
0000000F80
0000001F80
000000FF00
7FFFFFFF00
7FFFFFFE00
7FFFFFFE00
7FFFFFF800
7FFFFFE000
ENDCHAR
STARTCHAR Tcommaaccent
ENCODING 354
SWIDTH 720 0
DWIDTH 30 0
BBX 28 40 1 -9
BITMAP
FFFFFFF0
FFFFFFF0
FFFFFFF0
FFFFFFF0
FFFFFFF0
001F8000
001F8000
001F8000
001F8000
001F8000
001F8000
001F8000
001F8000
001F8000
001F8000
001F8000
001F8000
001F8000
001F8000
001F8000
001F8000
001F8000
001F8000
001F8000
001F8000
001F8000
001F8000
001F8000
001F8000
001F8000
001F8000
00000000
00000000
001F8000
000F0000
000F0000
00060000
00060000
00020000
00020000
ENDCHAR
STARTCHAR tcommaaccent
ENCODING 355
SWIDTH 720 0
DWIDTH 30 0
BBX 28 40 1 -9
BITMAP
FFFFFFF0
FFFFFFF0
FFFFFFF0
FFFFFFF0
FFFFFFF0
001F8000
001F8000
001F8000
001F8000
001F8000
001F8000
001F8000
001F8000
001F8000
001F8000
001F8000
001F8000
001F8000
001F8000
001F8000
001F8000
001F8000
001F8000
001F8000
001F8000
001F8000
001F8000
001F8000
001F8000
001F8000
001F8000
00000000
00000000
001F8000
000F0000
000F0000
00060000
00060000
00020000
00020000
ENDCHAR
STARTCHAR Tcaron
ENCODING 356
SWIDTH 720 0
DWIDTH 30 0
BBX 28 39 1 0
BITMAP
00E07000
0070E000
0039C000
0039C000
001F8000
000F0000
00000000
00000000
FFFFFFF0
FFFFFFF0
FFFFFFF0
FFFFFFF0
FFFFFFF0
001F8000
001F8000
001F8000
001F8000
001F8000
001F8000
001F8000
001F8000
001F8000
001F8000
001F8000
001F8000
001F8000
001F8000
001F8000
001F8000
001F8000
001F8000
001F8000
001F8000
001F8000
001F8000
001F8000
001F8000
001F8000
001F8000
ENDCHAR
STARTCHAR tcaron
ENCODING 357
SWIDTH 720 0
DWIDTH 30 0
BBX 28 39 1 0
BITMAP
00E07000
0070E000
0039C000
0039C000
001F8000
000F0000
00000000
00000000
FFFFFFF0
FFFFFFF0
FFFFFFF0
FFFFFFF0
FFFFFFF0
001F8000
001F8000
001F8000
001F8000
001F8000
001F8000
001F8000
001F8000
001F8000
001F8000
001F8000
001F8000
001F8000
001F8000
001F8000
001F8000
001F8000
001F8000
001F8000
001F8000
001F8000
001F8000
001F8000
001F8000
001F8000
001F8000
ENDCHAR
STARTCHAR Tbar
ENCODING 358
SWIDTH 720 0
DWIDTH 30 0
BBX 28 31 1 0
BITMAP
FFFFFFF0
FFFFFFF0
FFFFFFF0
FFFFFFF0
FFFFFFF0
001F8000
001F8000
001F8000
001F8000
001F8000
001F8000
001F8000
001F8000
001F8000
001F8000
001F8000
01FFFC00
01FFFC00
01FFFC00
01FFFC00
001F8000
001F8000
001F8000
001F8000
001F8000
001F8000
001F8000
001F8000
001F8000
001F8000
001F8000
ENDCHAR
STARTCHAR tbar
ENCODING 359
SWIDTH 720 0
DWIDTH 30 0
BBX 28 31 1 0
BITMAP
FFFFFFF0
FFFFFFF0
FFFFFFF0
FFFFFFF0
FFFFFFF0
001F8000
001F8000
001F8000
001F8000
001F8000
001F8000
001F8000
001F8000
001F8000
001F8000
001F8000
01FFFC00
01FFFC00
01FFFC00
01FFFC00
001F8000
001F8000
001F8000
001F8000
001F8000
001F8000
001F8000
001F8000
001F8000
001F8000
001F8000
ENDCHAR
STARTCHAR Utilde
ENCODING 360
SWIDTH 889 0
DWIDTH 37 0
BBX 33 38 2 0
BITMAP
000F040000
001FC40000
0019FC0000
0010780000
0000000000
0000000000
0000000000
FC00000F80
FC00000F80
FC00000F80
FC00000F80
FC00000F80
FC00000F80
FC00000F80
FC00000F80
FC00000F80
FC00000F80
FC00000F80
FC00000F80
FC00000F80
FC00000F80
FC00000F80
FC00000F80
FC00000F80
FC00000F80
FC00000F80
FC00000F80
FC00001F80
7C00001F80
7E00001F00
7F00003F00
3FC000FF00
3FFF3FFE00
1FFFFFFC00
0FFFFFF800
07FFFFF000
01FFFFC000
001FFE0000
ENDCHAR
STARTCHAR utilde
ENCODING 361
SWIDTH 889 0
DWIDTH 37 0
BBX 33 38 2 0
BITMAP
000F040000
001FC40000
0019FC0000
0010780000
0000000000
0000000000
0000000000
FC00000F80
FC00000F80
FC00000F80
FC00000F80
FC00000F80
FC00000F80
FC00000F80
FC00000F80
FC00000F80
FC00000F80
FC00000F80
FC00000F80
FC00000F80
FC00000F80
FC00000F80
FC00000F80
FC00000F80
FC00000F80
FC00000F80
FC00000F80
FC00001F80
7C00001F80
7E00001F00
7F00003F00
3FC000FF00
3FFF3FFE00
1FFFFFFC00
0FFFFFF800
07FFFFF000
01FFFFC000
001FFE0000
ENDCHAR
STARTCHAR Umacron
ENCODING 362
SWIDTH 889 0
DWIDTH 37 0
BBX 33 37 2 0
BITMAP
001FFC0000
001FFC0000
0000000000
0000000000
0000000000
0000000000
FC00000F80
FC00000F80
FC00000F80
FC00000F80
FC00000F80
FC00000F80
FC00000F80
FC00000F80
FC00000F80
FC00000F80
FC00000F80
FC00000F80
FC00000F80
FC00000F80
FC00000F80
FC00000F80
FC00000F80
FC00000F80
FC00000F80
FC00000F80
FC00001F80
7C00001F80
7E00001F00
7F00003F00
3FC000FF00
3FFF3FFE00
1FFFFFFC00
0FFFFFF800
07FFFFF000
01FFFFC000
001FFE0000
ENDCHAR
STARTCHAR umacron
ENCODING 363
SWIDTH 889 0
DWIDTH 37 0
BBX 33 37 2 0
BITMAP
001FFC0000
001FFC0000
0000000000
0000000000
0000000000
0000000000
FC00000F80
FC00000F80
FC00000F80
FC00000F80
FC00000F80
FC00000F80
FC00000F80
FC00000F80
FC00000F80
FC00000F80
FC00000F80
FC00000F80
FC00000F80
FC00000F80
FC00000F80
FC00000F80
FC00000F80
FC00000F80
FC00000F80
FC00000F80
FC00001F80
7C00001F80
7E00001F00
7F00003F00
3FC000FF00
3FFF3FFE00
1FFFFFFC00
0FFFFFF800
07FFFFF000
01FFFFC000
001FFE0000
ENDCHAR
STARTCHAR Ubreve
ENCODING 364
SWIDTH 889 0
DWIDTH 37 0
BBX 33 39 2 0
BITMAP
001C0C0000
001C1C0000
001C1C0000
000E1C0000
000FF80000
0003F00000
0000000000
0000000000
FC00000F80
FC00000F80
FC00000F80
FC00000F80
FC00000F80
FC00000F80
FC00000F80
FC00000F80
FC00000F80
FC00000F80
FC00000F80
FC00000F80
FC00000F80
FC00000F80
FC00000F80
FC00000F80
FC00000F80
FC00000F80
FC00000F80
FC00000F80
FC00001F80
7C00001F80
7E00001F00
7F00003F00
3FC000FF00
3FFF3FFE00
1FFFFFFC00
0FFFFFF800
07FFFFF000
01FFFFC000
001FFE0000
ENDCHAR
STARTCHAR ubreve
ENCODING 365
SWIDTH 889 0
DWIDTH 37 0
BBX 33 39 2 0
BITMAP
001C0C0000
001C1C0000
001C1C0000
000E1C0000
000FF80000
0003F00000
0000000000
0000000000
FC00000F80
FC00000F80
FC00000F80
FC00000F80
FC00000F80
FC00000F80
FC00000F80
FC00000F80
FC00000F80
FC00000F80
FC00000F80
FC00000F80
FC00000F80
FC00000F80
FC00000F80
FC00000F80
FC00000F80
FC00000F80
FC00000F80
FC00000F80
FC00001F80
7C00001F80
7E00001F00
7F00003F00
3FC000FF00
3FFF3FFE00
1FFFFFFC00
0FFFFFF800
07FFFFF000
01FFFFC000
001FFE0000
ENDCHAR
STARTCHAR Uring
ENCODING 366
SWIDTH 889 0
DWIDTH 37 0
BBX 33 42 2 0
BITMAP
0003F00000
000FF80000
000C1C0000
00180C0000
00180C0000
00180C0000
000C0C0000
000FF80000
0003F00000
0000000000
0000000000
FC00000F80
FC00000F80
FC00000F80
FC00000F80
FC00000F80
FC00000F80
FC00000F80
FC00000F80
FC00000F80
FC00000F80
FC00000F80
FC00000F80
FC00000F80
FC00000F80
FC00000F80
FC00000F80
FC00000F80
FC00000F80
FC00000F80
FC00000F80
FC00001F80
7C00001F80
7E00001F00
7F00003F00
3FC000FF00
3FFF3FFE00
1FFFFFFC00
0FFFFFF800
07FFFFF000
01FFFFC000
001FFE0000
ENDCHAR
STARTCHAR uring
ENCODING 367
SWIDTH 889 0
DWIDTH 37 0
BBX 33 42 2 0
BITMAP
0003F00000
000FF80000
000C1C0000
00180C0000
00180C0000
00180C0000
000C0C0000
000FF80000
0003F00000
0000000000
0000000000
FC00000F80
FC00000F80
FC00000F80
FC00000F80
FC00000F80
FC00000F80
FC00000F80
FC00000F80
FC00000F80
FC00000F80
FC00000F80
FC00000F80
FC00000F80
FC00000F80
FC00000F80
FC00000F80
FC00000F80
FC00000F80
FC00000F80
FC00000F80
FC00001F80
7C00001F80
7E00001F00
7F00003F00
3FC000FF00
3FFF3FFE00
1FFFFFFC00
0FFFFFF800
07FFFFF000
01FFFFC000
001FFE0000
ENDCHAR
STARTCHAR Uhungarumlaut
ENCODING 368
SWIDTH 889 0
DWIDTH 37 0
BBX 33 38 2 0
BITMAP
0003CF0000
00070E0000
00070C0000
00061C0000
000E180000
0000000000
0000000000
FC00000F80
FC00000F80
FC00000F80
FC00000F80
FC00000F80
FC00000F80
FC00000F80
FC00000F80
FC00000F80
FC00000F80
FC00000F80
FC00000F80
FC00000F80
FC00000F80
FC00000F80
FC00000F80
FC00000F80
FC00000F80
FC00000F80
FC00000F80
FC00001F80
7C00001F80
7E00001F00
7F00003F00
3FC000FF00
3FFF3FFE00
1FFFFFFC00
0FFFFFF800
07FFFFF000
01FFFFC000
001FFE0000
ENDCHAR
STARTCHAR uhungarumlaut
ENCODING 369
SWIDTH 889 0
DWIDTH 37 0
BBX 33 38 2 0
BITMAP
0003CF0000
00070E0000
00070C0000
00061C0000
000E180000
0000000000
0000000000
FC00000F80
FC00000F80
FC00000F80
FC00000F80
FC00000F80
FC00000F80
FC00000F80
FC00000F80
FC00000F80
FC00000F80
FC00000F80
FC00000F80
FC00000F80
FC00000F80
FC00000F80
FC00000F80
FC00000F80
FC00000F80
FC00000F80
FC00000F80
FC00001F80
7C00001F80
7E00001F00
7F00003F00
3FC000FF00
3FFF3FFE00
1FFFFFFC00
0FFFFFF800
07FFFFF000
01FFFFC000
001FFE0000
ENDCHAR
STARTCHAR Uogonek
ENCODING 370
SWIDTH 889 0
DWIDTH 37 0
BBX 33 39 2 -8
BITMAP
FC00000F80
FC00000F80
FC00000F80
FC00000F80
FC00000F80
FC00000F80
FC00000F80
FC00000F80
FC00000F80
FC00000F80
FC00000F80
FC00000F80
FC00000F80
FC00000F80
FC00000F80
FC00000F80
FC00000F80
FC00000F80
FC00000F80
FC00000F80
FC00001F80
7C00001F80
7E00001F00
7F00003F00
3FC000FF00
3FFF3FFE00
1FFFFFFC00
0FFFFFF800
07FFFFE000
01FFFF8000
001FF00000
0000600000
0001800000
0003000000
0007000000
0007F80000
0007F80000
0007F80000
0003F80000
ENDCHAR
STARTCHAR uogonek
ENCODING 371
SWIDTH 889 0
DWIDTH 37 0
BBX 33 39 2 -8
BITMAP
FC00000F80
FC00000F80
FC00000F80
FC00000F80
FC00000F80
FC00000F80
FC00000F80
FC00000F80
FC00000F80
FC00000F80
FC00000F80
FC00000F80
FC00000F80
FC00000F80
FC00000F80
FC00000F80
FC00000F80
FC00000F80
FC00000F80
FC00000F80
FC00001F80
7C00001F80
7E00001F00
7F00003F00
3FC000FF00
3FFF3FFE00
1FFFFFFC00
0FFFFFF800
07FFFFE000
01FFFF8000
001FF00000
0000600000
0001800000
0003000000
0007000000
0007F80000
0007F80000
0007F80000
0003F80000
ENDCHAR
STARTCHAR Wcircumflex
ENCODING 372
SWIDTH 1268 0
DWIDTH 53 0
BBX 52 39 1 0
BITMAP
000001F0000000
000001F0000000
000003B8000000
0000071C000000
0000071C000000
00000E0E000000
00000000000000
00000000000000
FC01FC000007F0
FE00FC000007E0
7E00FE00000FC0
7F007E00000FC0
3F007F00001F80
1F803F00001F80
1F803F80003F00
0FC01F80003F00
0FC01FC0007E00
07E00FC0007E00
07E00FE000FC00
03F007E000F800
03F803F001F800
01F803F001F000
01FC01F803F000
00FC01F807E000
00FE03FC07E000
007E03FC0FC000
003F07FE0FC000
003F07FE1F8000
001F8FFF1F8000
001F9FBF3F0000
000FDF9FBF0000
000FFF1FFE0000
0007FE0FFC0000
0007FE0FFC0000
0003FC07F80000
0003FC07F80000
0001F803F00000
0001F803F00000
0000F001E00000
ENDCHAR
STARTCHAR wcircumflex
ENCODING 373
SWIDTH 1268 0
DWIDTH 53 0
BBX 52 39 1 0
BITMAP
000001F0000000
000001F0000000
000003B8000000
0000071C000000
0000071C000000
00000E0E000000
00000000000000
00000000000000
FC01FC000007F0
FE00FC000007E0
7E00FE00000FC0
7F007E00000FC0
3F007F00001F80
1F803F00001F80
1F803F80003F00
0FC01F80003F00
0FC01FC0007E00
07E00FC0007E00
07E00FE000FC00
03F007E000F800
03F803F001F800
01F803F001F000
01FC01F803F000
00FC01F807E000
00FE03FC07E000
007E03FC0FC000
003F07FE0FC000
003F07FE1F8000
001F8FFF1F8000
001F9FBF3F0000
000FDF9FBF0000
000FFF1FFE0000
0007FE0FFC0000
0007FE0FFC0000
0003FC07F80000
0003FC07F80000
0001F803F00000
0001F803F00000
0000F001E00000
ENDCHAR
STARTCHAR Ycircumflex
ENCODING 374
SWIDTH 926 0
DWIDTH 39 0
BBX 37 39 1 0
BITMAP
0000F80000
0000F80000
0001DC0000
00038E0000
00038E0000
0007070000
0000000000
0000000000
FE000003F8
7F000007F0
3F80000FE0
3FC0000FC0
1FC0001FC0
0FE0003F80
07F0007F00
03F800FE00
01FC01FC00
00FE01F800
00FE03F000
007F07F000
003F8FE000
001FDFC000
000FFF8000
0007FF0000
0007FE0000
0003FE0000
0001FC0000
0000F80000
0000F80000
0000F80000
0000F80000
0000F80000
0000F80000
0000F80000
0000F80000
0000F80000
0000F80000
0000F80000
0000F80000
ENDCHAR
STARTCHAR ycircumflex
ENCODING 375
SWIDTH 926 0
DWIDTH 39 0
BBX 37 39 1 0
BITMAP
0000F80000
0000F80000
0001DC0000
00038E0000
00038E0000
0007070000
0000000000
0000000000
FE000003F8
7F000007F0
3F80000FE0
3FC0000FC0
1FC0001FC0
0FE0003F80
07F0007F00
03F800FE00
01FC01FC00
00FE01F800
00FE03F000
007F07F000
003F8FE000
001FDFC000
000FFF8000
0007FF0000
0007FE0000
0003FE0000
0001FC0000
0000F80000
0000F80000
0000F80000
0000F80000
0000F80000
0000F80000
0000F80000
0000F80000
0000F80000
0000F80000
0000F80000
0000F80000
ENDCHAR
STARTCHAR Ydieresis
ENCODING 376
SWIDTH 926 0
DWIDTH 39 0
BBX 37 38 1 0
BITMAP
0007070000
00078F8000
00078F8000
0007070000
0000000000
0000000000
0000000000
FE000003F8
7F000007F0
3F80000FE0
3FC0000FC0
1FC0001FC0
0FE0003F80
07F0007F00
03F800FE00
01FC01FC00
00FE01F800
00FE03F000
007F07F000
003F8FE000
001FDFC000
000FFF8000
0007FF0000
0007FE0000
0003FE0000
0001FC0000
0000F80000
0000F80000
0000F80000
0000F80000
0000F80000
0000F80000
0000F80000
0000F80000
0000F80000
0000F80000
0000F80000
0000F80000
ENDCHAR
STARTCHAR Zacute
ENCODING 377
SWIDTH 802 0
DWIDTH 34 0
BBX 30 39 2 0
BITMAP
00000400
00003800
0003F800
001FF800
001FC000
00180000
00000000
00000000
FFFFFFF8
FFFFFFFC
FFFFFFFC
FFFFFFFC
FFFFFFF8
000007F0
00000FE0
00001FC0
00003F80
00007F00
0000FE00
0001FC00
0003F800
0007F000
000FE000
001FC000
003F8000
007F0000
00FE0000
01FC0000
03F80000
07F00000
0FE00000
1FC00000
3FC00000
7F800000
FFFFFFFC
FFFFFFFC
FFFFFFFC
FFFFFFFC
7FFFFFFC
ENDCHAR
STARTCHAR zacute
ENCODING 378
SWIDTH 802 0
DWIDTH 34 0
BBX 30 39 2 0
BITMAP
00000400
00003800
0003F800
001FF800
001FC000
00180000
00000000
00000000
FFFFFFF8
FFFFFFFC
FFFFFFFC
FFFFFFFC
FFFFFFF8
000007F0
00000FE0
00001FC0
00003F80
00007F00
0000FE00
0001FC00
0003F800
0007F000
000FE000
001FC000
003F8000
007F0000
00FE0000
01FC0000
03F80000
07F00000
0FE00000
1FC00000
3FC00000
7F800000
FFFFFFFC
FFFFFFFC
FFFFFFFC
FFFFFFFC
7FFFFFFC
ENDCHAR
STARTCHAR Zdotaccent
ENCODING 379
SWIDTH 802 0
DWIDTH 34 0
BBX 30 38 2 0
BITMAP
00070000
00078000
00078000
00070000
00000000
00000000
00000000
FFFFFFF8
FFFFFFFC
FFFFFFFC
FFFFFFFC
FFFFFFF8
000007F0
00000FE0
00001FC0
00003F80
00007F00
0000FE00
0001FC00
0003F800
0007F000
000FE000
001FC000
003F8000
007F0000
00FE0000
01FC0000
03F80000
07F00000
0FE00000
1FC00000
3FC00000
7F800000
FFFFFFFC
FFFFFFFC
FFFFFFFC
FFFFFFFC
7FFFFFFC
ENDCHAR
STARTCHAR zdotaccent
ENCODING 380
SWIDTH 802 0
DWIDTH 34 0
BBX 30 38 2 0
BITMAP
00070000
00078000
00078000
00070000
00000000
00000000
00000000
FFFFFFF8
FFFFFFFC
FFFFFFFC
FFFFFFFC
FFFFFFF8
000007F0
00000FE0
00001FC0
00003F80
00007F00
0000FE00
0001FC00
0003F800
0007F000
000FE000
001FC000
003F8000
007F0000
00FE0000
01FC0000
03F80000
07F00000
0FE00000
1FC00000
3FC00000
7F800000
FFFFFFFC
FFFFFFFC
FFFFFFFC
FFFFFFFC
7FFFFFFC
ENDCHAR
STARTCHAR Zcaron
ENCODING 381
SWIDTH 802 0
DWIDTH 34 0
BBX 30 39 2 0
BITMAP
00707000
0070E000
0038E000
001DC000
001F8000
000F8000
00000000
00000000
FFFFFFF8
FFFFFFFC
FFFFFFFC
FFFFFFFC
FFFFFFF8
000007F0
00000FE0
00001FC0
00003F80
00007F00
0000FE00
0001FC00
0003F800
0007F000
000FE000
001FC000
003F8000
007F0000
00FE0000
01FC0000
03F80000
07F00000
0FE00000
1FC00000
3FC00000
7F800000
FFFFFFFC
FFFFFFFC
FFFFFFFC
FFFFFFFC
7FFFFFFC
ENDCHAR
STARTCHAR zcaron
ENCODING 382
SWIDTH 802 0
DWIDTH 34 0
BBX 30 39 2 0
BITMAP
00707000
0070E000
0038E000
001DC000
001F8000
000F8000
00000000
00000000
FFFFFFF8
FFFFFFFC
FFFFFFFC
FFFFFFFC
FFFFFFF8
000007F0
00000FE0
00001FC0
00003F80
00007F00
0000FE00
0001FC00
0003F800
0007F000
000FE000
001FC000
003F8000
007F0000
00FE0000
01FC0000
03F80000
07F00000
0FE00000
1FC00000
3FC00000
7F800000
FFFFFFFC
FFFFFFFC
FFFFFFFC
FFFFFFFC
7FFFFFFC
ENDCHAR
STARTCHAR Scommaaccent
ENCODING 536
SWIDTH 880 0
DWIDTH 37 0
BBX 33 40 2 -9
BITMAP
03FFFFFF00
0FFFFFFF00
1FFFFFFF00
3FFFFFFF00
7FFFFFFF00
7F80000000
FE00000000
FC00000000
FC00000000
FC00000000
FC00000000
FC00000000
7E00000000
7FFFFFE000
3FFFFFFC00
1FFFFFFE00
0FFFFFFF00
03FFFFFF00
0000003F80
0000001F80
0000000F80
0000000F80
0000000F80
0000000F80
0000001F80
000000FF00
7FFFFFFF00
7FFFFFFE00
7FFFFFFE00
7FFFFFF800
7FFFFFE000
0000000000
0000000000
0003E00000
0003E00000
0001C00000
0001C00000
0000800000
0000800000
0000800000
ENDCHAR
STARTCHAR scommaaccent
ENCODING 537
SWIDTH 880 0
DWIDTH 37 0
BBX 33 40 2 -9
BITMAP
03FFFFFF00
0FFFFFFF00
1FFFFFFF00
3FFFFFFF00
7FFFFFFF00
7F80000000
FE00000000
FC00000000
FC00000000
FC00000000
FC00000000
FC00000000
7E00000000
7FFFFFE000
3FFFFFFC00
1FFFFFFE00
0FFFFFFF00
03FFFFFF00
0000003F80
0000001F80
0000000F80
0000000F80
0000000F80
0000000F80
0000001F80
000000FF00
7FFFFFFF00
7FFFFFFE00
7FFFFFFE00
7FFFFFF800
7FFFFFE000
0000000000
0000000000
0003E00000
0003E00000
0001C00000
0001C00000
0000800000
0000800000
0000800000
ENDCHAR
STARTCHAR uni021A
ENCODING 538
SWIDTH 720 0
DWIDTH 30 0
BBX 28 40 1 -9
BITMAP
FFFFFFF0
FFFFFFF0
FFFFFFF0
FFFFFFF0
FFFFFFF0
001F8000
001F8000
001F8000
001F8000
001F8000
001F8000
001F8000
001F8000
001F8000
001F8000
001F8000
001F8000
001F8000
001F8000
001F8000
001F8000
001F8000
001F8000
001F8000
001F8000
001F8000
001F8000
001F8000
001F8000
001F8000
001F8000
00000000
00000000
001F8000
000F0000
000F0000
00060000
00060000
00020000
00020000
ENDCHAR
STARTCHAR uni021B
ENCODING 539
SWIDTH 720 0
DWIDTH 30 0
BBX 28 40 1 -9
BITMAP
FFFFFFF0
FFFFFFF0
FFFFFFF0
FFFFFFF0
FFFFFFF0
001F8000
001F8000
001F8000
001F8000
001F8000
001F8000
001F8000
001F8000
001F8000
001F8000
001F8000
001F8000
001F8000
001F8000
001F8000
001F8000
001F8000
001F8000
001F8000
001F8000
001F8000
001F8000
001F8000
001F8000
001F8000
001F8000
00000000
00000000
001F8000
000F0000
000F0000
00060000
00060000
00020000
00020000
ENDCHAR
STARTCHAR circumflex
ENCODING 710
SWIDTH 379 0
DWIDTH 16 0
BBX 12 6 2 33
BITMAP
0F00
1F80
3B80
39C0
70E0
E0F0
ENDCHAR
STARTCHAR caron
ENCODING 711
SWIDTH 379 0
DWIDTH 16 0
BBX 12 6 2 33
BITMAP
E070
70E0
39C0
39C0
1F80
0F00
ENDCHAR
STARTCHAR breve
ENCODING 728
SWIDTH 382 0
DWIDTH 16 0
BBX 12 6 2 33
BITMAP
E070
E070
7060
70E0
3FC0
1F80
ENDCHAR
STARTCHAR dotaccent
ENCODING 729
SWIDTH 208 0
DWIDTH 9 0
BBX 5 4 2 34
BITMAP
70
F0
F8
70
ENDCHAR
STARTCHAR ring
ENCODING 730
SWIDTH 362 0
DWIDTH 15 0
BBX 11 9 2 33
BITMAP
1F00
7FC0
60E0
C060
C060
C060
6060
7FC0
3F80
ENDCHAR
STARTCHAR ogonek
ENCODING 731
SWIDTH 234 0
DWIDTH 10 0
BBX 8 9 1 -9
BITMAP
07
0C
30
60
E0
FF
FF
FF
7F
ENDCHAR
STARTCHAR tilde
ENCODING 732
SWIDTH 362 0
DWIDTH 15 0
BBX 11 4 2 34
BITMAP
7820
FE60
CFE0
83C0
ENDCHAR
STARTCHAR hungarumlaut
ENCODING 733
SWIDTH 399 0
DWIDTH 17 0
BBX 13 5 2 33
BITMAP
3C78
78E0
70E0
61C0
E180
ENDCHAR
STARTCHAR commaaccent
ENCODING 806
SWIDTH 219 0
DWIDTH 9 0
BBX 5 7 2 -9
BITMAP
F8
F8
70
70
20
20
20
ENDCHAR
STARTCHAR Wgrave
ENCODING 7808
SWIDTH 1268 0
DWIDTH 53 0
BBX 52 39 1 0
BITMAP
00001000000000
00001E00000000
00001FC0000000
00001FF8000000
000003FC000000
0000001C000000
00000000000000
00000000000000
FC01FC000007F0
FE00FC000007E0
7E00FE00000FC0
7F007E00000FC0
3F007F00001F80
1F803F00001F80
1F803F80003F00
0FC01F80003F00
0FC01FC0007E00
07E00FC0007E00
07E00FE000FC00
03F007E000F800
03F803F001F800
01F803F001F000
01FC01F803F000
00FC01F807E000
00FE03FC07E000
007E03FC0FC000
003F07FE0FC000
003F07FE1F8000
001F8FFF1F8000
001F9FBF3F0000
000FDF9FBF0000
000FFF1FFE0000
0007FE0FFC0000
0007FE0FFC0000
0003FC07F80000
0003FC07F80000
0001F803F00000
0001F803F00000
0000F001E00000
ENDCHAR
STARTCHAR wgrave
ENCODING 7809
SWIDTH 1268 0
DWIDTH 53 0
BBX 52 39 1 0
BITMAP
00001000000000
00001E00000000
00001FC0000000
00001FF8000000
000003FC000000
0000001C000000
00000000000000
00000000000000
FC01FC000007F0
FE00FC000007E0
7E00FE00000FC0
7F007E00000FC0
3F007F00001F80
1F803F00001F80
1F803F80003F00
0FC01F80003F00
0FC01FC0007E00
07E00FC0007E00
07E00FE000FC00
03F007E000F800
03F803F001F800
01F803F001F000
01FC01F803F000
00FC01F807E000
00FE03FC07E000
007E03FC0FC000
003F07FE0FC000
003F07FE1F8000
001F8FFF1F8000
001F9FBF3F0000
000FDF9FBF0000
000FFF1FFE0000
0007FE0FFC0000
0007FE0FFC0000
0003FC07F80000
0003FC07F80000
0001F803F00000
0001F803F00000
0000F001E00000
ENDCHAR
STARTCHAR Wacute
ENCODING 7810
SWIDTH 1268 0
DWIDTH 53 0
BBX 52 39 1 0
BITMAP
00000000800000
00000007000000
0000007F000000
000003FF000000
000007F8000000
00000700000000
00000000000000
00000000000000
FC01FC000007F0
FE00FC000007E0
7E00FE00000FC0
7F007E00000FC0
3F007F00001F80
1F803F00001F80
1F803F80003F00
0FC01F80003F00
0FC01FC0007E00
07E00FC0007E00
07E00FE000FC00
03F007E000F800
03F803F001F800
01F803F001F000
01FC01F803F000
00FC01F807E000
00FE03FC07E000
007E03FC0FC000
003F07FE0FC000
003F07FE1F8000
001F8FFF1F8000
001F9FBF3F0000
000FDF9FBF0000
000FFF1FFE0000
0007FE0FFC0000
0007FE0FFC0000
0003FC07F80000
0003FC07F80000
0001F803F00000
0001F803F00000
0000F001E00000
ENDCHAR
STARTCHAR wacute
ENCODING 7811
SWIDTH 1268 0
DWIDTH 53 0
BBX 52 39 1 0
BITMAP
00000000800000
00000007000000
0000007F000000
000003FF000000
000007F8000000
00000700000000
00000000000000
00000000000000
FC01FC000007F0
FE00FC000007E0
7E00FE00000FC0
7F007E00000FC0
3F007F00001F80
1F803F00001F80
1F803F80003F00
0FC01F80003F00
0FC01FC0007E00
07E00FC0007E00
07E00FE000FC00
03F007E000F800
03F803F001F800
01F803F001F000
01FC01F803F000
00FC01F807E000
00FE03FC07E000
007E03FC0FC000
003F07FE0FC000
003F07FE1F8000
001F8FFF1F8000
001F9FBF3F0000
000FDF9FBF0000
000FFF1FFE0000
0007FE0FFC0000
0007FE0FFC0000
0003FC07F80000
0003FC07F80000
0001F803F00000
0001F803F00000
0000F001E00000
ENDCHAR
STARTCHAR Wdieresis
ENCODING 7812
SWIDTH 1268 0
DWIDTH 53 0
BBX 52 38 1 0
BITMAP
00000E0E000000
00000F1F000000
00000F1F000000
00000E0E000000
00000000000000
00000000000000
00000000000000
FC01FC000007F0
FE00FC000007E0
7E00FE00000FC0
7F007E00000FC0
3F007F00001F80
1F803F00001F80
1F803F80003F00
0FC01F80003F00
0FC01FC0007E00
07E00FC0007E00
07E00FE000FC00
03F007E000F800
03F803F001F800
01F803F001F000
01FC01F803F000
00FC01F807E000
00FE03FC07E000
007E03FC0FC000
003F07FE0FC000
003F07FE1F8000
001F8FFF1F8000
001F9FBF3F0000
000FDF9FBF0000
000FFF1FFE0000
0007FE0FFC0000
0007FE0FFC0000
0003FC07F80000
0003FC07F80000
0001F803F00000
0001F803F00000
0000F001E00000
ENDCHAR
STARTCHAR wdieresis
ENCODING 7813
SWIDTH 1268 0
DWIDTH 53 0
BBX 52 38 1 0
BITMAP
00000E0E000000
00000F1F000000
00000F1F000000
00000E0E000000
00000000000000
00000000000000
00000000000000
FC01FC000007F0
FE00FC000007E0
7E00FE00000FC0
7F007E00000FC0
3F007F00001F80
1F803F00001F80
1F803F80003F00
0FC01F80003F00
0FC01FC0007E00
07E00FC0007E00
07E00FE000FC00
03F007E000F800
03F803F001F800
01F803F001F000
01FC01F803F000
00FC01F807E000
00FE03FC07E000
007E03FC0FC000
003F07FE0FC000
003F07FE1F8000
001F8FFF1F8000
001F9FBF3F0000
000FDF9FBF0000
000FFF1FFE0000
0007FE0FFC0000
0007FE0FFC0000
0003FC07F80000
0003FC07F80000
0001F803F00000
0001F803F00000
0000F001E00000
ENDCHAR
STARTCHAR Ygrave
ENCODING 7922
SWIDTH 926 0
DWIDTH 39 0
BBX 37 39 1 0
BITMAP
0008000000
000F000000
000FE00000
000FFC0000
0001FE0000
00000E0000
0000000000
0000000000
FE000003F8
7F000007F0
3F80000FE0
3FC0000FC0
1FC0001FC0
0FE0003F80
07F0007F00
03F800FE00
01FC01FC00
00FE01F800
00FE03F000
007F07F000
003F8FE000
001FDFC000
000FFF8000
0007FF0000
0007FE0000
0003FE0000
0001FC0000
0000F80000
0000F80000
0000F80000
0000F80000
0000F80000
0000F80000
0000F80000
0000F80000
0000F80000
0000F80000
0000F80000
0000F80000
ENDCHAR
STARTCHAR ygrave
ENCODING 7923
SWIDTH 926 0
DWIDTH 39 0
BBX 37 39 1 0
BITMAP
0008000000
000F000000
000FE00000
000FFC0000
0001FE0000
00000E0000
0000000000
0000000000
FE000003F8
7F000007F0
3F80000FE0
3FC0000FC0
1FC0001FC0
0FE0003F80
07F0007F00
03F800FE00
01FC01FC00
00FE01F800
00FE03F000
007F07F000
003F8FE000
001FDFC000
000FFF8000
0007FF0000
0007FE0000
0003FE0000
0001FC0000
0000F80000
0000F80000
0000F80000
0000F80000
0000F80000
0000F80000
0000F80000
0000F80000
0000F80000
0000F80000
0000F80000
0000F80000
ENDCHAR
STARTCHAR endash
ENCODING 8211
SWIDTH 590 0
DWIDTH 25 0
BBX 23 4 1 14
BITMAP
FFFFFE
FFFFFE
FFFFFE
FFFFFE
ENDCHAR
STARTCHAR emdash
ENCODING 8212
SWIDTH 866 0
DWIDTH 36 0
BBX 34 4 1 14
BITMAP
FFFFFFFFC0
FFFFFFFFC0
FFFFFFFFC0
FFFFFFFFC0
ENDCHAR
STARTCHAR quoteleft
ENCODING 8216
SWIDTH 259 0
DWIDTH 11 0
BBX 5 11 3 20
BITMAP
F8
F8
F8
F8
F8
78
78
78
78
78
38
ENDCHAR
STARTCHAR quoteright
ENCODING 8217
SWIDTH 259 0
DWIDTH 11 0
BBX 5 11 3 20
BITMAP
F8
F8
F8
F8
F0
F0
F0
F0
F0
E0
E0
ENDCHAR
STARTCHAR quotesinglbase
ENCODING 8218
SWIDTH 259 0
DWIDTH 11 0
BBX 5 11 3 -5
BITMAP
F8
F8
F8
F8
F0
F0
F0
F0
F0
E0
E0
ENDCHAR
STARTCHAR quotedblleft
ENCODING 8220
SWIDTH 462 0
DWIDTH 19 0
BBX 14 11 3 20
BITMAP
F87C
F87C
F87C
F87C
F87C
783C
783C
783C
783C
783C
381C
ENDCHAR
STARTCHAR quotedblright
ENCODING 8221
SWIDTH 462 0
DWIDTH 19 0
BBX 14 11 3 20
BITMAP
F87C
F87C
F87C
F87C
F078
F078
F078
F078
F078
E070
E070
ENDCHAR
STARTCHAR quotedblbase
ENCODING 8222
SWIDTH 462 0
DWIDTH 19 0
BBX 14 11 3 -5
BITMAP
F87C
F87C
F87C
F87C
F078
F078
F078
F078
F078
E070
E070
ENDCHAR
STARTCHAR dagger
ENCODING 8224
SWIDTH 466 0
DWIDTH 20 0
BBX 14 31 3 0
BITMAP
0300
0300
0300
0300
0300
0300
0300
FFFC
FFFC
0300
0300
0300
0300
0300
0300
0300
0300
0300
0300
0300
0300
0300
0300
0300
0300
0300
0300
0300
0300
0300
0300
ENDCHAR
STARTCHAR daggerdbl
ENCODING 8225
SWIDTH 466 0
DWIDTH 20 0
BBX 14 31 3 0
BITMAP
0300
0300
0300
0300
0300
0300
0300
FFFC
FFFC
0300
0300
0300
0300
0300
0300
0300
0300
0300
0300
0300
0300
0300
FFFC
FFFC
0300
0300
0300
0300
0300
0300
0300
ENDCHAR
STARTCHAR bullet
ENCODING 8226
SWIDTH 413 0
DWIDTH 17 0
BBX 12 12 3 10
BITMAP
1F00
3FC0
7FE0
FFE0
FFF0
FFF0
FFF0
FFF0
FFE0
7FE0
3FC0
1F00
ENDCHAR
STARTCHAR ellipsis
ENCODING 8230
SWIDTH 1310 0
DWIDTH 55 0
BBX 49 5 3 0
BITMAP
F80003E0000F80
F80003E0000F80
F80003E0000F80
F80003E0000F80
700001C0000700
ENDCHAR
STARTCHAR perthousand
ENCODING 8240
SWIDTH 1314 0
DWIDTH 55 0
BBX 51 36 2 -3
BITMAP
0000000F000000
0000000E000000
07E0001C000000
1FF0003C000000
3FFC0078000000
783C0070000000
F00E00E0000000
E00E01E0000000
E00603C0000000
C0070780000000
C0070700000000
E0060E00000000
E00E1E00000000
700E3C00000000
783C3800000000
3FF87000000000
1FF0F000000000
07C1E000000000
0003C1F0007C00
000387FC01FF00
00070FFE03FF80
000F1E0F0783C0
001E38038E00E0
001C38038E00E0
003830018C0060
007830018C0060
00F030018C0060
01E030018C0060
01C038038E00E0
03C038078E00E0
07801E0F0783C0
0F000FFE03FF80
0E0007FC01FF00
1C0001F0007C00
3C000000000000
78000000000000
ENDCHAR
STARTCHAR guilsinglleft
ENCODING 8249
SWIDTH 367 0
DWIDTH 15 0
BBX 12 16 2 8
BITMAP
0010
0030
00F0
03E0
0780
1E00
7C00
F000
E000
7800
3C00
0F00
03C0
01F0
0070
0010
ENDCHAR
STARTCHAR guilsinglright
ENCODING 8250
SWIDTH 368 0
DWIDTH 15 0
BBX 12 16 2 8
BITMAP
8000
C000
F000
7800
1E00
0F80
03C0
00F0
00F0
01E0
0780
1E00
3C00
F000
C000
8000
ENDCHAR
STARTCHAR fraction
ENCODING 8260
SWIDTH 185 0
DWIDTH 8 0
BBX 31 36 -12 -3
BITMAP
0000000E
0000001E
0000003C
00000038
00000070
000000F0
000001E0
000003C0
00000380
00000780
00000F00
00001E00
00001C00
00003800
00007800
0000F000
0001E000
0001C000
0003C000
00078000
000F0000
000E0000
001C0000
003C0000
00780000
00F00000
00E00000
01E00000
03C00000
07800000
07000000
0E000000
1E000000
3C000000
78000000
F0000000
ENDCHAR
STARTCHAR zerosuperior
ENCODING 8304
SWIDTH 449 0
DWIDTH 19 0
BBX 15 16 2 15
BITMAP
07C0
1FF0
3FF8
783C
E01E
E00E
C00E
C006
C006
C00E
E00E
E01E
783C
3FF8
1FF0
07C0
ENDCHAR
STARTCHAR foursuperior
ENCODING 8308
SWIDTH 452 0
DWIDTH 19 0
BBX 16 15 2 16
BITMAP
C01C
C01C
C01C
C01C
C01C
C01C
C01C
E01C
FFFF
7FFF
3FFF
001C
001C
001C
001C
ENDCHAR
STARTCHAR fivesuperior
ENCODING 8309
SWIDTH 472 0
DWIDTH 20 0
BBX 16 16 2 16
BITMAP
FFFE
FFFE
FFFE
E000
E000
E000
E000
FFFC
FFFE
0007
0007
0003
0007
FFFF
FFFE
FFFC
ENDCHAR
STARTCHAR sixsuperior
ENCODING 8310
SWIDTH 466 0
DWIDTH 20 0
BBX 16 16 2 16
BITMAP
0FFE
3FFE
7FFE
F000
E000
E000
C000
FFFC
FFFE
C00F
C007
E007
F007
7FFE
3FFE
1FF8
ENDCHAR
STARTCHAR sevensuperior
ENCODING 8311
SWIDTH 408 0
DWIDTH 17 0
BBX 14 16 2 16
BITMAP
FFFC
FFFC
FFFC
0038
0070
00E0
01E0
03C0
0380
0700
0E00
1E00
3C00
3800
7000
F000
ENDCHAR
STARTCHAR eightsuperior
ENCODING 8312
SWIDTH 479 0
DWIDTH 20 0
BBX 16 16 2 16
BITMAP
1FF8
7FFE
FFFF
E007
E007
E007
E007
3FFE
7FFE
E007
C003
C003
E007
FFFF
7FFE
3FFC
ENDCHAR
STARTCHAR ninesuperior
ENCODING 8313
SWIDTH 460 0
DWIDTH 19 0
BBX 16 16 2 16
BITMAP
3FE0
7FF8
FFFC
E01E
C00E
C007
C007
E007
FFFF
7FFF
0007
000E
001E
7FFE
7FFC
7FF0
ENDCHAR
STARTCHAR zeroinferior
ENCODING 8320
SWIDTH 449 0
DWIDTH 19 0
BBX 15 16 2 -1
BITMAP
07C0
1FF0
3FF8
783C
E01E
E00E
C00E
C006
C006
C00E
E00E
E01E
783C
3FF8
1FF0
07C0
ENDCHAR
STARTCHAR oneinferior
ENCODING 8321
SWIDTH 222 0
DWIDTH 9 0
BBX 6 16 1 0
BITMAP
F0
F8
FC
1C
0C
0C
0C
0C
0C
0C
0C
0C
0C
0C
0C
0C
ENDCHAR
STARTCHAR twoinferior
ENCODING 8322
SWIDTH 442 0
DWIDTH 19 0
BBX 15 16 2 0
BITMAP
FFF0
FFFC
FFFC
000E
000E
000E
001E
3FFC
7FF8
E000
E000
C000
C000
FFFE
FFFE
FFFE
ENDCHAR
STARTCHAR threeinferior
ENCODING 8323
SWIDTH 443 0
DWIDTH 19 0
BBX 15 16 2 0
BITMAP
FFF0
FFFC
FFFC
001E
000E
000E
001C
1FF8
1FFC
001E
000E
000E
000E
FFFE
FFFC
FFF0
ENDCHAR
STARTCHAR fourinferior
ENCODING 8324
SWIDTH 452 0
DWIDTH 19 0
BBX 16 15 2 0
BITMAP
C01C
C01C
C01C
C01C
C01C
C01C
C01C
E01C
FFFF
7FFF
3FFF
001C
001C
001C
001C
ENDCHAR
STARTCHAR fiveinferior
ENCODING 8325
SWIDTH 472 0
DWIDTH 20 0
BBX 16 16 2 0
BITMAP
FFFE
FFFE
FFFE
E000
E000
E000
E000
FFFC
FFFE
0007
0007
0003
0007
FFFF
FFFE
FFFC
ENDCHAR
STARTCHAR sixinferior
ENCODING 8326
SWIDTH 466 0
DWIDTH 20 0
BBX 16 16 2 0
BITMAP
0FFE
3FFE
7FFE
F000
E000
E000
C000
FFFC
FFFE
C00F
C007
E007
F007
7FFE
3FFE
1FF8
ENDCHAR
STARTCHAR seveninferior
ENCODING 8327
SWIDTH 408 0
DWIDTH 17 0
BBX 14 16 2 0
BITMAP
FFFC
FFFC
FFFC
0038
0070
00E0
01E0
03C0
0380
0700
0E00
1E00
3C00
3800
7000
F000
ENDCHAR
STARTCHAR eightinferior
ENCODING 8328
SWIDTH 479 0
DWIDTH 20 0
BBX 16 16 2 0
BITMAP
1FF8
7FFE
FFFF
E007
E007
E007
E007
3FFE
7FFE
E007
C003
C003
E007
FFFF
7FFE
3FFC
ENDCHAR
STARTCHAR nineinferior
ENCODING 8329
SWIDTH 460 0
DWIDTH 19 0
BBX 16 16 2 0
BITMAP
3FE0
7FF8
FFFC
E01E
C00E
C007
C007
E007
FFFF
7FFF
0007
000E
001E
7FFE
7FFC
7FF0
ENDCHAR
STARTCHAR Euro
ENCODING 8364
SWIDTH 884 0
DWIDTH 37 0
BBX 35 31 1 0
BITMAP
0003FFFFE0
001FFFFFC0
007FFFFF80
00FFFFFF80
01FFFFFF00
03FF800000
03FC000000
07F0000000
0FE0000000
0FC0000000
0FC0000000
7FFFFFF000
FFFFFFE000
1F80000000
1F80000000
1F80000000
1F80000000
7FFFFF0000
FFFFFE0000
0FC0000000
0FC0000000
07E0000000
07E0000000
07F0000000
03FC000000
01FFC00000
00FFFFFF00
007FFFFF00
003FFFFF00
000FFFFF00
0003FFFF00
ENDCHAR
STARTCHAR uni2117
ENCODING 8471
SWIDTH 829 0
DWIDTH 35 0
BBX 31 31 2 0
BITMAP
001FE000
00701C00
01800700
07000180
0C000040
18000020
10000030
30000018
607FF808
607FFC0C
40600604
C0600206
C0600206
80600202
80600602
80600402
8067F802
80600002
C0600006
C0600006
40600004
6000000C
60000008
30000018
10000010
18000020
0C000040
03000180
01800300
00701C00
001FE000
ENDCHAR
STARTCHAR trademark
ENCODING 8482
SWIDTH 536 0
DWIDTH 23 0
BBX 18 11 2 20
BITMAP
FE60C0
FE60C0
1861C0
1871C0
1871C0
187BC0
187BC0
186EC0
186EC0
186EC0
1864C0
ENDCHAR
STARTCHAR onethird
ENCODING 8531
SWIDTH 951 0
DWIDTH 40 0
BBX 36 36 2 -3
BITMAP
0000001E00
1E00001C00
1F00003800
1F80007800
038000F000
018001E000
01C001C000
01C003C000
01C0078000
01C00F0000
01C00E0000
01C01C0000
01C03C0000
01C0780000
01C0F00000
01C0E00000
01C1E00000
0003C7FF80
000787FFE0
000707FFF0
000E000070
001E000070
003C000070
0078000060
007000FFC0
00F000FFE0
01E0000070
03C0000070
0380000070
0700000070
0F0007FFF0
1E0007FFE0
3C0007FFC0
3800000000
7800000000
F000000000
ENDCHAR
STARTCHAR twothirds
ENCODING 8532
SWIDTH 979 0
DWIDTH 41 0
BBX 37 36 2 -3
BITMAP
0000000380
FFF0000780
FFFC000F00
FFFC001E00
001E001C00
000E003C00
000E007800
001C00F000
3FFC00E000
7FF801C000
E00003C000
C000078000
C0000F0000
C0000E0000
FFFC1E0000
FFFC3C0000
FFFC780000
000073FFC0
0000E3FFF0
0001E3FFF8
0003C00038
0007800038
0007000038
000F000038
001E003FF0
003C003FF0
0038000038
0070000018
00F0000018
01E0000038
03C003FFF8
038003FFF0
078003FFE0
0F00000000
1E00000000
3C00000000
ENDCHAR
STARTCHAR oneeighth
ENCODING 8539
SWIDTH 985 0
DWIDTH 41 0
BBX 38 36 2 -3
BITMAP
0000001E00
1E00001C00
1F00003800
1F80007800
038000F000
018001E000
01C001C000
01C003C000
01C0078000
01C00F0000
01C00E0000
01C01C0000
01C03C0000
01C0780000
01C0F00000
01C0E00000
01C1E00000
0003C0FFE0
000783FFF0
000707FFF8
000E078038
001E070018
003C070018
0078030038
007001FFF0
00F003FFF0
01E0078038
03C007001C
038007001C
0700070038
0F0007FFF8
1E0003FFF8
3C0001FFE0
3800000000
7800000000
F000000000
ENDCHAR
STARTCHAR threeeighths
ENCODING 8540
SWIDTH 972 0
DWIDTH 41 0
BBX 37 36 2 -3
BITMAP
0000000780
FFF0000700
FFFC000E00
FFFE001E00
001E003C00
000E007800
000E007000
000C00E000
1FF801E000
1FFC03C000
000E038000
000E070000
000E0F0000
000E1E0000
FFFE3C0000
FFFC380000
FFF8780000
0000F1FFC0
0001E3FFF0
0001C7FFF0
0003870078
0007860038
000F060038
001E070070
001C03FFE0
003C07FFF0
0078070078
00F00E0038
00E00E0038
01C00F0038
03C007FFF8
078007FFF0
0F0001FFE0
0E00000000
1E00000000
3C00000000
ENDCHAR
STARTCHAR fiveeighths
ENCODING 8541
SWIDTH 973 0
DWIDTH 41 0
BBX 37 36 2 -3
BITMAP
0000000380
FFFE000780
FFFE000F00
FFFE001E00
E000001C00
E000003C00
E000007800
E00000F000
FFFC00E000
FFFE01C000
000703C000
0007078000
00070F0000
00070E0000
FFFF1E0000
FFFE3C0000
FFFC780000
000071FFC0
0000E3FFF0
0001E7FFF8
0003C70078
0007860038
0007060038
000F070030
001E03FFE0
003C03FFF0
0038070038
00700E0038
00F00E0038
01E00F0038
03C007FFF8
038007FFF0
078001FFE0
0F00000000
1E00000000
3C00000000
ENDCHAR
STARTCHAR seveneighths
ENCODING 8542
SWIDTH 965 0
DWIDTH 41 0
BBX 37 36 2 -3
BITMAP
0000001E00
7FFF001C00
7FFF003800
7FFF007800
000E00F000
001C01E000
003801C000
007803C000
00F0078000
00E00F0000
01C00E0000
03801C0000
07803C0000
0F00780000
0E00F00000
1C00E00000
3801E00000
0003C1FFC0
000787FFE0
000707FFF0
000E0F0070
001E0E0038
003C0E0030
0078070070
007003FFE0
00F007FFF0
01E00F0070
03C00E0038
03800E0038
07000E0078
0F000FFFF0
1E0007FFF0
3C0001FFC0
3800000000
7800000000
F000000000
ENDCHAR
STARTCHAR minus
ENCODING 8722
SWIDTH 690 0
DWIDTH 29 0
BBX 23 4 3 14
BITMAP
FFFFFE
FFFFFE
FFFFFE
FFFFFE
ENDCHAR
STARTCHAR approxequal
ENCODING 8776
SWIDTH 691 0
DWIDTH 29 0
BBX 23 17 3 8
BITMAP
1F8002
7FF002
FFFC0E
FFFFFE
E07FFE
800FFC
8003F8
000000
000000
000000
1F8002
7FF002
FFFC0E
FFFFFE
E07FFE
800FFC
8003F8
ENDCHAR
STARTCHAR notequal
ENCODING 8800
SWIDTH 690 0
DWIDTH 29 0
BBX 31 36 -1 -3
BITMAP
0000001E
0000001C
0000003C
00000078
000000F0
000000E0
000001C0
000003C0
00000780
00000F00
0FFFFFE0
0FFFFFE0
0FFFFFE0
0FFFFFE0
00007000
0000F000
0001E000
0003C000
00078000
00070000
000E0000
0FFFFFE0
0FFFFFE0
0FFFFFE0
0FFFFFE0
00F00000
01E00000
03C00000
03800000
07800000
0F000000
1E000000
1C000000
3C000000
78000000
F0000000
ENDCHAR
STARTCHAR lessequal
ENCODING 8804
SWIDTH 690 0
DWIDTH 29 0
BBX 23 30 3 -2
BITMAP
000002
00000E
00003E
0001FE
0007FC
001FF0
00FF80
03FE00
0FF000
7F8000
FE0000
F00000
FE0000
7F8000
1FF000
03FC00
00FF00
003FE0
0007F8
0001FE
00007E
00000E
000002
000000
000000
000000
FFFFFE
FFFFFE
FFFFFE
FFFFFE
ENDCHAR
STARTCHAR greaterequal
ENCODING 8805
SWIDTH 690 0
DWIDTH 29 0
BBX 23 30 3 -2
BITMAP
800000
E00000
F80000
FF0000
7FC000
1FF000
03FE00
00FF80
001FE0
0003FC
0000FE
00001E
0000FE
0003FC
001FF0
007F80
01FE00
0FF800
3FC000
FF0000
FC0000
E00000
800000
000000
000000
000000
FFFFFE
FFFFFE
FFFFFE
FFFFFE
ENDCHAR
STARTCHAR .notdef
ENCODING -1
SWIDTH 430 0
DWIDTH 18 0
BBX 14 31 2 0
BITMAP
7FF8
FFFC
C00C
C00C
C00C
C00C
C00C
C00C
C00C
C00C
C00C
C00C
C00C
C00C
C00C
C00C
C00C
C00C
C00C
C00C
C00C
C00C
C00C
C00C
C00C
C00C
C00C
C00C
C00C
FFFC
7FF8
ENDCHAR
STARTCHAR nonmarkingreturn
ENCODING -1
SWIDTH 104 0
DWIDTH 4 0
BBX 1 1 0 0
BITMAP
00
ENDCHAR
STARTCHAR .null
ENCODING -1
SWIDTH 104 0
DWIDTH 4 0
BBX 1 1 0 0
BITMAP
00
ENDCHAR
STARTCHAR .ttfautohint
ENCODING -1
SWIDTH 104 0
DWIDTH 4 0
BBX 1 1 0 0
BITMAP
00
ENDCHAR
ENDFONT
